<mxfile modified="2024-03-28T14:26:09.933Z" host="Electron" agent="Mozilla/5.0 (X11; Linux x86_64) AppleWebKit/537.36 (KHTML, like Gecko) draw.io/24.1.0 Chrome/120.0.6099.109 Electron/28.1.0 Safari/537.36" etag="jCev7m807Dk93-9Ar8bL" version="24.1.0" type="device" pages="3">
  <diagram id="UIPrzbx_AW9JGpqhtjW1" name="overview">
    <mxGraphModel dx="1383" dy="559" grid="1" gridSize="10" guides="1" tooltips="1" connect="1" arrows="1" fold="1" page="1" pageScale="1" pageWidth="850" pageHeight="1100" math="0" shadow="0">
      <root>
        <mxCell id="0" />
        <mxCell id="1" parent="0" />
        <mxCell id="pNwCzHMw6aw-D7r6jr79-1" value="&lt;font face=&quot;Courier New&quot;&gt;Client&lt;/font&gt;" style="aspect=fixed;sketch=0;html=1;dashed=0;whitespace=wrap;fillColor=#2875E2;strokeColor=#ffffff;points=[[0.005,0.63,0],[0.1,0.2,0],[0.9,0.2,0],[0.5,0,0],[0.995,0.63,0],[0.72,0.99,0],[0.5,1,0],[0.28,0.99,0]];shape=mxgraph.kubernetes.icon2;prIcon=user;labelPosition=center;verticalLabelPosition=top;align=center;verticalAlign=bottom;fontColor=#595D6B;" vertex="1" parent="1">
          <mxGeometry x="160" y="177" width="40" height="38.4" as="geometry" />
        </mxCell>
        <mxCell id="Qu3-ATc50QOktxV0pUjC-1" style="edgeStyle=orthogonalEdgeStyle;rounded=0;orthogonalLoop=1;jettySize=auto;html=1;exitX=0.995;exitY=0.63;exitDx=0;exitDy=0;exitPerimeter=0;entryX=0.005;entryY=0.63;entryDx=0;entryDy=0;entryPerimeter=0;fontColor=#595D6B;" edge="1" parent="1" source="pNwCzHMw6aw-D7r6jr79-2" target="Qu3-ATc50QOktxV0pUjC-13">
          <mxGeometry relative="1" as="geometry">
            <mxPoint x="410" y="200" as="targetPoint" />
          </mxGeometry>
        </mxCell>
        <mxCell id="pNwCzHMw6aw-D7r6jr79-2" value="&lt;font face=&quot;Courier New&quot;&gt;Kubernetes&lt;br&gt;Control-Plane&lt;/font&gt;" style="aspect=fixed;sketch=0;html=1;dashed=0;whitespace=wrap;fillColor=#2875E2;strokeColor=#ffffff;points=[[0.005,0.63,0],[0.1,0.2,0],[0.9,0.2,0],[0.5,0,0],[0.995,0.63,0],[0.72,0.99,0],[0.5,1,0],[0.28,0.99,0]];shape=mxgraph.kubernetes.icon2;prIcon=api;labelPosition=center;verticalLabelPosition=top;align=center;verticalAlign=bottom;fontColor=#595D6B;" vertex="1" parent="1">
          <mxGeometry x="320" y="177" width="39.58" height="38" as="geometry" />
        </mxCell>
        <mxCell id="pNwCzHMw6aw-D7r6jr79-5" value="&lt;font face=&quot;Courier New&quot;&gt;clear data&lt;/font&gt;" style="whiteSpace=wrap;html=1;shape=mxgraph.basic.document;fillColor=#f5f5f5;strokeColor=#666666;labelPosition=center;verticalLabelPosition=bottom;align=center;verticalAlign=top;fontColor=#595D6B;" vertex="1" parent="1">
          <mxGeometry x="485" y="182" width="30" height="36" as="geometry" />
        </mxCell>
        <mxCell id="pNwCzHMw6aw-D7r6jr79-7" style="edgeStyle=orthogonalEdgeStyle;rounded=0;orthogonalLoop=1;jettySize=auto;html=1;exitX=0.995;exitY=0.63;exitDx=0;exitDy=0;exitPerimeter=0;entryX=0.005;entryY=0.63;entryDx=0;entryDy=0;entryPerimeter=0;strokeWidth=1;fontColor=#595D6B;" edge="1" parent="1" source="pNwCzHMw6aw-D7r6jr79-1" target="pNwCzHMw6aw-D7r6jr79-2">
          <mxGeometry relative="1" as="geometry" />
        </mxCell>
        <mxCell id="pNwCzHMw6aw-D7r6jr79-6" value="&lt;font face=&quot;Courier New&quot;&gt;clear data&lt;/font&gt;" style="whiteSpace=wrap;html=1;shape=mxgraph.basic.document;fillColor=#f5f5f5;strokeColor=#666666;labelPosition=center;verticalLabelPosition=bottom;align=center;verticalAlign=top;fontColor=#595D6B;" vertex="1" parent="1">
          <mxGeometry x="246" y="181" width="30" height="36" as="geometry" />
        </mxCell>
        <mxCell id="pNwCzHMw6aw-D7r6jr79-14" value="" style="shape=image;verticalLabelPosition=bottom;labelBackgroundColor=default;verticalAlign=top;aspect=fixed;imageAspect=0;image=data:image/png,iVBORw0KGgoAAAANSUhEUgAABkAAAAZACAYAAAAhDI6nAAAABmJLR0QA/wD/AP+gvaeTAAAgAElEQVR4nOzdedStV0Hn+e8dMhCmJBDIBBqQSQRlHgSEECIgAYJEBFu6RIuS0pKytAt7ubqkHaroqmoFhxYURcQJUKZYyhAJSEQEBIEgc5ghkEBIyJx7k/7juVlJNMN9x/2ccz6ftX4rLBaL+3v3c+57cvY+e+8CAAAAAAAAAAAAAAAAAAAAAAAAAAAAAAAAAAAAAAAAAAAAAAAAAAAAAAAAAAAAAAAAAAAAAAAAAAAAAAAAAAAAAAAAAAAAAAAAAAAAAAAAAAAAAAAAAAAAAAAAAAAAAAAAAAAAAAAAAAAAAAAAAAAAAAAAAAAAAAAAAAAAAAAAAAAAAAAAAAAAAAAAAAAAAAAAAAAAAAAAAAAAAAAAAAAAAAAAAAAAAAAAAAAAAAAAAAAAAAAAAAAAAAAAAAAAAAAAAAAAAAAAAAAAAAAAAAAAAAAAAAAAAAAAAAAAAAAAAAAAAAAAAAAAAAAAAAAAAAAAAAAAAAAAAAAAAAAAAAAAAAAAAAAAAAAAAAAAAAAAAAAAAAAAAAAAAAAAAAAAAAAAAAAAAAAAAAAAAAAAAAAAAAAAAAAAAAAAAAAAAAAAAAAAAAAAAAAAAAAAAAAAAAAAAAAAAAAAAAAAAAAAAAAAAAAAAAAAAAAAAAAAAAAAAAAAAAAAAAAAAAAAAAAAAAAAAAAAAAAAAAAAAAAAltWO0QUAAGCNjqi+vfqW6qjqyOp21TH7/nnQvhxSHVDdorqsurg6v7q0uqi6oDqvOutf5LPV5dv208DWOLzp78jVOW7fP2/T9HfjltWB1a275u/LpdUl1ZVNf1f2Vufsy9nVV/b9589WH6s+XV2xXT8QAACslQUQAADm6sDqvtWDq3tW99iXw7f4z91bfaZ61778ffWBas8W/7mwXsdW968ecK1/HrYNf+6epr8rH68+VL1nXz63DX82AADcJAsgAADMxc2r46uHVQ9tmsg9eGija1xUvbf62+oN1T9WVw1txCo7tnp89dimBcKjxtb5V75Svbt6Z3Va9b6mXSUAAAAAACvjLtVzqzc1Hb9z1YLk89VvVSc27VSBrbSrekT135p2I41+/a8151avrP5t0+INAAAAAMBSukv1/KY7BEZPzG5GvlH9TtOxQ7CZvrP6f6svN/51vlnZW51R/ccshgAAAAAAS+CI6ieb7tQYPQG7lfmn6ieqQzdn2FhBR1b/qem1NPr1vNW5svq76jlNl7EDAAAAACyMB1R/2GIdb7UZuah6cXWnjQ8hK+K7qldUlzf+9Tvq78zLmu7/AQAAAACYpQOrp1d/3/hJ1dG5omlS+9s3NKIsqx3V45ouCh/9Wp1Tzqx+rDpo/UMLAAAAALB5Dqr+ffW5xk+gzi17q7+o7r3u0WWZ7KieWn2o8a/NOedL1c/lSDkAAAAAYBALH/ufPdVLq6PWNdIsgxOr9zb+tbhIOb96QXWbdYw3AAAAAMCa7ayemYWP9eTC6r9Uh6x51FlUD65Ob/xrb5Hzjer/qm65xrEHAAAAANhvD6/e0/gJ0UXP56snr3HsWSy3r/6gurLxr7dlyVern266bwgAAAAAYFMcV7268ROgy5bXVEev4Tkwf7uq/1Cd1/jX17LmY02XyAMAAAAArNuu6meqixo/6bms+Ub1nKYLslls96/e3/jX1KrkDdWd9+vJAAAAAABcy3fl0ubtzJuajk1i8RxU/bfqisa/jlYtlzbdq3PATT4lAAAAAGDlHVD9SiZzR+TL1WNu+hExIw+qPtz4186q5wPVfW/iWQEAAAAAK+xuueR8dPY27SbYfRPPirF2V79U7Wn8a0amXFH91+rgG3luAAAAAMAKemb1zcZPYsqUd+d+g7m6Y/WOxr9G5Prz4ereN/j0AAAAAICVcevqNY2ftJR/nfOqp97wo2OAU5qey+jXhtx4Lq5+/AaeIQAAAACwAu5Zfazxk5Vy4/n/qgNv4BmyPXZXv97414KsLa+pDr+e5wkAAAAALLEnVec3foJS9i9nVEdc75Nkq92mOq3xrwFZXz7ZtNgLAAAAACy5ndV/r65s/MSkrC2faLqonu1z3+qzjX/2srGcXz0hAAAAAGBpHVz9aeMnI2VjE7mP/5cPli3xg9VFjX/msjm5snp+tSMAAAAAYKkcWb278ZOQsvFcUf1kbJVd1Qsa/5xla/Kn1c0CAAAAAJbCPavPNH7iUTY3v9Y0Wc/mObx6c+OfrWxt/qE6OgAAAABgoT2w+lrjJxxla/KGfJt9sxxXfaTxz1S2J1+oHhAAAAAAsJCOr77Z+IlG2dq8ozosNuL+1Zcb/yxle3NR9b0BAAAAAAvlCdXFjZ9glO3Jh6tjYz1OrC5o/DOUMbmsekoAAAAAwEI4uemi7NETi7K9+XR1l1iLZ+fvitTl1dMCAAAAAGbthOrSxk8oyph8rXpw3JQd1fMb/7xkPtlTPSsAAAAAYJYe0XSm/eiJRBmbC5ruf+H6HVD9YeOfk8wve6sfDwAAAACYlQfmHgO5Ju41uH6HVP+r8c9H5psrq58JAICFtWt0AQAANtW9q7dUh44uwmzsaloA+VT1ocFd5uKw6o3ZHcON21Gd2HQk1jsGdwEAYB0sgAAALI+7VG+tjhhdhNm5ehHkvOofBncZ7cjqtOoBo4uwMI5v2lX3rtFFAABYGwsgAADL4Y7V6dWxo4swWzuqx1YXV+8c3GWUOzUtEn776CIsnBOrz1QfGNwDAIA1sAACALD4Dq/+tmlyF27Mjuox1e6mBbNVcr+mn/kOo4uwkHZUj2/aQXXW4C4AAAAAsBIOqP6m8ZcFy+Llt6qdrYZHVec3fsxl8XNR9ZAAAAAAgC33242fEJTFzR83LaIts5OrSxo/1rI8Oae6ewAAAADAlnlu4ycCZfFzanWzltNPVHsbP8ayfPlcjlMDAAAAgC1xYnVF4ycBZTnytupWLZfnNX5cZbnzoeqwAAAAAIBNc4/qG42f/JPlynuqI1p8u6uXNn48ZTXy5mpXAADMkn9RAwBYLIc3XXp+9OgiLJ2jq6dWb6y+NrjLet2i+ovqaaOLsDLu3HSE3FtGFwEAAACARba7emvjv/Esy51zqoe0eO5YfbDx4yermacHAMDs7BxdAACA/faL1aNGl2Dp3bY6vcXaRXHv6u+qe40uwsr6vep+o0sAAAAAwCI6odrb+G85y+pkb/XTzd/J1YWNHy+RTzctIAIAAAAA++l21ZcaP7knq5k/rg5pfnZVz8/CoMwrf9N0XCEAADPgEnQAgHnb2XSp83eNLsLKulf1fU2XPJ83uMvVblu9tnpWtWNwF7i246pbVG8eXQQAAAAA5u7nGv+NZpGrqnOrExvvQdXnGj8eIjeWHwoAAAAAuEEPrC5v/ESeyNW5snpRdWDbb2f13OqyNfQVGZULq7sFAMBQtosDAMzTodX7q28d3AOuz/uajp/6wDb9efeoXlo9dJv+PNgM76m+u7pidBEAgFXlDhAAgHn6o0z2Ml9HVT/adDn6u9q6Cd5Dqp9v+vtw3Bb9GbBVjmnaLXXa6CIAAAAAMBfPaPzxLSL7my82LYYc0ObZXf1I9fkZ/HwiG8ne6vgAABjCEVgAAPNy++rM6raji8AanVW9sHp5dcE6/z9uVf3v1X+s7rRJvWC0L1bfWX1tdBEAgFVjAQQAYF5eXT11dAnYgIurN+zL6dXZN/G/P6p6VHVS9cSmY69g2byuOnl0CQCAVWMBBABgPk6pXjW6BGyyLzXtDjm7aWfIVdWtqyOrOzctgMAqeE714tElAABWiQUQAIB5uG314ep2o4sAsCUuqe5XfWR0EQCAVbFzdAEAAKr6jSx+ACyzm1Uvq3aNLgIAsCr8ixcAwHgnVb8yugQAW+7Y6hvVu0YXAQBYBY7AAgAY69DqzOqY0UUA2BYXV/euPjW6CADAsnMEFgDAWP89ix8Aq+SQ6nfzhUQAgC3nCCwAgHHuV/12JsEAVs1x1Req940uAgCwzHzYBgAYY2f1d9WDRxcBYIjzq+9oWggBAGALOAILAGCMZ2XxA2CV3bppFyAAAFvEEVgAANvvsOp11c1HFwFgqLtWH6k+PLoIAMAycgQWAMD2+83qJ0aXWELnVadVZ1Qfqs6qvlZdWB1cfXv1uKbdN3ca1BHm4KzqtdXbqzOrs6tLqoOaFmhvX92l+q7qofty0JCmq+Hs6u5NR2IBAAAAwML6rmpPdZVsSq6o/rx6fLV7P5/BruqHqs/MoL/IduavquNb+xfhDqme2rRz7YoZ/BzLmF/d76cBAAAAADO0o2l3wuiJtmXInur329hOjoOrX64un8HPI7KVeWfTLo7NcHT1gqbdCqN/rmXK5dU91/AcAAAAAGBWfrjxk2zLkNOre61x7G/MfauPz+DnEtnsfL36sbbm6OPbVP+zumwGP+ey5G/W9AQAAAAAYCZuVn2u8RNsi5wL2rrJ3FtWr5jBzyiyWTm1abfGVrtL9aYBP9+y5pS1DT8AAAAAjPe8xk+sLXLeXd15zaO+dv+munibfzaRzcwl1U+2NQuFN+ZHcizWZuSzTXeuAAAAAMBCuE11XuMn1hY1v1sdtOZRX78HVl/egp9DZKvzmeo+jXNc9feNH4dFzy+vdeABAAAAYJRfa/yE2iJmT9POmRGOqf5xPzqKzCV/W92+8XZXv9n48VjkXFrdda0DDwAAAADb7bimyazRE2qLlkuqJ69jvDfTLau/bPxYiNxUfqM6oHl5bnVF48dmUfOGtQ85AAAAAGyvP2n8RNqi5ZvVo9cz2FtgV/XbjR8TkevLZdWzmq8Tc/zfRvKotQ85AAAAAGyP76r2Nn4SbZFycfXIdYz1VnOJvcwt36we2/zdp/pq48drEfP+aufahxwAAAAAtt5pjZ9AW6RcXn3fukZ6e/z7LGjJPPLFpgXWRXGPps6jx20R87R1jDcAAAAAbKnHNX7ibJFyRfX96xrp7fW0pmOHRo+XrG4+WB3b4rlr9fnGj9+i5ZPVgesYbwAAAADYMu9u/MTZouTK6ofXN8xDPKa6sPHjJquX06pbt7iOq77Q+HFctPyH9Qw2AAAAAGyFJzR+wmyR8gvrG+ahHlCd2/ixk9XJa6uDW3z3rL7W+PFcpJxT3Wo9gw0AAAAAm83uj/3Pn1c71jfMw7ncWbYrL6t2tzwenF1Ua80vrWukAQAAAGATndT4ibJFyfuqm69vmGfj7rnXQLY2L2g5ndR098/o8V2UXNxi3v0CAAAAwJLYUb238RNli5AvVsesb5hn57imi4pHj6ksV/a2/Hc/PLvx47xIecn6hhkAAAAANu6JjZ8gW4RcXj1knWM8V0dXZzZ+bGU5cnn1jFbDbzZ+vBcllzctuAIAAADAttqRuz/2N89b5xjP3WHVOxs/vrLYubB6XKvjgOr0xo/7ouR31zfMAAAAALB+T278xNgi5K3VznWO8SK4efWmxo+zLGa+Vj201XOb6qzGj/8i5PLqTusbZgAAAABYux1NF3qPnhibe75c3X6dY7xIDqpe0/jxlsXKp6u7tbruX13S+OewCHnpOscYAAAAANbscY2fEJt79lYnrHeAF9Cu6mWNH3dZjHyw6R6ZVfesxj+LRYhdIAAAAABsm7c1fkJs7vkf6x3cBbaj+tXGj73MO2+vDo2rvbLxz2QR8nvrHWAAAAAA2F8PbvxE2Nzzsepm6x3gJfCz1ZWNfw4yv7yqOjiu7dDqs41/NnOPXSAAAAAAbLnXNX4ibM7ZWz183aO7PJ5SXdz45yHzyYuqnXF9HlbtafwzmnvcBQIAAADAlrlb0wT/6EmwOefX1j26y+fB1Vcb/0xkbPZUz4mb8ouNf1Zzz57qLusdYAAAAAC4Mb/X+AmwOeeT1c3XPbrL6e7VWY1/NjIm51cnxv7YXb2z8c9s7nnJegcYAAAAAG7IMdVljZ/8mmuurB653sFdckdW72n8M5LtzWere8Va3K26pPHPbs65pDpqvQMMALDsnDkLALA+P10dOLrEjL28etvoEjN1dtPi0KmDe7B9/rHpCLQPjS6yYD7WdBQWN+zg6rmjSwAAAACwPG5dfaPx3/yda87PN5L3x47qeblHZtnziuqQWK/d1Xsb/xznnPOrQ9c7wAAAAABwbc9r/ITXnPNT6x/alXRSdV7jn5tsbi6t/l1shvtUVzT+mc45/3ndowsAAAAA++yuPtf4ya655szqgHWP7ur6tuqDjX9+sjn5fNORV2ye/9r45zrnnN10HBYAAAAArNsPNH6ia665snrE+od25d28+tPGP0fZWN5U3TY228HVRxv/fOecf7vu0QUAAACA6p2Nn+Saa/5oA+PKNZ5dXd745ylry5XVC6pd//qRsklOaPxznnM+mdcfAAAAAOt0/8ZPcM01F1ZHr39o+RceWX2x8c9V9i/nVk+4vgfJpvuLxj/vOeep6x9aAAAAAFbZKxo/uTXX/NIGxpXrd5tM9i5C3pjFv+30LdXFjX/uc80/rH9oAQAAAFhVR1WXNX5ya475anWr9Q8tN+GZ1QWNf85y3VxSPa/aecOPji3yC41//nPOQ9c/tAAAAACsov+78ZNac81PbGBc2T93rt7W+GctU95V3ePGHhhb6uDqrMa/DuaaV65/aAEAAABYNQdVZzd+UmuO+VR14PqHljXY0bQb5GuNf+6rmouadn24aHq8Jzf+9TDXXFHdYf1DCwAAAMAq+TeNn9Caa1y4u/2Orl7T+Ge/ajm1uuN+PB+2z5sb/7qYa16wgXEFAAAAYIW8u/GTWXPM3zftSmCMJ1WfaPzrYNnz6Sz0zdV9qr2Nf43MMedWh6x/aAEAAABYBfdv/ETWXPPI9Q8rm+TA6merbzT+9bBsuaD6P5vum2C+/qjxr5W55tkbGFcAAAAAVsBLGz+JNcecvpFBZdMdUb242tP418aiZ0/1u9WRa3oCjPKt1aWNf93MMWdmlx4AAAAAN+DQ6sLGT2LNMd+zgXFl6xxXvaTpEuTRr5FFy97qVdXd1zzqjParjX/9zDWP2cC4AgAAALDEntv4yas55m82MqhsCwsh+x8LH4vvsOprjX8tzTF/uYFxBQAAAGBJ7aj+ufGTV3PMIzYwrmyvu1W/U13U+NfN3HLRvrG527pHlzn5uca/puaYvdWdNzCuAAAAACyhRzV+4mqOsftjMR3WdFn6pxr/GhqdT1U/s29MWB43q77U+NfXHPP/bGBcAQAAAFhCr2z8pNUc8/CNDCrD7axOqv6q1Toe6/Kmo4CesG8MWE6OLbz+fLU6aAPjCgAAAMASObJpwnT0pNXcYvfHcjmi+onqHdWVjX99bXb2Vn9bPae67SaNGfNmF8gN5+kbGFcAAAAAlsjPN36yao45YSODyqzdsfrP1Rkt9s6QK/b9DD9b3WFTR4hFYRfI9eftGxlUAAAAAJbDjuqTjZ+smlvev29sWH43b1rsekH13sa/9m4qn6peUp1SHboF48FiObj6QuNfl3PMPTcwrgAAAAAsgeMbP0k1x/zARgaVhXbH6mlNCyJvrs5p3Ovwq9Wb9nX5gX3d4F/6qcb/zpxjXrSRQQUAWES+xQcAcF1/XD1jdImZ+WR196Y7FaCm46Xu0/S6OLb6ln3/3R3a+H0b51af35fP7vvnR5t2IX1hg//frIaDm3YGHT26yMx8ozqmunh0EQCA7WIBBADgGoc1XaB78OgiM/PjTUcMwf64WXVU09+nA6pbVIdUB1W32ve/uaC6tLqk+mbT3R3nVWfv++9go34qOx6uz7Oql40uAQAAAMD2+8nGH1Eyt5ydBSFg8Rxcfbnxv0PnlndtZFABABbNztEFAABm5FmjC8zQC5u+qQ+wSC6tfmt0iRl6UPWdo0sAAAAAsL3u0/hv5s4tF1SHbmRQAQY6vOmItdG/S+cWR4MBACvDDhAAgMmPjS4wQ3/QdGkuwCL6evU7o0vM0A813ckDAAAAwAo4uGmibPS3cueUK6u7bWRQAWbgmOqyxv9OnVtO2cigAgAsCjtAAADqKdVho0vMzF9VHxtdAmCDvlj9yegSM+TOKwAAAIAV8abGfxt3bjlhQyMKMB93r/Y2/vfqnLK3usNGBhUAAACA+Tu62tP4yag55cPVjo0MKsDMvK7xv1vnlp/f0IgCACwAR2ABAKvuf6t2jS4xMy9qmhwDWBa/NrrADP1oFrsBAAAAltoHG/8t3Dnl69XNNzSiAPP0/sb/jp1bvmdDIwoAMHN2gAAAq+y+1b1Gl5iZ360uGl0CYAv8+ugCM+QydAAAAIAl9cLGf/t2Ttlb3WlDIwowXwdXX23879o55aLqlhsZVACAObMDBABYVburHxxdYmbeVJ01ugTAFrm0esnoEjNzSHXy6BIAAAAAbK4nNv6bt3PLSRsaUYD5O6q6rPG/b+eUt2xoRAEAAACYnVc3ftJpTvlctWtDIwqwGP648b9z55S91bEbGlEAgJlyBBYAsIoOy26Hf+l3mibBAJbdi0YXmJmd1dNHlwAAAABgc/zbxn/jdk65vDp6QyMKsFje0/jfvXPKmRsbTgCAebIDBABYRb7pel2vrb40ugTANnrx6AIzc8/q3qNLAAAAALAxR1d7Gv9t2znlkRsZUIAFdLPq643//Tun/I8NjSgAwAzZAQIArJqn57Lva/tY9fbRJQC22SXVK0aXmJln5P0RAFgyFkAAgFXj+Kvr+v2mb/4CrJoX5/fftR1dHT+6BAAAAADrc7fGHzEyp1xRHbmhEQVYbG9v/O/iOeXlGxtOAIB5sQMEAFglzxhdYGb+sjp7dAmAgV4yusDMnNx0PwoAAAAAC+Zjjf927ZzyhI0NJ8DCO7D6SuN/H88pT9nQiAIAzIgdIADAqnhAddfRJWbky9UbR5cAGOzy6g9Gl5iZp40uAACwWSyAAACrwuXn1/Xyas/oEgAz8PtNOx+YPKG6xegSAAAAAOyfndUXGn+syJxy9w2NKMByOaPxv5fnFF8aAACWgh0gAMAqeGh1zOgSM/L26qOjSwDMyMtGF5gZx2ABAEvBAggAsApOGV1gZv5gdAGAmXlldeHoEjPy2OrQ0SUAADbKAggAsOx2Vt8/usSMXFT9xegSADNzYfXq0SVm5KDq5NElAAA2ygIIALDsvjvHX13ba6pvji4BMEOOwboux2ABAAvPAggAsOyeOrrAzLxidAGAmTqj+vjoEjPy6OqI0SUAADbCAggAsMwcf3VdX6zeOroEwExdlTuSrm13jsECABacBRAAYJk5/uq6/qjaO7oEwIy9PL8nr82XCACAhWYBBABYZqeMLjAzfzS6AMDMfSk75a7t+Oq2o0sAAKyXBRAAYFk5/uq63lOdOboEwAJwV9I1dldPHF0CAGC9LIAAAMvqYdXRo0vMyB+OLgCwIF5TXTi6xIz4MgEAsLAsgAAAy+qpowvMyBXVK0eXAFgQF1WvG11iRk6oDh1dAgBgPSyAAADLyPFX1/Xm6pzRJQAWiDuTrnFgddLoEgAA62EBBABYRg/P8VfX9qejCwAsmLdUXxxdYkZ8qQAAWEgWQACAZXTK6AIzcnH1+tElABbMlTk68NoeW91qdAkAgLWyAAIALJud1cmjS8zI63OZL8B6vGJ0gRk5qPq+0SUAANbKAggAsGweluOvru3PRhcAWFD/VJ05usSMPGV0AQCAtbIAAgAsmx8YXWBGzqveOLoEwAJzh9I1HlsdPLoEAMBaWAABAJbJznxD9dpeVV0+ugTAAvuz6qrRJWbiFtUjR5cAAFgLCyAAwDJ5RHXU6BIz4pvLABtzVvXe0SVm5EmjCwAArIUFEABgmXz/6AIz8oXqHaNLACwBdyld46Rqx+gSAAD7ywIIALAsduSbqdf26urK0SUAlsCf5ffp1Y6p7je6BADA/rIAAgAsiwdUdxhdYkZePboAwJL4UvV3o0vMyBNHFwAA2F8WQACAZXHy6AIz8oXqXaNLACyRV44uMCN2WwIAC8MCCACwLJ48usCMvLq6anQJgCXyqmrP6BIzce/quNElAAD2hwUQAGAZ3KO6++gSM+L4K4DNdU51+ugSM+IYLABgIVgAAQCWgd0f1/h8jr8C2AqvGl1gRiyAAAALwQIIALAMnjK6wIw4/gpga7wux2Bd7RHVYaNLAADcFAsgAMCiO6a63+gSM+L4K4CtcW719tElZmJ39bjRJQAAbooFEABg0T2l2jG6xEx8vvqH0SUAlthfjC4wI08aXQAA4KZYAAEAFt3JowvMiOOvALbWa6q9o0vMxOOrg0aXAAC4MRZAAIBFdpvq4aNLzIjjrwC21leqM0aXmIlbVN8zugQAwI2xAAIALLKTms4hx/FXANvFMVjXeOLoAgAAN8YCCACwyBx/dY1X5fgrgO3w6urK0SVm4sm5hwsAAABg0x1SXdQ06S/1oI0NJwBrcEbjf+/PJffd4FgCAGwZO0AAgEX12KZFEOpz1btHlwBYIY7BuoZjsACA2bIAAgAsqqeMLjAjr276Fi4A2+O1owvMyJNGFwAAAABYJgdUX2/8sR9zyYM3NpwArMMHG//7fy65wwbHEgBgS9gBAgAsokdVh40uMROfr/5hdAmAFfSG0QVm5LGjCwAAXB8LIADAIjp5dIEZeWXTt28B2F6vH11gRiyAAAAAAGyCndUXG3/cx1zykI0NJwDrtCPvR1fn/KbjKQEAZsUOEABg0TywOnp0iZk4O8dfAYxyVXXq6BIzcavqoaNLAAD8SxZAAIBF88TRBWbktdWVo0sArDD3gFzjcaMLAAAAACy6Dzf+qI+55DEbHEsANuag6oLGvx/MIR/Y4FgCAAAArLQ7N36CZy45rzpwY8MJwCb488a/J8wld9jgWAIAbCpHYAEAi+RJowvMyF9Wl48uAYBjsK7lxNEFAACuzQIIALBILIBc47WjCwBQTQvSe0aXmAn3gAAAs7JjdAEAgP10m+rsavfoIjNwSXVEddHoIgBU9bbqe0aXmIELqttWV4wuAq4VpFkAACAASURBVABQdoAAAIvjCVn8uNqbsvgBMCeOwZrcqnrI6BIAAFezAAIALIonji4wI46/ApiX148uMCOPHV0AAAAAYJEc1HSsxlXSFU3HiwAwLx9u/HvEHPL+jQ4kAMBmsQMEAFgEJ1S3HF1iJt5enTu6BAD/il0gk++sjh5dAgCgLIAAAIvB8VfXcPwVwDy5B2Syo/re0SUAAAAAFsGO6guNP9JjDrmyusPGhhOALbKz+lLj3yvmkFdtcCwBADaFHSAAwNw9sDpmdImZeE/1+dElALheV1Z/ObrETDym2j26BACABRAAYO5OGl1gRl43ugAAN+rU0QVm4tDqwaNLAABYAAEA5u7JowvMiPs/AObtrdVlo0vMxONGFwAAsAACAMzZnat7ji4xEx+pPjq6BAA36qLqHaNLzMRjRxcAALAAAgDMmeOvruH4K4DF8NejC8zEfaojR5cAAFabBRAAYM6eNLrAjDj+CmAxWACZ7KgePboEALDaLIAAAHN1ePWw0SVm4ovVe0eXAGC/fKT67OgSM3HC6AIAwGqzAAIAzNUTqt2jS8zE66urRpcAYL+9cXSBmXjM6AIAwGqzAAIAzNUTRxeYkTeMLgDAmjgGa3JMdY/RJQCA1WUBBACYo4OqE0eXmIkLq7eNLgHAmpxWXTa6xEzYBQIADGMBBACYo0dXtxxdYib+KpNoAIvmourvRpeYCfeAAADDWAABAObI8VfXcPwVwGJyDNbkkdUBo0sAAAAAzMGO6vNNl36veq6oDtvYcAIwyD0b/z4ylzxsg2MJALAudoAAAHPzgOrY0SVm4m+r80aXAGBdPlx9dnSJmXAMFgAwhAUQAGBuHH91DcdfASy2N40uMBMuQgcAhrAAAgDMzZNGF5gRCyAAi+2NowvMxAOrW48uAQCsHgsgAMCcfGv1HaNLzMQHq0+PLgHAhpxWXT66xAzsbroMHQBgW1kAAQDm5OTRBWbk9aMLALBh36zeObrETDgGCwDYdhZAAIA5cf/HNRx/BbAc/np0gZlwEToAsO12jC4AALDP4dVXmo7JWHVfqo6trhpdBIANu1fTsYbUcdVnRpcAAFaHHSAAwFx8XxY/rvb6LH4ALIsPVZ8bXWImjh9dAABYLRZAAIC5OGl0gRk5dXQBADbVm0cXmAn3gAAAAAAr56DqgqZdD6ueb1YHb2w4AZiZpzX+/WUOOSdfxAQAtpF/8QAA5uD46pajS8zEX1eXji4BwKY6rbpydIkZuG1179ElAIDVYQEEAJiDJ44uMCNvGF0AgE33teoDo0vMhGOwAIBtYwEEABhtR+7/uNqe6q9GlwBgS7gHZHLC6AIAwOqwAAIAjHb/6pjRJWbijOrro0sAsCVOG11gJh5WHTi6BACwGiyAAACjPXl0gRl5/egCAGyZM6pLRpeYgUOqB40uAQCsBgsgAMBoJ48uMCPu/wBYXpc2LYJQx48uAACsBgsgAMBId6nuMbrETHyoOmt0CQC2lGOwJo8aXQAAWA0WQACAkZ4yusCMOP4KYPm9ZXSBmXhIdfPRJQCA5WcBBAAYyfFX13D8FcDy+6fqq6NLzMCB1UNHlwAAlp8FEABglKOrB44uMRNfqt47ugQAW+6q6q2jS8yEY7AAgC1nAQQAGOVJ1Y7RJWbiDU2TYgAsP/eATFyEDgBsOQsgAMAoTx5dYEYcfwWwOtwDMrl/dejoEgDAcrMAAgCMcOvqkaNLzMSF1emjSwCwbT5XfXx0iRnYVT18dAkAYLlZAAEARnhC0wWo1BurS0eXAGBb2QUycQ8IALClLIAAACM4/uoajr8CWD3uAZm4BwQA2FIuHgUAtttB1TnVLUcXmYG91ZHVuaOLALCtbtX0u/+A0UUGu6q6Xd4HAYAtYgcIALDdTszix9XekUkfgFV0QfXe0SVmYEfuBAMAtpAFEABguzn+6hqOvwJYXe4BmbgHBADYMhZAAIDttKvpAnQmFkAAVpd7QCaPHl0AAAAAYDM8oum8b6kzNziWACy2A6sLG/9+NIccs8GxBAC4XnaAAADb6eTRBWbkdaMLADDU5dXfjS4xE47BAgC2hAUQAGC77KqeNLrEjJw6ugAAw711dIGZOH50AQBgOe0eXQAAWFrHVg/alwdW96tuMbTRfHy5es/oEgAMZwFkcnJ1UfXuffl409FYAAAbsmN0AQBgKeyu7lt9d/XwpkWPo4c2mrcXV88ZXQKA4XZV51aHji4yM9+o3lW9s3pH06LIxUMbAQALyQIIALAeN6/u07Tg8bCmRY9bD220WL63evPoEgDMwuurJ44uMXN7qg803ZlyRvW26pyRhQCAxWABBADYH7esHtF0Sekjq+/MUZrrdX51u6bLbwHgudULR5dYQB+t3t60GHJ69ZWhbQCAWbIAAgBcn0Oqhzbt7vjupsWPA4c2Wh5/Uv3Q6BIAzMa9m3Y3sDFnVafty+lNR4sBACvOAggAUNNujgc2Hc306H3/+YChjZbXD1SvHl0CgNnY0bR74YjRRZbIldWHqr9pOnLyb6tLhjYCAIawAAIAq+vI6sTqCdUJ1WFj66yEy5omuL45uggAs/LKpgVytsae6h+qU5t2iLyvumpoIwAAAGBT3ax6fPXrTedmXyXbnr+8yacEwCr68ca/R61SvlT9QfX06vCbfjwAAADAHN2memb1quqCxk84rHqedeOPC4AVddfGv0etavZUZ1TPq+5xUw8KAFgsjsACgOVzp+qkpqOtHtl0vwfj7a2Oqs4ZXQSAWfp8dezoEnRW047NU6u3NS2QAAAAAIPsqh5WvaD658Z/k1KuP2+/oQcIANUfNv69Sq6bc5t20T6zutUNPzoAAABgMx3StMvjJdXZjZ8gkJvOT1/vkwSAyY80/r1KbjiXVG+pnpudOgCwMByBBQCL45jqydUTm462OnBoG9bqTtWnR5cAYLbuWH12dAn2y1XVPzYdk/W66oNj6wAAN8QCCADM2+FNd3mcUj0293ksqn+q7jO6BACz98nqzqNLsGafbjoq6+XVRwZ3AQAAgFk7rOms6VOryxt/5INsPL8QANy032n8e5ZsLB+unl/dNQAAAKCa7vQ4pWnR47LGf3iXzc29A4Cb9vTGv2fJ5uXqxZBvCwAYwhFYADDO1ReZP616XHXw2DpskU833f8BADflyOpL+ay+bK6q/r7pmKxXNz1jAAAAWDoHN11k/qfVhY3/ZqJsfX41ANh//9z49y7Zuuyt3lY9p7pdAAAAsOB2VA+vfr86v/EfvGV78/AAYP/9VuPfu2R7sqd6Y/WM6mYBAADAArlD9fPVJxr/AVvG5CvVrgBg/53S+Pcv2f6cV724enAAAAAwUwdXP1i9qemIg9EfpmVsXhIArM3tqisb/x4m4/LP1fOqowMAAIAZuGf1guqcxn9olvnk0QHA2n248e9hMj57q7dUz6wOCQAAALbR4dWzq/c3/gOyzC/nVLsDgLX7zca/j8m8cl7TztKHBQAAAFtkV3VC9arq8sZ/GJb5xvFXAKzXUxv/PibzzdVHZN0+AOBG7RhdAAAWxLdU/6760aazueGmnNh0bAUArNUR1VfymZ0bd0X1huq3q7c2LY4AANfiX6YA4IbtaLrD4dnVyTnOiP13bnVUtWd0EQAW1oeq7xhdgoXxier3qpdWXxvcBQBmY+foAgAwQ7duWvQ4s+kb/Kdk8YO1eW0WPwDYmNNHF2Ch3KV6QfWFpqNaHzq2DgAAAHNz36ZvzV3U+LOdZbHzvQHAxjyl8e9nsth5V/XM6uAAYEU5AguAVXdg9aSmHR8nDO7Ccvha0/FXV4wuAsBCu0311ZzcwMadX72yemH1kcFdAAAA2AbHVM9vmlgY/e08Wa68NADYHB9o/PuaLE/25nhXAACApfY91eubPgCO/hAqy5nHBgCb44WNf1+T5cxnqp9tuvsOAACABbazOql6Z+M/bMpy5+tNx6oBwGY4ufHvbbLcuaB6UfUtAQAAsFAOarr48aON/3Apq5HfCwA2z+HZtSrbk73VqdWDA4Al4jI1AJbREU33e3yxenl1t6FtWCWvHl0AgKXy9eqDo0uwEnZWT6j+vjqj6Z6QXUMbAQAAcB13btrCf1Hjv0Unq5fzcvwVAJvv1xr/HiermU9Uz60OCQAWlB0gACyD765eV328+ql8SGOM11WXjy4BwNI5fXQBVta3VS+sPl39l+q2Y+sAwNrtGF0AANZpR/Xk6v+oHjK4C9R0bMT/Gl0CgKVzy+rc7DJkvEuajpf9n9WnBncBAABYSjurp1YfaPyxACJXx/FXAGyltzb+vU7k6lzRtBBy1wBg5hyBBcCi2Nl0GeM/NV00fe+xdeA6XpvjrwDYOq8aXQCuZXf1zOqfqz+uvn1sHQAAgMW1szqpel/jv+0mckN5RACwdQ6rLm38+53I9WVvdWp1vwBgZuwAAWCudlY/WH2wekN1n7F14AZ9pHrH6BIALLXzqj8fXQJuwM6mu9DeU70m/94OAABwg67e8fH+xn+bTWR/8iMBwNa7d3Vl49/3RPYnb6keFAAAAFXtqp7RdJbw6A9sIvubz1UHBQDb468a/94nspb8dfXQAAAAVtjJTccIjf6AJrLW/HAAsH3uVe1p/PufyFrzxhyNBQAArJiHVGc0/gOZyHryntynBsD2+53GvweKrCd7qz+p7hQAbJMdowsAsJLuUv1K9dS8F7GY9jSda/2+0UUAWDm3rs6sjh1dBNbpiupl1S9UZw/uAsCS861FALbTEdVvVh+uTsniB4vrF7P4AcAY51c/3vSNelhEB1TPrj5RPb+65dA2ACy1XaMLALASDqn+U/Wq6uF5/2Gx/U317zLxBMA4n6huXn336CKwAQdWj2xaDNlR/WPTLlsAAICFsKv60eoLjT9zWGQz8unqNgHAeLuq0xr/3iiyWflU9YycVgIAACyAx1cfavwHKZHNyleruwUA83Hr6v2Nf48U2cy8vzoxANgEzl4HYLMdV/1G9X2ji8AmOq96TNPRDAAwJ7ev3p5FepbP66ufbtqBCwDrYlshAJvlgOq51Qez+MFyObs6PosfAMzTV6qHVu8aXQQ22ZOqj1Yvqm4xuAsAALDCTqw+3vjt8iKbnQ9WdwoA5u9W1amNf+8U2Yp8unpKAAAA2+iY6pWN/0AkshX5k+rmAcDi2Fn9QrW38e+jIluRN1d3DwAAYAvtbjru6vzGfwgS2eycVz07AFhcD2k6Omj0e6rIVuTypmOxbhUAAMAme1jTsUCjP/iIbHb2Vi+vjgoAFt8h1S9XF/f/s3fn4Z7edX3/n5nJThIgZA+BEBaBsO+7gMgqaFXcQbEt/tpeFquttHRRW1v1Z1t/YlFRrC1uCP6UQmRXRIjsyJYAQsKWjYSEQEL2mfSP+4wzTGY5Z+ac8/kuj8d1va/vmZNJ5pX7/s4597nf9/vzGf89VqmNqIurH6wOCQAA4CDdqfrdanvjf9hRaj1re3VO9ZAAYPGcUb2iurHx33OV2oj66+o+AQAAHKDvqC5t/A83Sq1nfbXphtD9AoDFd1r1C01PzY/+HqzUetcN1b+vDg8AdmFMEIB9uVP1a9X3jw4C6+TK6q3V66vXNi0LAgDLZGv1rdU/qJ5e3WVsHFhXH6/+UfXe0UEAmA0aIADszXdWv16dPDoIHKArm34IPq/6UPXB6mNNe30AAJN7Vg9tWgrygU1LCZ0xNBEcnG3V/6hekoddAJaeBggAuzuuaerj+aODwCp9pfpw9cmmhscnmpoel48MBQBz7LimRsj9qnuvvN6/On1kKFijT1c/XL17dBAAxtEAAWBXD6/+sLrH6CCwF5c2TXKcV52/8vH5TWs/AwAb6w5NzZCH7lLf1LSsFsyi7U3TID9d3Tg4CwADaIAAUNMPrf+m+pnq0MFZYIcvVe/bpT5QXTU0EQCwu9tVD64esUvdbWgiuK2PNE24f3R0EAA2lwYIAKc3TX08YXQQltqNTQ2O9zQ1O95bfX5oIgDgQJ3UzmbII6tHV8cOTQTT9eaLq5dmehhgaWiAACy3b65eVZ0yOghL55qmJse51btWXq8fmggA2Chbm/YSeWz1uOrx1ZkjA7HU3lo9r2naGIAFpwECsJwOqV5S/VzWbGZzXFH91Uq9s2kPj+0D8wAAY53V1Ax5YvWkNETYXBdVP1S9Y3QQADaWBgjA8jm+emX1rNFBWGhfqf66env1l9XHs9QAALB3d2tqhDyxenLTMq2wkbZV/7H6T7lOBVhYGiAAy+Xe1TnV3UcHYeHc1LSM1VualhX4cNMPlQAAB+Je1VOqpzY1ROwhwkZ5fdOSWF8dHQSA9acBArA8vqX6k+oOo4OwMC6s3rZSb8kPjQDAxthaPaipIfKUpimRQ0cGYuF8uvoHTcu0ArBANEAAlsMLq/9RHTY6CHPtxqY9PF5XvaH63MgwAMDSOqF6WvWcldfbj43Dgrimen712tFBAACA1Tmk+q9Na9oqdSD15aY9Y56bpScAgNlzeNNUyEurzzb+2knNd22vfjoAAGDmba1+p/E/RKj5qwurX226mWBqCACYJ2dVL6re1bQf2ejrKjWf9YosswawECyBBbCYDq/+oPru0UGYC9urv63OadoE8oNj4wAArIsTq2dU37byeszYOMyZNzdNQV8zOggAB04DBGDx3K760+qpo4Mw025s+qHutU2NjyvGxgEA2FBHV9/atG/Id1THj43DnHh/9axcKwPMLQ0QgMVyTPWm6rGjgzCTbq7eVv1xU+Pjq2PjAAAMcVhTM+R7q2/PJurs28erb6kuHx0EgLXTAAFYHIdXr6ueNjoIM2V79e7qNdWrqi+NjQMAMFOOaJqcfm7TZMixY+Mwoz5VPbm6ZHQQAABYRluanuofvVmgmp36QNMGoKcGAMBqHFk9u3pldW3jr+fUbNUnq9MDAAA21SHVbzb+BwI1vt5b/WR1RgAAHIxjqx9qmrC+sfHXeWo26lPVKQEAAJvm5xv/g4Aa+0PYv63OCgCAjXDH6gXV25uWFx19/afG1vur2wUAAGy472n8DwBq8+u66tXVU7KfFwDAZrpz9eLqM42/JlTj6s+rQwMAADbMvaqvNv7iX21efaB6YXVMAACM9tDq5dU1jb9OVJtfLw8AANgQt6vOa/xFv9r4+lz1c1niCgBgVh1b/Wj111kia9nqpwIAANbd/278xb7auLq+aYmrZ1dbAwBgXpzRtETWBY2/plQbX9uqJwYAAKybf9L4C321MfX+piWubh8AAPNsS9N+bX9Q3dD460y1cfW5XL8DAMC6OCX7fixa3dDODc0BAFg8d6heVF3Y+GtPtTH1+wEAAAftDxp/ca/Wpy6qfrY6MQAAlsGOqZBXV7c0/npUrW/9QAAAwAF7bDZVnPfaVr21em729gAAWGanNz0Mc3njr1HV+tTV1V0DAADWbGv14cZf1KsDqy9Xv1zdffcTCwDAUjuyel717sZfs6qDrz8PAABYs3/W+It5tfb6QNOm5kff9pQCAMA3uE/1q9U1jb+OVQdeT9j9xAIAAHt3p+rKxl/Iq9XVturPmpYsAwCAtbpj9eLq4sZf26q119tve0oBAIC9+anGX8Sr/dcN1SubntwDAICDdVjT3nHva/y1rlpbfcsezicAALAHH2n8Bbzae13dtFTBaXs7gQAAcJAeV72+2t7461+1/3pfdcgezyQAAPD3HtH4i3e157qwelF1u72ePQAAWF/3anr45vrGXw+rfde37eUcAgAAK36j8Rfu6hvrPdV3V1v3cd4AAGAjnVr9l+qqxl8fqz3Xh/Z69gAAgI6qvtL4C3c11Ruqx+/zjAEAwOY6pvrx6vONv15Wt6377/3UAQDAcvvBxl+wq/rzpqXIAABgVh1evbBpmdbR189qZ714XycNAACW2dsaf8G+zHVO9fD9niUAAJgdh1UvqD7d+OtpVX+1z7MFAABL6q7VtsZfsC9bba9eXz1s/6cIAABm1qHV86pPNP4ae5nr5uoO+zlXAACwdJ7b+Iv1Zart1euqh67m5AAAwJzYUn1f9fHGX3Mva33Pfs8SABtmy+gAAOzR3UcHWCJvqx5ZPaf64OAsAACwnrZXr2rajPs51QfGxllKzxgdAAAAZs3LG/+k0qLXO5oaHwAAsCwOaZo2/1Tjr8eXpS7LA8gAAPAN3tr4C/VFrfObnn4DAIBldWj1Y9Uljb8+X4Z6+OpOCwAALIcLGn+Rvmh1SfXCph/2AACAOrp6SXV146/XF7n+/WpPCAAALLpDq5sbf5G+KHVt9YvVsWs5CQAAsESOb7pmvr7x1++LWH+8+lMBAACL7azGX6AvQt1cvaw6eW2HHwAAltZdqv9VbWv89fwi1XvWcA4AWEdbRwcA4DYeWj1/dIgFsKU6orpjdV071zcGAAD27KvVB5quox8xOMsiOaT676NDAADALPixxj+htIj15erVTc2l26/6bAAAwOI7u3px9a5qe+Ov3Retrl79qQBgPdkIFmD23G10gAV1p+q5K3Vj9Y7qnOqt1ScH5gIAgM12x+pJ1TOrZ1WnjI2z8I4eHQBgWWmAAMyew0cHWAJHVE9dqaovVX9dva16Y/XFQbkAAGAjHFo9sHrKSn1zddjQRMvlxtEBAJaVBgjA7LlidIAldHI7p0OqLmxqhrytekvTWsgAADBPzmpnw+Np1XFj4yy1y0cHAFhWGiAAs0cDZLyzqheu1M1NG0G+c6XOrb4yLhoAANzGodWDq8dVT1h5PWFoInb15dEBAJaVBgjA7PF00Gw5rHr0Sv30yud2TIic27SXyOfHRAMAYEkdVj2gabrjcSt1h6GJ2JcvjQ4AsKw0QABmjwmQ2bfrhEjVBe2cDnlvdX61bUw0AAAW0CnVI6tHVY+vHp69A+eJn/EABtEAAZg9JkDmz91X6kdWfn1t07JZ72lqiLy3unRIMgAA5s1R1UOaGh47mh53GZqIg+VnPIBBNEAAZo+ng+bfMdUTV2qHLzQ1Qt5Tva/6UHXdZgcDAGCmbKnu2c5mxyOblrY6bGQo1p0GCMAgh4wOAMAeXVSdPjoEG2pb9ammRsiO+tvqayNDAQCwYQ6t7t003bGjHlQdOzIUm+IZ1ZtGhwBYRhogALPp96sfHB2CTXdr9Zl2NkM+uPJ65chQAACs2eHV/drZ6Hhw9cCm5a1YLjdXxzctkwvAJtMAAZhN/6j67dEhmBmfrz5SfXzl9WPVp6tbRoYCAKCaNii/f9PSVfdfqftlk3Im764eMzoEwLKyBwjAbPqr0QGYKXddqefs8rkbq/ObmiEfqz668mqzdQCAjXF0dd+mSY77NTU6HlidMDIUM++vRgcAWGYmQABm1xerO48Owdy5sp3TIudXn6zOq748MhQAwBw5ommvjns3NTzObpruuHvTpuWwFk+t3jo6BMCy0gABmF32AWE9fbmpIfKJXV4/UV00MhQAwEDHVPdZqfvu8nq3auvAXCyOm5r2//j66CAAy0oDBGB2/UD1B6NDsPC+1s4pkU807S3yqerCpmW2AADm3enVvap7tnOq495NS4zCRnp79eTRIQCWmQYIwOw6ovpCddLoICytS5saIxfuUuc3NUhswA4AzJI7VmftUmc3NTruVR07MBfL7furV40OAbDMNEAAZtsvVP96dAjYzU1NzZC/W6lPVxesfO6LaY4AABvjhKbmxt2re7RzquNeTQ0QmCWXNU0Z3TQ6CMAy0wABmG13abqpbA1i5sUtTZNLF+6hLqiuHhcNAJhxh1Vn9I2THDvqHtXtx0WDNfu56mdHhwBYdhogALPvddWzR4eAdXJlO5shF1afrT6/Ul+obhgXDQDYYIdUp1ZnNj3oc2Y7JzrOamp+ePCHRXBL0/v74sE5AJaeBgjA7Ht69cbRIWCTfKWpMXJpdUkmSABgnhxWndjU5Nh1euO0lc/du7rdsHSweV5dfe/oEABogADMgy3VR6r7jQ4CM+Ar7ZwY+XzTniMXr7xe1NQ0sc4yAGyMk6rTqzs3TXCcvvJ616an3U/NBAfcWj2mes/oIABogADMiydXfzE6BMyJr/SNEyS7f/z56tph6QBgNt2xnZMaZ+3h4zOqY4elg/nx+9XzRocAYKIBAjA/XlN99+gQsCAua2qKXNLOBsmO18uapkoub1q/GQDm2R2bGhk7Gho7Pj6laYLjtJXXI0YFhAVybdNSb/b+AJgRGiAA8+Ou1Seqo0YHgSWxvakJsqMhsvvrl5oaJpdXNw7KCMByOqRpOaoTm5oXp7SzqbGj0bHj9chBGWEZ/dvqv4wOAcBOGiAA8+Vnq58ZHQK4jRualt7aMUmy68e7fu7ibOQOwN7tWIZq16mNPX18RtOG48DsuLA6u+m6EIAZoQECMF+Oqj5Y3Wd0EOCAfb2pIXL5LnVF9eVd6opdPnfdmJgAHKRDqxOqO628ntg0tbHj1yc0TWycvPLPTszP6DCvtldPr946OggA38jFFcD8uV/13uro0UGATXFddWVTQ+TypqbIle1slFy+8uurdilPHgKsry3V8bvUrk2MHc2LHb++08qvjx+SFBjh56t/PzoEALelAQIwn360+p3RIYCZtWNJrrXWpdWtA/ICbKajmpaS2lG7Li+1tzqxaaIDYHfvqL6l2jY6CAC3pQECML/+V/XDo0MAC2ctzZPrd/v9X8oP/8DG272Bsa86crfff1K1dfMjAwvqS9VDmvZ8A2AGaYAAzK/bVe+u7j86CMCK7U2bvF9dfbW6ZqWuXfn1V1c+3vH5r1Zf2+33Xb3yOY0UWCzHVcdUx67UHXb5eMfn77jbr3d87pjq9it11GYHB9iLW6qnVm8fHQSAvdMAAZhvp1fnVncdHQRgnV3fNzZFbmjaD+VgP7bEF+zbMU1TE8et8uPbNTUl9vTxMSt1h039PwDYeLdWL6j+9+ggAOybBgjA/LtX9c6mJR0A2LdbmhorNzY1RXYs43VtdXPTVMq2PLJzaAAAIABJREFUpmbJ7r/3upWPr1n5Z19tmnrZ8fltTdMrtXOK5YaVPwPWamtTI6GmSYhDqyOqo5t+jtvRVDimOqxpOmLryucPXfl3Dm9nU+LI/fzeHf9tAPbvp6r/PjoEAPunAQKwGB7SNHp93P5+IwBDbG9qmNTOZstN1ddXPveVlddbm5ovO+xottQ3NlN2bbbUzmZM7Wzq7OnP3tXuv29P/60dbl7JvVYH0wDa0nSjfq0Oa7rRv7sdN/93tWsjYVc79o3Y2+/b0ZDY/ffunvm4du43saMJUVNT4vB2Nh9a+fe27Pb7AJg9v1C9ZHQIAFZHAwRgcTyhOqedN1IAAABYP79WvShLagLMjS2jAwCwbv66elJ1+eggAAAAC+aXqn+e5gfAXDEBArB4zqreUt19dBAAAIA5d2vTnh+/MjoIAGunAQKwmO5c/Xn1gNFBAAAA5tQN1QuqV40OAsCBsQQWwGK6qHpk9crRQQAAAObQxdUT0/wAmGtbRwcAYMPcUr22urR6er7mAwAArMY7q2+tPjU6CAAHxwQIwOL7reoZ1SWjgwAAAMyw7dV/rZ5cXTY4CwDrwNPAAMvhs9XvVMdXD8keUAAAALu6oPqu6rebGiEALAATIADL46vVjzVNg3xhcBYAAIBZsK16afXA6h2DswCwzkyAACyfC6r/Wd2uenimQQAAgOV0XvWcpmn5mwdnAWADuOkFsNwe33Sxf8/RQQAAADbJLdV/q36munFwFgA2kAkQgOX2hep3q6Oqh+b7AgAAsNjOrb6z+v2m5a8AWGD2AAHg2uonq3tUv5UfAgAAgMXzyep7mqbg/3ZwFgA2iSWwANjdfaufrZ47OAcAAMDBuqj6T037IN4yOAsAm0wDBIC9eUz1i01PSAEAAMyTq6r/t3ppdf3gLAAMogECwL4c0rQ+7s9VZw/OAgAAsD/XVC+rfqm6enAWAAbTAAFgtR5Xvbh6Vr5/AAAAs+Wy6uVNEx9XDc4CwIxwAwuAtXpg9U+r51dHDs4CAAAst49Uv169srphcBYAZowGCAAH6pTq/6l+vDp+cBYAAGC5nNu0zNU51a2DswAwozRAADhYx1Y/Wr2wuu/gLAAAwOL6avWq6teq8wZnAWAOaIAAsJ4e2tQI+f6mxggAAMDB+mD1W9UfVtcOzgLAHNEAAWAjHFk9u6kZ8i35fgMAAKzNZdWrq9+uPj44CwBzyg0pADbavat/WD2vOnlwFgAAYHbdUr2h+p2V11vGxgFg3mmAALBZtlaPrp5bfV910tg4AADADNhevbt6TdP+Hl8aGweARaIBAsAIuzZDvr86cWwcAABgE+3a9PjjpuWuAGDdaYAAMNquzZAfqE4YGwcAANgAuzY9XlNdMjYOAMtAAwSAWXJE06bp37ZSZ4yNAwAAHITrq7+ozqlen6YHAJtMAwSAWXZ2UyPkKdUTq0OHpgEAAPbn8urNTQ2PN1XXjI0DwDLTAAFgXpxQPal6dvWc6vZj4wAAACvOb2p4nFOdW906Ng4ATDRAAJhHR1RPaJoMeUr1oGrL0EQAALA8LqvetlJvqS4dGwcA9kwDBIBFsGM65CnVt1Z3GxsHAAAWynXV37Sz6fGhTHkAMAc0QABYRGe1czrkydWdxsYBAIC5sq36cDsbHu+sbhyaCAAOgAYIAItuS9MSWY9vWjbrcdVJQxMBAMBsual6f1Oj453Vu6qvDU0EAOtAAwSAZXRWUyPksSuv9x0bBwAANtXXmyY83tU04XFudf3QRACwATRAAKDOaOd0yOObGiK+RwIAsCiuaGpy/HVT0+Nvq1uGJgKATeDmDgDc1rHVA6uHNk2JfHOWzQIAYD7cUv1dU6Pj3OqD1fnZtByAJaQBAgCrc1o7GyKPqx5SHTU0EQAA1KVNTY5dGx6WswKANEAA4EAd3rS5+iOrhzc1RO5dbR0ZCgCAhXZZ9aGmJsd7V+rLQxMBwAzTAAGA9XNYda+mSZFd68iRoQAAmEs7Jjt21HnVhUMTAcCc0QABgI21p6bIg6ujR4YCAGCm7N7seF/1paGJAGABaIAAwOY7tLpPdb/qAdX9V+ouI0MBALDhrqk+Xn2s+ugur1ePDAUAi0oDBABmx3HVPauzmyZF7tu0z8gJI0MBALBmt1RfqM5v5/JV51efqLYPzAUAS0UDBABm35ntnBI5u2mz9ftURw3MBADA1Mz4XFNj4/ym6Y6PNzU8bhwXCwAoDRAAmGenNU2JnL3yelbTklonjQwFALCAdp3o2LEZ+fnVh6trB+YCAPZBAwQAFs/pTRMi92lqjOyYGDl5ZCgAgDlwXfXp6pPtXLLq/JXP3TQwFwBwADRAAGB5HFHdo53TIjvqodUdB+YCANhMN1dfbJri2DHJsWOq43PZowMAFoYGCABwu+rKpgYJAMCiuKxpP44L+8Zmx6ealrQCABacBggAUPXm6qmjQwAArJO3VE8bHQIAGGvL6AAAwEx44+gAAADr6JzRAQCA8TRAAIDSAAEAFotrGwBAAwQAqKa1sP9udAgAgHVwfvWZ0SEAgPE0QACAHV43OgAAwDp4/egAAMBs0AABAHZwswAAWASuaQCAqg4ZHQAAmBlbq8uqE0YHAQA4QFdUp1bbRgcBAMYzAQIA7LCtesPoEAAAB+GcND8AgBUaIADAriwZAQDMM9cyAMDfswQWALCrY6ovV0eMDgIAsEY3VidW14wOAgDMBhMgAMCurq3+anQIAIAD8BdpfgAAu9AAAQB2Z+kIAGAeuYYBAL6BJbAAgN2dXn0x1wkAwPy4tbpLddHoIADA7DABAgDs7uLqw6NDAACswYfS/AAAdqMBAgDsyetGBwAAWAPLXwEAt6EBAgDsyWtHBwAAWIM/Gx0AAJg91vYGAPbmM9XdR4cAANiPT1f3Gh0CAJg9JkAAgL35/0cHAABYBdcsAMAeaYAAAHvjZgIAMA9cswAAe2QJLABgbw6pPlfdZXAOAIC9+WJ11+rW0UEAgNljAgQA2Jtbs6EoADDbXpPmBwCwFxogAMC+WFICAJhlrlUAgL2yBBYAsC9bqouqU0cHAQDYzWXV6dX20UEAgNlkAgQA2Jft1WtHhwAA2IM/SfMDANgHDRAAYH8sLQEAzCLXKADAPlkCCwDYn63VpdWJo4MAAKz4ctMSnbeMDgIAzC4TIADA/myrXj86BADALv40zQ8AYD80QACA1bDEBAAwS1ybAAD7ZQksAGA1Dqu+VN1xdBAAYOldXZ1c3TQ6CAAw20yAAACrcXN1zugQAADVa9P8AABWQQMEAFitV40OAABQ/dHoAADAfLAEFgCwWodWF1cnjQ4CACyty6vTswE6ALAKJkAAgNW6pfqT0SEAgKX2qjQ/AIBVMgECAKzF46p3jg6xwH6ien111h7q7OrIcdEA2MUt1ReqC/dQT6p+eVy0hffo6j2jQwAA8+HQ0QEAgLlybtMNn7uMDrKgtrbzBtruDqvOrO5R3Xulvqm6b3XiJuUDWDZXVOdXn6o+WX2i+kz1+ermvfw7T9yUZMvps9V7R4cAAOaHBggAsBa3Nm08+uLRQRbUviY8bq4+vVJv3O2fHV/dp52Nkfus1N0y8QuwP9urzzU1Oj7ZzkbHJ6urDuC/d9S6JWN3f9R0LQIAsCoaIADAWmmAbJyjD/Dfu6ppOufc3T5/TNOEyP2r+63U/auTDzQgwJy7rPp49bHqvOqjTY2Pr6/jn3GgX8vZvz8aHQAAmC8aIADAWn2k6abR2aODLKA7rfN/79rqfSu1qxOqBzSdwwdUD25qjhyxzn8+wCg3NDU6/rapybGj2XHlJvzZ6/21nMlHm84pAMCqaYAAAAfij6qfHx1iAZ20SX/Ol6u/XKkdDm3nniJnVw+tHpn9RYDZ97WmiY4PNjU6zq/eX904KI8pu43xh6MDAADzx5rQAMCBOKtpE1jXEuvrXdXjR4fYzVlNEyIPrh6+UnccmghYZlc1NTc+UH2oacLjs0MT3da51WNGh1gwtzbta/X50UEAgPnipgUAcKDeXT1qdIgF83dNUxiz7rSmCZEd9dg0RYD19/Xqw02THTvq/GZ/E+zPVHcfHWLBzOIDAgDAHLAEFgBwoP4oDZD1duroAKt0yUq9fuXXW5uWznp49YimJ5/PrrYMSQfMo+1Ny1ed27Rv0furT1TbRoY6QKeMDrCAXjU6AAAwn0yAAAAH6qTq4jxQsd5ObNqjY94dUz2oaTrkcU1NkeOHJgJmybXVR5qe7D93pa4ammh9nFxdNjrEgrmlOr26fHQQAGD+aIAAAAfjzdVTR4dYMI+q3js6xAbY2jQV8tjq0U1LmZw5MhCwqT7b1Oz4m5U6r/mc7tifRzf9/7F+3lg9c3QIAGA+eWITADgYf5QGyHq7W4vZANlWfXSlfmPlc6c2TYc8ZeX1vmOiARvg0qaGx9uqtzZ7G5VvFHt/rL8/HB0AAJhfGiAAwMH406ab2UeODrJAzhodYBNdWr1mparOqJ5YffNK3WNMLOAAfLp6x0r9VXXR0DTj3G10gAVzXfV/RocAAOaXBggAcDC+Vv1Z9f2jgyyQZX56+IvV761U1Z2rb22aMnpKdcKgXMBtXdE03fGWpgmPi8fGmRnL1MTeDH9aXTM6BAAwv+wBAgAcrG9tugHG+nhP0xry3NbZ1bc1NUMeXx0xNg4slVuaNi1/W3VO0z4X24cmmk3vrx42OsQCeXL19tEhAID5pQECABysLdWF1V1HB1kQX6+Oy43F/Tmmabmsp1XPyrIzsBE+29TseHPTslZfH5pm9m1tmow8enSQBfHZpqnIW0cHAQAAAJbbzzXdoFDrU/dc2+GnadmZFzVturyt8edQqXmsbdUHqp+tHpoH5tbq3o0/h4tU/2Fthx8A4LZc0AIA6+HM6oKmaRAO3nOrPxkdYo6dUD2zabmsp1fHjo0DM+366tymSY/XVJeMjTPXvrd61egQC2J7U2P786ODAADzzU0KAGA9fK56x+gQC+SBowPMuS9Xr6y+pzql+s7q1dV1I0PBDLmu+uPqH1R3atrL6VfT/DhY9x8dYIH8RZofAMA60AABANbL744OsEA0QNbPddWfNT2ZfUL1nKan3G8aGQoGuLFpyuOHmxqD31e9tmkChPXxoNEBFohrCgBgXVgCCwBYL0c3PT18+9FBFsCl1WmjQyy4OzY9/f591ZObNi+GRbOt6Un6VzU1Aq8eG2fhXdrUXOLgfKXpe+ANo4MAAAAA7Orljd80dVHq7ms89hy406oXV59t/HlXaj3q4uoXm/ZnYnPcq/HnfVHqZWs89gAAAACb4lGNv3GyKPUjazv0rIMt1VOa9gu5qfHvAaXWUrdUb62eWx0am+1HG/8eWJR62BqPPQAAAMCmOa/xN08WoV6x1gPPujqt+nfVRY1/Lyi1r/pi9ZLq1Bjpdxv/XliE+shaDzwAAADAZvpXjb+Bsgj1ybUeeDbE4dXzq080/j2h1K51QfWi6siYBZ9p/HtiEeon1nrgAQAAADbTyVk+aD1qe3XSGo89G2dL9ezqfY1/b6jlro80NeW2xqw4pfHvi0WoG6sT13jsAQD2acvoAADAwvlS9YbRIRbAIdXjRofg722vXl89snpm9f6xcVhC76ueUT2wemW1bWwcdvGE0QEWxDnVFaNDAACLRQMEANgI/2t0gAXxjNEBuI1bqzc2NUK+p7pwbByWwBerH6seXb1pcBb27JmjAyyI/zk6AAAAAMBqHFpd2vjlNOa9LmmaBGF2HVn9bNPSLaPfL2qx6qbqF7PHx6zbUl3W+PfLvNelTdcOAADrygQIALARbql+f3SIBXBq9bDRIdinG5oaIA+r/nZsFBbIB6sHV/+66T3G7Hpk095XHJz/3XTtAACwrjRAAICN8jtNT3VycJ49OgCr8rGmJYpemvc9B+7W6leqx1TnDc7C6nzb6AAL4NbqFaNDAAAAAKzV2xu/rMa8l6mC+fPDTcsXjX7vqPmqm6t/HPPmY41/78x7vWXNRx0AAABgBnxP42+szHttr85Y64FnuGdkXxC1+rqxelrMmzMb/95ZhPrONR53AIBVswQWALCR/qxpc1gO3CFZBmsevbF6QdPNPdiX7dXzqzePDsKa+dp88C6uXjc6BACwuDRAAICNdHPTXiAcnB8cHYAD8ofVy0eHYOb9RvXHo0NwQJ43OsACeEU2PwcANtAhowMAAAvvrtUF1dbRQebcfapPjg7Bmh1XfbY6fnQQZtKV1d2qa0YHYc3Orj4+OsScu6Xp/X/R6CAAwOIyAQIAbLTPV28YHWIB/MjoAByQr1W/NzoEM+uVaX7Mqx8ZHWABvD7NDwBgg2mAAACb4TdHB1gAz8sUzbx65+gAzCzvjfl0aJYmXA+/MToAALD4NEAAgM3wpupzo0PMudOqp44OwQG5bHQAZtaXRgfggDyjOnV0iDl3QfW20SEAgMWnAQIAbIbtedJzPfzI6AAckJNHB2BmnTQ6AAfkBaMDLICXVbeODgEALD4NEABgs7yium50iDn37dWdRodgzU4bHYCZ5b0xf06snjU6xJy7tvrd0SEAgOWgAQIAbJarqt8fHWLOHVH92OgQrNljRgdgZj16dADW7J9Wh48OMedeWV09OgQAsBwOGR0AAFgqZ1cfyzXIwfhSdWZ1w+AcrM7WpnNmcoc9uappGaxto4OwKkc07Wd1yuAc8+zWpmuBT4wOAgAsBxMgAMBmOq/6y9Eh5tzJ1feODsGqPTHND/bu+OoJo0Owaj+U5sfBeluaHwDAJtIAAQA226+NDrAA/lWu4+bFT44OwMzzHpkPW6t/OTrEAnjp6AAAAAAAG2lLdUHTMhjqwOt71nrg2XQPqLY3/r2iZru2V/eLWfeDjX+vzHt9Js17AGCTufgAADbb9uplo0MsgJ/Jtdys+8/Z74b9O6T6+dEh2Ket1b8bHWIBvKzpGgAAAABgod2huqbxT6POe/3AWg88m+Y7G//+UPNV3x6z6oca//6Y97qmuv1aDzwAAADAvHpp42/IzHt9tjpyrQeeDXds9cXGvz/UfNXnq2Ni1hzVdG5Gvz/mvX51rQceAGA9WDYBABjlV6pbRoeYc2dW/2J0CG7jFdWdR4dg7tyl6b3DbPmXTeeGA7ctm58DAAAAS+jVjX8qdd7ra9XJaz3wbJifaPx7Qs13/XjMitOyXON61KvWeuABAAAAFsEjGn9jZhHqD9Z64NkQT6xuavz7Qc133Vg9PmbBHzf+/bAI9bC1HngAAACARfGOxt+cWYR69loPPOvqAdVVjX8fqMWoq6sHx0jPbPz7YBHqL9d64AEAAAAWyXMaf4NmEerzTZtvs/nuUV3a+PeAWqy6vPqmGOG46guNfw8sQj1zjcceAAAAYKFsqT7Z+Js0i1C/tcZjz8G7Z1PzafS5V4tZn63uHpvtfzb+3C9CnVcdssZjDwAAALBwXtj4GzWLUt+3xmPPgXtI9aXGn3O12HVZlsPaTM9t/DlflHrBGo89AAAAwEI6IksIrVd9pTpzTUefA/HNTfs0jD7fajnqmuopsdHOyt/r9arLqiPXdvgBANbfltEBAACqG6uXjg6xIO5QvSo3njbSC6s3V7cfHYSlcUx1TvUPRwdZYEdVf5y/1+vlv1c3jA4BAAAAMCuOa5peGP3U6qLUq7P2+no7onp548+tWu56eXV4rKdDqj9s/LldlLqyOnZNZwAAYINsHR0AAGDFjU1POT9hdJAFcXZ1U/XO0UEWxF2ansD/jtFBWHoPrb6lelv11cFZFsV/qH58dIgF8kvVW0aHAAAAAJg1J1TXNv7p1UWpbdXz1nQG2JMfyb4Aavbq6ur5cbB+pNre+PO5KPW16vi1nAAAAACAZfLfGn8DZ5Hqlur71nQG2OGk6k8bfw6V2lf9eXVqHIjvqm5u/DlcpPrFNZ0BAAAAgCVzanV942/iLFLdVH3bWk7CkttS/ePqisafO6VWU5c3bZC+JVbr25u+No4+d4tU11Unr+UkAAAAACyjX2/8jZxFq5ubbpCybw+p/qbx50upA6kPVI+K/Xl+mh8bUS9dy0kAAAAAWFZn5ubURtT26qdXfxqWyhnVK5r2TRl9npQ6mNpW/VZ159iTl2TPj42oG6u7rOE8AAAAACy13238DZ1Frd+ojlj9qVhopzY9tXxD48+LUutZ11e/Wp0SNX3N+63Gn5dFrVes/lQAAAAAcI9sTruR9f7qbqs+G4vnztV/a1qzfvS5UGoj6+vVL1ent7zuXn2w8ediUeum6qxVnw0AAAAAqumJ0tE3dha5vlJ996rPxmJ4VPVHWWJNLV/dVP1h9YiWy/dWVzf++C9yvXzVZwMAAACAv3dm07rio2/uLHq9tmkPjEV1TPW86j2NP9ZKzUK9u+nvxO1aXHepXtf4Y73odUP2/gAAAAA4YL/e+Bs8y1Bfq/5FdfjqTsvM21o9vfr96trGH1+lZrGurX6velrT35lFcHj1k9U1jT++y1C/trrTAgAwxiGjAwAA7Mfp1WeqI0cHWRKfr36haRP6mwZnWavbVd9SPbP69mz+DGtxafV/qjdUf9m0d8g8Obz60erfZCJhs1zftL/KpaODAAAAAMyzX2n8U67LVp+r/nl1/P5PzzBbqwdWL6re3LQUy+jjptQi1PXVm5q+Bjyg2Z4OuVP1E03N29HHbdnqv67i/AAADGUCBACYBydXF7TY69XPqhub9gj5naanwrcNyrGl6anuBzVtZP6o6qFN+3sAG+va6gNN++i8p/pI9YVq+6A8W6unNE18fHt1xKAcy+za6qzqitFBAAD2RQMEAJgXv1T99OgQS+6q6m3VW5omLi7agD/jyOrspqfOv6m6Z3WvlVc3OWF23Fh9uvq7lddPVR+tzmuaxlpvZ1RPbdqv5CnVHTfgz2D1fqF6yegQAAD7owECAMyLE5qmQI4bHYS/94Xq49XHmm58XtD0NPAVTRsQ783tm/Z2OWXl9YymhscDmhodh25cZGCD3dLUFPnoSn2xuqRpn4hLqq/u4989tjpxpe5R3b/p68L9mr5OMBu+2jT9cdXoIAAA+6MBAgDMk39b/fzoEKzKjdWVTUtm7bpM1RHV0UMSAbPguqavDztc27Sk1QlNG5kz+/5N9YujQwAArIYGCAAwT45qWmbFk8AAsPkublqW8LrRQQAAVmPr6AAAAGtwS3V106a3AMDm+vHqA6NDAACslgkQAGDebGm6+fLg0UEAYIl8pHpItX10EACA1doyOgAAwBptr14yOgQALJl/leYHADBnTIDAYjmmOqu628rrWdWZ1Z2aNp29Qzs3nz0uy+ABAAAAi29b9bWmPYxurL5S3VRdWX2uurD67C6v1wxJCaw7DRCYX0dXD6seUz26ekR1ytBEAAAAAPPv0uq91d9U764+WF0/NBFwQDRAYH5srR7ftPHv46oHVYcOTQQAAACw+G6uPtTUEPk/1buapkqAGacBArNtS9OEx3NX6tSxcQAAAACW3pXVG6rXVG9qapAAM0gDBGbT/at/Wn1XdeLgLAAAAADs2RXVn1Qvq84bnAXYjQYIzJbHVS+unpW/nwAAAADz5Nzql6pzqlsHZwFygxVmwVHV86sXVfcZnAUAAACAg3N+9f9Vv1fdMDgLLDUNEBjnkOq7q1+u7jo4CwAAAADr6+LqP1avqLYPzgJLSQMExnh49SvVY0cHAQAAAGBDfaD6iaYlsoBNtGV0AFgyp1evrN6b5gcAAADAMnhY9c7q1VkFBDbV1tEBYIn8k+r1Td/0TF8BAAAALI9DqrOrf1x9ufrg2DiwHNyEhY13h+o3q+8dHQQAAACAmfDa6h9VV44OAotMAwQ21pOq32ta+goAAAAAdrio+qHqHaODwKKyBBZsjEOr/1y9vLr94CwAAAAAzJ7jqudVhzXtEbJ9bBxYPCZAYP0d3bSp1bNGBwEAAABgLry1+q7qmtFBYJFogMD6Or56XfXY0UEAAAAAmCvvb3qg9orRQWBRaIDA+rlr9abq3qODAAAAADCXLqieXn1mdBBYBFtGB4AFcXb1rjQ/AAAAADhwd2/aD+TBo4PAIjABAgfvQdXbqzuMDgIAAADAQri6+ubqo6ODwDzTAIGDc7fq3OrU0UEAAAAAWCiXNO0z+7nBOWBuWQILDtwJ1RvT/AAAAABg/Z1WvbU6aXQQmFcaIHBgjq5eV33T6CAAAAAALKx7VK+vbjc6CMwjDRBYu8OqP6kePToIAAAAAAvvEdWrqkNHB4F5s3V0AJhDP1+9YHQIAAAAAJbGvVZe/2pkCJg3NkGHtXlC9ZdpHgIAAACwubZXT6nePjoIzAsNEFi9O1Yfru4yOggAAAAAS+mi6oHVVaODwDywBwis3u+m+QEAAADAOHeufnt0CJgXlvGB1fkn1U+NDgEAAADA0rtPdXH1odFBYNZZAgv274zqk9XRo4MAAAAAQHVtde+mRgiwFyZAYP9+s3rI6BAAAAAAsOLw6oTqtaODwCwzAQL79ujq3PxdAQAAAGC23Fo9qnrf6CAwq9zUhb07pHpP9YjRQQAAAABgD95TPaapGQLsZsvoADDDnp/mBwAAAACz61HV948OAbPKBAjs2VHVp6vTRwcBAAAAgH34YnXP6sbRQWDWmACBPXtemh8AAAAAzL4zqh8cHQJmkQkQuK1Dqo9X9x0dBAAAAABW4ePVA7IXCHwDEyBwW09P8wMAAACA+XG/6ltHh4BZowECt/UvRgcAAAAAgDVyTwt2Ywks+Eb3qz6avxsAAAAAzJ8HNt3bAjIBArv7Z2l+AAAAADCffmx0AJglbvTCTlurS6sTRwcBAAAAgANwRXVadcvoIDALTIDATk9K8wMAAACA+XVi9bjRIWBWaIDATt89OgAAAAAAHKTvGh0AZoUlsGCytbqkOml0EAAAAAA4CJdVp1fbRweB0UyAwOSb0/wAAAAAYP6dUj1mdAiYBRogMHn26AAAAAAAsE43RADjAAAgAElEQVS+Y3QAmAUaIDB57OgAAAAAALBO3OuC7AECVUdVV1eHjw4CAAAAAOvg5ur21fWjg8BIJkCgHp7mBwAAAACL47DqoaNDwGgaIFCPHh0AAAAAANaZe14sPQ0Q8M0AAAAAgMXjnhdLzx4gUJdWp4wOAQAAAADr6JLq9NEhYCQNEJbdsdXXRocAAAAAgA1wbHXt6BAwiiWwWHZnjQ4AAAAAABvkzNEBYCQNEJadBggAAAAAi8q9L5aaBgjLzjcBAAAAABbV3UYHgJE0QFh2vgkAAAAAsKjc+2KpaYCw7M4cHQAAAAAANojVT1hqGiAsu+NHBwAAAACADXL70QFgJA0Qlt3RowMAAAAAwAY5ZnQAGEkDhGV3u9EBAAAAAGCDuPfFUtMAYdmZAAEAAABgUWmAsNQ0QFh2GiAAAAAALCoNEJaaBgjLzjcBAAAAABaVe18stUNGB4DBbh0dYDBfAwAAAIBF5/4PLCkTIAAAAAAAwMLRAAEAAAAAABaOBggAAAAAALBwNEAAAAAAAICFowECAAAAAAAsHA0QAAAAAABg4WiAAAAAAAAAC0cDBAAAAAAAWDgaIAAAAAAAwMLRAAEAAAAAABaOBggAAAAAALBwNEAAAAAAAICFowECAAAAAAAsHA0QAAAAAABg4WiAAAAAAAAAC0cDBAAAAAAAWDgaIAAA8H/Zu5sXzfKrDuCne3oyk3F6et6qKyRqEFGMKEhwXLhxG/+ASFYuRHEtiP+A2/wLblwJgu6CK3euBBECCQhuAgZqaron85KZxHlpF9WhcYaeel7uveep8/184O6G6fMUh3Orzvf33AsAAMA4AhAAAAAAAGAcAQgAAAAAADCOAAQAAAAAABhHAAIAAAAAAIwjAAEAAAAAAMYRgAAAAAAAAOMIQAAAAAAAgHEEIAAAAAAAwDgCEAAAAAAAYBwBCAAAAAAAMI4ABAAAAAAAGEcAAgAAAAAAjCMAAQAAAAAAxhGAAAAAAAAA4whAAAAAAACAcQQgAAAAAADAOAIQAAAAAABgHAEIAAAAAAAwjgAEAAAAAAAYRwACAAAAAACMIwABAAAAAADGEYAAAAAAAADjCEAAAAAAAIBxBCAAAAAAAMA4AhAAAAAAAGAcAQgAAAAAADCOAAQAAAAAABhHAAIAAAAAAIwjAAEAAAAAAMYRgAAAAAAAAOMIQAAAAAAAgHEEIAAAAAAAwDgCEAAAAAAAYBwBCAAAAAAAMI4ABAAAAAAAGEcAAgAAAAAAjCMAAQAAAAAAxhGAAAAAAAAA4whAAAAAAACAcQQgAAAAAADAOAIQAAAAAABgHAEIAAAAAAAwjgAEAAAAAAAYRwACAAAAAACMIwABAAAAAADGEYAAAAAAAADjCEAAAAAAAIBxBCAAAAAAAMA4AhAAAAAAAGAcAQgAAAAAADCOAAQAAAAAABhHAAIAAAAAAIwjAAEAAAAAAMYRgAAAAAAAAOMIQAAAAAAAgHEEIAAAAAAAwDgCEAAAAAAAYBwBCAAAAAAAMI4ABAAAAAAAGEcAAgAAAAAAjCMAAQAAAAAAxhGAAAAAAAAA4whAAAAAAACAcQQgAAAAAADAOAIQAAAAAABgHAEIAAAAAAAwjgAEAAAAAAAYRwACAAAAAACMIwABAAAAAADGEYAAAAAAAADjCEAAAAAAAIBxBCAAAAAAAMA4AhAAAAAAAGAcAQgAAAAAADCOAAQAAAAAABhHAAIAAAAAAIwjAAEAAAAAAMYRgAAAAAAAAOMIQAAAAAAAgHEEIAAAAAAAwDgCEAAAAAAAYBwBCAAAAAAAMI4ABAAAAAAAGEcAAgAAAAAAjCMAAQAAAAAAxhGAAAAAAAAA4whAAAAAAACAcQQgAAAAAADAOAIQAAAAAABgHAEIAAAAAAAwjgAEAAAAAAAYRwACAAAAAACMIwABAAAAAADGEYAAAAAAAADjCEAAAAAAAIBxBCAAAAAAAMA4AhAAAAAAAGAcAQgAAAAAADCOAAQAAAAAABhHAAIAAAAAAIwjAAEAAAAAAMYRgAAAAAAAAOMIQAAAAAAAgHEEIAAAAAAAwDgCEAAAAAAAYBwBCAAAAAAAMI4ABAAAAAAAGEcAAgAAAAAAjCMAAQAAAAAAxhGAAAAAAAAA4whAAAAAAACAcQQgAAAAAADAOAIQAAAAAABgHAEIAAAAAAAwjgAEAAAAAAAYRwACAAAAAACMIwABAAAAAADGEYAAAAAAAADjCEAAAAAAAIBxBCAAAAAAAMA4AhAAAAAAAGAcAQgAAAAAADCOAAQAAAAAABhHAAIAAAAAAIwjAAEAAAAAAMYRgAAAAAAAAOMIQAAAAAAAgHEEIAAAAAAAwDgCEAAAAAAAYBwBCAAAAAAAMI4ABAAAAAAAGEcAAgAAAAAAjCMAAQAAAAAAxhGAAAAAAAAA4whAAAAAAACAcQQgAAAAAADAOAIQAAAAAABgHAEIAAAAAAAwjgAEAAAAAAAYRwACAAAAAACMIwABAAAAAADGEYAAAAAAAADjCEAAAAAAAIBxBCAAAAAAAMA4AhAAAAAAAGAcAQgAAAAAADCOAAQAAAAAABhHAAIAAAAAAIwjAAEAAAAAAMYRgAAAAAAAAOMIQAAAAAAAgHEEIAAAAAAAwDgCEAAAAAAAYBwBCAAAAAAAMI4ABAAAAAAAGEcAAgAAAAAAjCMAAQAAAAAAxhGAAAAAAAAA4whAAAAAAACAcQQgAAAAAADAOAIQAAAAAABgHAEIAAAAAAAwjgAEAAAAAAAYRwACAAAAAACMIwABAAAAAADGEYAAAAAAAADjCEAAAAAAAIBxBCAAAAAAAMA4AhAAAAAAAGAcAQgAAAAAADCOAAQAAAAAABhHAAIAAAAAAIwjAAEAAAAAAMYRgAAAAAAAAOMIQAAAAAAAgHEEIAAAAAAAwDgCEAAAAAAAYBwBCAAAAAAAMI4ABAAAAAAAGEcAAgAAAAAAjCMAAQAAAAAAxhGAAAAAAAAA4whAAAAAAACAcQQgAAAAAADAOAIQAAAAAABgHAEIAAAAAAAwjgAEAAAAAAAYRwACAAAAAACMIwABAAAAAADGEYAAAAAAAADjCEAAAAAAAIBxBCAAAAAAAMA4AhAAAAAAAGAcAQgAAAAAADCOAAQAAAAAABhHAAIAAAAAAIwjAAEAAAAAAMYRgAAAAAAAAOMIQAAAAAAAgHEEIAAAAAAAwDgCEAAAAAAAYBwBCAAAAAAAMI4ABAAAAAAAGEcAAgAAAAAAjCMAAQAAAAAAxhGAAAAAAAAA4whAAAAAAACAcQQgAAAAAADAOAIQAAAAAABgHAEIAAAAAAAwjgAEAAAAAAAYRwACAAAAAACMIwABAAAAAADGEYAAAAAAAADjCEAAAAAAAIBxBCAAAAAAAMA4AhAAAAAAAGAcAQgAAAAAADCOAAQAAAAAABhHAAIAAAAAAIwjAAEAAAAAAMYRgAAAAAAAAOMIQAAAAAAAgHEEIAAAAAAAwDgCEAAAAAAAYBwBCAAAAAAAMI4ABAAAAAAAGEcAAgAAAAAAjCMAAQAAAAAAxhGAAAAAAAAA4whAAAAAAACAcQQgAAAAAADAOAIQAAAAAABgHAEIAAAAAAAwjgAEAAAAAAAYRwACAAAAAACMIwABAAAAAADGEYAAAAAAAADjCEAAAAAAAIBxBCAAAAAAAMA4AhAAAAAAAGAcAQgAAAAAADCOAAQAAAAAABhHAAIAAAAAAIwjAAEAAAAAAMYRgAAAAAAAAOMIQAAAAAAAgHEEIAAAAAAAwDgCEAAAAAAAYBwBCAAAAAAAMI4ABAAAAAAAGEcAAgAAAAAAjCMAAQAAAAAAxhGAAAAAAAAA4whAAAAAAACAcQQgAAAAAADAOAIQAAAAAABgHAEIAAAAAAAwjgAEAAAAAAAYRwACAAAAAACMIwABAAAAAADGEYAAAAAAAADjCEAAAAAAAIBxBCAAAAAAAMA4AhAAAAAAAGAcAQgAAAAAADCOAAQAAAAAABhHAAIAAAAAAIwjAAEAAAAAAMYRgAAAAAAAAOMIQAAAAAAAgHEEIAAAAAAAwDgCEAAAAAAAYBwBCAAAAAAAMI4ABAAAAAAAGEcAAgAAAAAAjCMAAQAAAAAAxhGAAAAAAAAA4whAAAAAAACAcQQgAAAAAADAOAIQAAAAAABgHAEIAAAAAAAwjgAEAAAAAAAYRwACAAAAAACMIwABAAAAAADGEYAAAAAAAADjCEAAAAAAAIBxBCAAAAAAAMA4AhAAAAAAAGAcAQgAAAAAADCOAAQAAAAAABhHAAIAAAAAAIwjAAEAAAAAAMYRgAAAAAAAAOMIQAAAAAAAgHEEIAAAAAAAwDgCEAAAAAAAYBwBCAAAAAAAMI4ABAAAAAAAGEcAAgAAAAAAjCMAAQAAAAAAxhGAAAAAAAAA4whAAAAAAACAcQQgAAAAAADAOAIQAAAAAABgHAEIAAAAAAAwjgAEAAAAAAAYRwACAAAAAACMIwABAAAAAADGEYAAAAAAAADjCEAAAAAAAIBxBCAAAAAAAMA4AhAAAAAAAGAcAQgAAAAAADCOAAQAAAAAABhHAAIAAAAAAIwjAAEAAAAAAMYRgAAAAAAAAOMIQAAAAAAAgHEEIAAAAAAAwDgCEAAAAAAAYBwBCAAAAAAAMI4ABAAAAAAAGEcAAgAAAAAAjCMAAQAAAAAAxhGAAAAAAAAA4whAAAAAAACAcQQgAAAAAADAOAIQAAAAAABgHAEIAAAAAAAwjgAEAAAAAAAYRwACAAAAAACMIwABAAAAAADGEYAAAAAAAADj3OkuAAAAFvbVqnqjqr5ZVd+oql99fD1fVfce/zfvVNXPqupHj68fVtV/VNW/V9WPN64XlqT/AQDgsVvdBUCzR90FNDMDAJjijar6dlV9q6p+98j/1/er6l+q6h/raiEMp07/A8AXs/8BINKj8AsAbrK7VfVXVfWDWu9e+YPH/8bdjT4T7Er/A8Duuvcv3RcAobpvQN0XANxEL1XV31bVw9runvnw8b/50gafD76I/geA/XXvX7ovAEJ134C6LwC4SW5X1V9W1UX13TsvHtdwe+XPCp+l/wHgcN37l+4LgFDdN6DuCwBuil+rqn+t/nvnL65/q6rfXPUTwxP6HwCO033v7L4ACNV9A+q+AOAm+E5VvVf9983PXu89rg3WpP8B4Hjd983uC4BQ3Teg7gsATtntqvpu9d8vr7u+Wx4JxPL0PwAsp/t+2X0BEKr7BtR9AcCp+lJV/UP13yt3vf65qp5f5SdBIv0PAMvqvld2XwCE6r4BdV8AcIq+VFXfq/775L7X9x7XDsfQ/wCwvO77ZPcFQKjuG1D3BQCn5nbdrJPvn73+qaqeWfynQgr9DwDr6L5Hdl8AhOq+AXVfAHBqbsI7D667vrv4T4UU+h8A1tF9f+y+AAjVfQPqvgDglHyn+u+NS11/uvDPhvn0PwCsp/ve2H1BrFvdBUCz9JuAGQDAqfj1qvrPqnqxu5CFvF9Vv1dV/91dCDeC/geAddn/QKjb3QUAABDvdlX9Xc1Z/lZdfZa/L79vcz39DwAAK/ELKQAA3f6iqv6ou4gV/GFdfTb4IvofAABW4utPpPMVSADodbeq/quqvtJdyEouq+o3quqd7kI4SfofALZh/wOhfAMEAIBOf1Nzl79VVWdV9dfdRXCy9D8AAKxI+kc6JwAAoM/dqvpRVb3cXcjK3qmqr5dT8Px/+h8AtmP/A6F8AwQAgC5/XvOXv1VV96rqz7qL4OTofwAAWJn0j3ROAABAn+9X1e90F7GRH1bVb3cXwUnR/wCwHfsfCOUbIAAAdHijcpa/VVXfqKrf7y6Ck6H/AQBgAwIQAAA6fLu7gAZ/0l0AJ0P/AwDABgQgAAB0+OPuAhp8q7sATob+BwCADXj+G+k8AxIAtvfVqvqf7iKafK2qftxdBK30PwBsz/4HQvkGCAAAW/uD7gIavdFdAO30PwAAbEQAAgDA1r7ZXUCj5M/OleQeSP7sAAA0EIAAALC13+ouoFHyZ+dKcg8kf3YAABoIQAAA2NrXuwtolPzZuZLcA8mfHQCABgIQAAC29svdBTRK/uxc+Vp3AY1+pbsAAACyCEAAANjSraq6311Eoxe7C6Dd3e4CGt0vf4MCALAhv3wCALCl16rqTncRjV7oLoB2yT1wp6pe6S4CAIAcAhAAALaU/O0PwAwAAGBDAhAAALaUvvz8oLsA2qX3QPoMAABgQwIQAAC2dNZdQLOfdhdAu/e7C2gmAAEAYDMCEAAAtvSV7gKavdldAO0uuwtodt5dAAAAOQQgAABsKf0bIAIQ0nsgfQYAALAhAQgAAFtKf/zNRXcBtEvvgfQZAADAhgQgAABsKX35mX76Hz2QPgMAANiQAAQAgC2lP/8//f0P6IH0GQAAwIYEIAAAbCn99Hf66X/0QPoMAABgQwIQAAC2lL78TH//A3ogfQYAALAhAQgAAFt5vqpe6i6iWfrpf/TAvbqaBQAAsDoBCAAAW3Hy2/IbPVBVddZdAAAAGQQgAABsRQDiBdgIQKrMAgAANiIAAQBgK+fdBTR7t6o+7C6Cdh9W1XvdRTRLnwUAAGxEAAIAwFbST307+c8vpPdC+iwAAGAjAhAAALaSvvRMX3rzRHovpM8CAAA2IgABAGAr6S8+vugugJOR3gvpswAAgI0IQAAA2Er6qe/0U/88kd4L6bMAAICNCEAAANhK+ouP05fePJHeC+mzAACAjQhAAADYSvqp78vuAjgZ6b2QPgsAANiIAAQAgK2kLz3TT/3zRHovpM8CAAA2IgABAGALt8qLj9NffM0T6b1wv65mAgAArEoAAgDAFl6pqme7i2iWfuqfJ9J74dmqerm7CAAA5hOAAACwBY+8sfTmCb1gJgAAsAEBCAAAW0hfdn5SVQ+7i+BkPKiqj7uLaJY+EwAA2IAABACALZx3F9Dssqo+7S6Ck/FpXYUgydJnAgAAGxCAAACwhfTT3h55xGel90T6TAAAYAMCEAAAtnDWXUCz9GU3n5feEwIQAABWJwABAGAL6cvOi+4CODnpPZEeigIAsAEBCAAAW0h/3n/6aX8+L70n0mcCAAAbEIAAALCF9G+AXHYXwMlJ74n0mQAAwAYEIAAAbCF92Zl+2p/PS++J9JkAAMAGBCAAAGwhfdmZ/r4HPi+9J9JnAgAAGxCAAACwti9V1b3uIpqln/bn89J74uW6mg0AALAaAQgAAGu7X1W3uotolr7s5vPSe+JWVZ11FwEAwGwCEAAA1uZRN5bdfF76I7CqzAYAAFYmAAEAYG3n3QU0e7+qPugugpPzQVX9tLuIZumzAQCAlQlAAABYW/opb9/+4GnSeyN9NgAAsDIBCAAAa0tfcqYvuXm69N5Inw0AAKxMAAIAwNrSX3TsXQ88TXpvpM8GAABWJgABAGBt6ae800/583TpvZE+GwAAWJkABACAtaW/6Dh9yc3TpfdG+mwAAGBlAhAAANaWfsr7srsATlZ6b6TPBgAAViYAAQBgbelLzvRT/jxdem+kzwYAAFYmAAEAYG3pLzpOf9E1T5feG/er6lZ3EQAAzCUAAQBgTS9X1XPdRTRLP+XP06X3xnNV9VJ3EQAAzCUAAQBgTR5xY8nN0+kNMwIAgBUJQAAAWNN5dwHNPqmqB91FcLLeqqseSZY+IwAAWJEABACANaWf7n5QFtw83SdV9bC7iGbpMwIAgBUJQAAAWFP6ctMjjrhOeo+kzwgAAFYkAAEAYE3py82L7gI4eek9kj4jAABYkQAEAIA1nXUX0Cz9dD/XS++R9BkBAMCKBCAAAKwp/QXH6cttrpfeI+kzAgCAFQlAAABYU/rjbS67C+DkpfdI+owAAGBFAhAAANaUvtxMP93P9dJ7JH1GAACwIgEIAABrSl9upr/gmuul90j6jAAAYEUCEAAA1nKnql7pLqJZ+ul+rpfeI69W1bPdRQAAMJMABACAtdyvqlvdRTRLX25zvfQeuVVVr3cXAQDATAIQAADW4tE2lttcT4+YFQAArEQAAgDAWs67C2j2QVW9310EJ++9uuqVZOmzAgCAlQhAAABYS/qpbif72dVldwHN0mcFAAArEYAAALCW9KWmAIRdpfdK+qwAAGAlAhAAANZy1l1As4vuArgx0nslfVYAALASAQgAAGtJf65/+ql+dpfeK+mzAgCAlQhAAABYS/pjbdKX2uwuvVfSZwUAACsRgAAAsJb0pWb6i63ZXXqvpM8KAABWIgABAGAt6UvN9Pc6sLv0XkmfFQAArEQAAgDAWtJfbJz+WCN2l94rAhAAAFYhAAEAYA0vVdWXu4tolr7UZnfpvfLlqrrbXQQAAPMIQAAAWIMT3Zba7E6vmBkAAKxAAAIAwBrOuwto9qiq3uoughvjsqo+7S6iWfrMAABgBQIQAADWkH6a+0FVfdxdBDfGx1X1dncRzdJnBgAAKxCAAACwhvRlpkcasa/0nkmfGQAArEAAAgDAGtKXmRfdBXDjpPdM+swAAGAFAhAAANZw1l1As/TT/OwvvWfSZwYAACsQgAAAsIb0FxqnL7PZX3rPpM8MAABWIAABAGAN6Y+zuewugBsnvWfSZwYAACsQgAAAsIb0ZWb6aX72l94z6TMDAIAVCEAAAFhD+jIz/YXW7C+9Z9JnBgAAKxCAAACwtGeq6tXuIpqln+Znf+k981pV3ekuAgCAWQQgAAAs7az8npm+zGZ/6T1zu65CEAAAWEz6H6YAACzvvLuAE5C+zGZ/esbsAABgYQIQAACWlv4s/59V1bvdRXDjvFNXvZMsfXYAALAwAQgAAEtLX2I6yc+hLrsLaJY+OwAAWJgABACApaUvMS+6C+DGSu+d9NkBAMDCBCAAACztrLuAZr4BwqHSeyd9dgAAsDABCAAAS0t/kXH6EpvDpfdO+uwAAGBhAhAAAJaW/hib9CU2h0vvnfTZAQDAwgQgAAAsLX2Jmf4iaw6X3jvpswMAgIUJQAAAWFr6EjP9RdYcLr130mcHAAALE4AAALC09CVm+mOMOFx673gHCAAAixKAAACwpBer6oXuIpqlL7E5XHrvvFBVv9RdBAAAcwhAAABYUvq3P6ossTmc3jFDAABYkAAEAIAlpT/C5lF5kTWHe7OueihZ+gwBAGBBAhAAAJaUfnr77ar6qLsIbqyPquon3UU0S58hAAAsSAACAMCS0peXHmHEsdJ7KH2GAACwIAEIAABLSl9eXnQXwI2X3kPpMwQAgAUJQAAAWFL68jL99D7HS++h9BkCAMCCBCAAACwpfXmZvrzmeOk9lD5DAABYkAAEAIAlpS8vL7sL4MZL76H0GQIAwIIEIAAALCl9eZl+ep/jpfdQ+gwBAGBBAhAAAJaUvrxMf4E1x0vvofQZAgDAggQgAAAs5Zmqeq27iGbpp/c5XnoPvV5XswQAAI4mAAEAYCmvlcVl+vKa46X30DNV9Wp3EQAAzCAAAQBgKefdBZyA9OU1x9NDZgkAAAsRgAAAsJT0Z/f/b1W9010EN95P6qqXkqXPEgAAFiIAAQBgKelLyzer6lF3Edx4j6rqsruIZumzBACAhQhAAABYSvrS8qK7AMZI76X0WQIAwEIEIAAALOWsu4Bm3t3AUtJ7KX2WAACwEAEIAABLSX9xcfrSmuWk91L6LAEAYCECEAAAlpL+2Jr0pTXLSe+l9FkCAMBCBCAAACwlfWmZ/uJqlpPeS+mzBACAhQhAAABYSvrSMv3F1SwnvZfSZwkAAAsRgAAAsJT0pWX6Y4tYTnovpc8SAAAWIgABAGAJL1TVi91FNEtfWrOc9F66W1czBQAAjiIAAQBgCU5sW1qzHL1UddZdAAAAN58ABACAJZx3F3AC0l9czXLerKpH3UU0M1MAADiaAAQAgCWkfwPkJ1X18+4iGOPnVfVudxHN0mcKAAALEIAAALCE9GWlRxaxtPSeSp8pAAAsQAACAMAS0peVF90FME56T6XPFAAAFiAAAQBgCenLyvTT+iwvvafSZwoAAAsQgAAAsIT0ZWX6sprlpfdU+kwBAGABAhAAAJaQvqxMX1azvPSeSp8pAAAsQAACAMAS0peV6ctqlpfeU+kzBQCABQhAAABYQvqyMn1ZzfLSeyp9pgAAsAABCAAAx7pdVa93F9EsfVnN8tJ76qz8vQoAwJH8QgkAwLFerao73UU0S19Ws7z0nrpTVa90FwEAwM0mAAEA4Fjn3QWcgPRlNcvTU2YLAABHEoAAAHCs9Gf1f1RVb3cXwTgP66q3kqXPFgAAjiQAAQDgWOlLysuqetRdBOM8qqq3uotolj5bAAA4kgAEAIBjpS8pL7oLYKz03kqfLQAAHEkAAgDAsc66C2jmXQ2sJb230mcLAABHEoAAAHCs9BcVpy+pWU96b6XPFgAAjiQAAQDgWOmPqUlfUrOe9N5Kny0AABxJAAIAwLHSl5SX3QUwVnpvpc8WAACOJAABAOBY6UvK9BdVs5703kqfLQAAHEkAAgDAsdKXlOmPKWI96b2VPlsAADiSAAQAgGM8X1UvdRfRLH1JzXrSe+teXc0YAAA4iAAEAIBjnHcXcALSl9SsR2/5FggAAEcQgAAAcAzLSS+qZj0CEDMGAIAjCEAAADhG+nLy3ar6sLsIxvqwqt7rLqJZ+owBAOAIAhAAAI6Rvpy86C6A8dJ7LH3GAABwBAEIAADHSF9OekQRa0vvsfQZAwDAEQQgAAAcI305mb6cZn3pPZY+YwAAOIIABACAY6QvJ9OX06wvvcfSZwwAAEcQgAAAcIz05WT6cpr1pfdY+owBAOAIAhAAAI6RvpxMX06zvvQeS58xAAAcQQACAMAx0peT6ctp1pfeY+kzBgCAIwhAAAA41K2qOusuoln6cpr1pffY/bqaNQAAsDcBCAAAh3qlqp7tLqJZ+nKa9aX32LNV9XJ3EQAA3EwCEAAADnXeXcAJSF9Osz49ZtYAAHAgAUHHpm4AACAASURBVAgAAIdKfzb/J1X1sLsIxntQVR93F9EsfdYAAHAgAQgAAIdKX0peVtWn3UUw3qd1FYIkS581AAAcSAACAMCh0peSF90FECO919JnDQAABxKAAABwqPSlpHczsJX0XkufNQAAHEgAAgDAodKXkulLabaT3mvpswYAgAMJQAAAOFT6UjJ9Kc120nstfdYAAHAgAQgAAIdKX0pedhdAjPReS581AAAcSAACAMCh0peS6S+mZjvpvZY+awAAOJAABACAQ6UvJdMfS8R20nstfdYAAHAgAQgAAId4rqrudRfRLH0pzXbSe+3lupo5AACwFwEIAACHuF9Vt7qLaJa+lGY76b12q6rOuosAAODmEYAAAHAIj6SxlGY76e8AqTJzAAA4gAAEAIBDpC8j36+qD7qLIMYHVfXT7iKapc8cAAAOIAABAOAQ6ctIJ/LZWnrPpc8cAAAOIAABAOAQ6ctIj79ia+k9lz5zAAA4gAAEAIBDpC8j05fRbC+959JnDgAABxCAAABwiPRlZPoymu2l91z6zAEA4AACEAAADpG+jExfRrO99J5LnzkAABxAAAIAwCHSl5Hpy2i2l95z6TMHAIADCEAAADhE+jIyfRnN9tJ7Ln3mAABwAAEIAAD7ulVVZ91FNEtfRrO99J67X1ezBwAAdiYAAQBgXy9X1XPdRTRLX0azvfSee66q7nUXAQDAzSIAAQBgXx5FYxnN9vSc2QMAwJ4EIAAA7Ct9CflJVT3oLoI4b9VV7yVLnz0AAOxJAAIAwL7Sl5APyiKa7X1SVQ+7i2iWPnsAANiTAAQAgH2lLyEvugsgVnrvpc8eAAD2JAABAGBf6UtI72KgS3rvpc8eAAD2JAABAGBf6UvI9CU0fdJ7L332AACwJwEIAAD7Sl9Cpi+h6ZPee+mzBwCAPQlAAADYV/oSMn0JTZ/03kufPQAA7EkAAgDAvtKXkOlLaPqk91767AEAYE8CEAAA9pW+hExfQtMnvffSZw8AAHsSgAAAsI9nq+qV7iKapS+h6ZPee6/W1QwCAICdCEAAANjH/aq61V1Es/QlNH3Se+9WVZ11FwEAwM0hAAEAYB8eQWMJTR+9ZwYBALAHAQgAAPtIXz5+UFXvdxdBrPfqqgeTpc8gAAD2IAABAGAf6cvHi+4CiJf+LZD0GQQAwB4EIAAA7CN9+Zi+fKZfeg+mzyAAAPYgAAEAYB/py8f05TP90nswfQYBALAHAQgAAPtIXz6mL5/pl96D6TMIAIA9CEAAANhH+vIxfflMv/QeTJ9BAADsQQACAMA+0peP6ctn+qX3YPoMAgBgDwIQAAD2kb58TF8+0y+9B9NnEAAAexCAAACwj/TlY/rymX7pPXjeXQAAADeHAAQAgF3dq6rnu4tolr58pl96Dz5fVS91FwEAwM0gAAEAYFfp3/6osnymnx40iwAA2JEABACAXaUvHT+tqre6iyDeZV31YrL0WQQAwI4EIAAA7Cp96figqj7uLoJ4H1fVw+4imqXPIgAAdiQAAQBgV+lLR48e4lSk92L6LAIAYEcCEAAAdpW+dExfOnM60nsxfRYBALAjAQgAALtKXzqmL505Hem9mD6LAADYkQAEAIBdpS8d05fOnI70XkyfRQAA7EgAAgDArtKXjulLZ05Hei+mzyIAAHYkAAEAYFfpS8f0pTOnI70X02cRAAA7EoAAALCr8+4CmqUvnTkd6b2YPosAANiRAAQAgF3cqapXuotolr505nSk9+KrdTWTAADgCwlAAADYxVn53TF96czpSO/F21X1encRAACcvvQ/YgEA2I1n7ls6czr0opkEAMAOBCAAAOwifdn4s6p6t7sIeOyduurJZOkzCQCAHQhAAADYRfqy8aK7APiM9G+BpM8kAAB2IAABAGAX6cvG9GUzpye9J9NnEgAAOxCAAACwi/RlY/qymdOT3pPpMwkAgB0IQAAA2EX6sjF92czpSe/J9JkEAMAOBCAAAOwifdmYvmzm9KT3ZPpMAgBgBwIQAAB2kb5sTF82c3rSezJ9JgEAsAMBCAAAu0hfNqYvmzk96T2ZPpMAANiBAAQAgF2kLxvTl82cnvSePO8uAACA0ycAAQDgOner6oXuIpqlL5s5Pek9+UJVvdhdBAAAp00AAgDAddK//VFl2czp0ZNmEwAA1xCAAABwnfQl46OquuwuAj7jzbrqzWTpswkAgGsIQAAAuE76kvFhVX3UXQR8xkdV9XZ3Ec3SZxMAANcQgAAAcJ30JaNHDXGq0nszfTYBAHANAQgAANc57y6gWfqSmdOV3pvpswkAgGsIQAAAuM5ZdwHN0pfMnK703kyfTQAAXEMAAgDAddIfM5O+ZOZ0pfdm+mwCAOAaApD/a+/ugz2r6/uAv5fV5WlXRFgxgFK1xiBKFcUan5M2GemDY2NNiWPS0ShN89RpTdNO26l9nnYck0lbTSPRjiaNiajRNA3G2jQJ+BApVgHBkKoVBbIssjwsy+7C7vaPs9RF77279+69v8855/N6zXxH/3zPuZ/z5befzznnCwDA0XRvMnZvMjNe3Wuz+94EAMBRGIAAAHA03ZuM3ZvMjFf32uy+NwEAcBQGIAAAHE33g4a7N5kZr+612X1vAgDgKAxAAABYyeYkj6sOUax7k5nx6l6bZ2TYowAAYEkGIAAArOTMaDB2bzIzXt1rc3OGIQgAACzJAAQAgJX4xr4mM+OlNu1RAACswAAEAICVdG8u7ktyT3UIWMbdGWq0s+57FAAAKzAAAQBgJd2bi3ckOVQdApZxKMnO6hDFuu9RAACswAAEAICVdG8u+sQQY9e9RrvvUQAArMAABACAlXRvLnZvLjN+3Wu0+x4FAMAKDEAAAFhJ9+Zi9+Yy49e9RrvvUQAArMAABACAlXRvLnZvLjN+3Wu0+x4FAMAKDEAAAFhJ9+Zi9+Yy49e9RrvvUQAArMAABACAlZxVHaBY9+Yy49e9RrvvUQAArMAABACAlXR/urp7c5nx616j3fcoAABWYAACAMByTklyanWIYt2by4xf9xrdmmGvAgCAb2MAAgDAcnxaRnOZ8VOj3gIBAGAZBiAAACyne1PxUJKd1SHgKO7IUKuddd+rAABYhgEIAADL6d5UvDvJvuoQcBT7ktxTHaJY970KAIBlGIAAALCc7k1FnxZiKrrXave9CgCAZRiAAACwnO5ngHRvKjMd3Wu1+14FAMAyDEAAAFjO9uoAxbo3lZmO7rXafa8CAGAZBiAAACyn+2dlujeVmY7utdp9rwIAYBkGIAAALKd7U7F7U5np6F6r3fcqAACWYQACAMByujcVuzeVmY7utdp9rwIAYBkGIAAALKf7wcLdm8pMR/da7b5XAQCwDAMQAACWckKSM6pDFOveVGY6utfq9vi3LQAAS/AjEQCApZyR5FHVIYp1byozHd1rdXOSx1WHAABgfAxAAABYim/qJzuqA8AxUqv2LAAAlmAAAgDAUro3Ex9Mcnd1CDhGuzLUbGfd9ywAAJawqToAFNuf5NHVIQCA0bk1ybnVIWAVbk1ydnUIAGB0HkyypToEVPEGCN3dXx0AABil7mcqMD1qFgBYit4XrRmA0N2e6gAAwChpJjM1ahYAWIoBCK0ZgNCdAQgAsBTNZKZGzQIASzEAoTUDELrzHwEAYCmayUyNmgUAlqL3RWsGIHTnDRAAYCmayUyNmgUAlmIAQmsGIHR3V3UAAGCUNJOZGjULACxlV3UAqGQAQndfqQ4AAIySZjJTo2YBgKV8uToAVDIAoTsDEABgKZrJTI2aBQCWovdFawYgdGcKDgAsRTOZqVGzAMBS9L5ozQCE7vxHAABYimYyU7OjOgAAMEp6X7S2qToAFNua5L7qEADAqNyT5LHVIWAN7knymOoQAMBoHMrQ+9pTHQSqeAOE7nYn+dPqEADAqHj7g6lSuwDAkW6P4QfNGYBA8kfVAQCAUdFEZqrULgBwpE9XB4BqBiCQfKo6AAAwKprITJXaBQCOpOdFewYg4D8GAMAjaSIzVWoXADjSJ6sDQDUDEEiuSbK/OgQAMBo7qgPAGqldAOBh+5J8tjoEVDMAgeSBJJ+vDgEAjMbO6gCwRmoXAHjYtUn2VoeAagYgMLi6OgAAMBo+I8RUqV0A4GGfqA4AY2AAAoOPVAcAAEZDE5mpUrsAwMM+XB0AxsAABAZXJbm9OgQAMAqayEyV2gUAkuTWJJ+uDgFjYAACg4MxGQcABg6SZqrULgCQJB/M0OuC9gxA4Js+UB0AACj3UJJd1SFgje7KUMMAQG8frA4AY7GpOgCMyOYktyV5fHUQAKDM7UnOrg4Bx+H2JE+oDgEAlNmR5JwkB6qDwBh4AwS+6UBMyAGgO2coMHVqGAB6+0AMP+D/MwCBR3p7kkPVIQCAMprHTJ0aBoC+DmXobQGHGYDAI30hyceqQwAAZTSPmTo1DAB9XZnkpuoQMCYGIPDtfr46AABQRvOYqVPDANCXnhZ8CwMQ+Ha/m+S66hAAQAnNY6ZODQNATzck+R/VIWBsDEBgaf+xOgAAUELzmKlTwwDQ09viXFv4NgYgsLRfTfK16hAAwMJpHjN1ahgA+vlqkvdVh4AxMgCBpT2Q5B9WhwAAFk7zmKlTwwDQz88m2VcdAsbIAASW974kV1eHAAAWSvOYqVPDANDLp5JcUR0CxmpTdQAYuecm+UwMCwGgi1OT7KkOAcfhlCT3V4cAABbiYJIXJLmmOgiMlaYurOzaJL9WHQIAWIj7YvjB9O1Jsrs6BACwEO+J4QesyBsgcHTnJvlihidCAYD5+lKSP1sdAtbBl5I8pToEALChdid5epLbqoPAmHkDBI7u60neXB0CANhwzk5gLtQyAMzf34nhBxyVAQgcm19K8hvVIQCADaVpzFyoZQCYtw8meXd1CJgCAxA4dj+W5JbqEADAhtE0Zi7UMgDM19eSXFYdAqbCAASO3d1JXpfkQHUQAGBD7KgOAOtELQPAPB1M8iNJ7qoOAlNhAAKrc1WSf1sdAgDYEDurA8A6UcsAME//PMnvV4eAKTEAgdV7S5IPVYcAANadzwYxF2oZAObnt5L86+oQMDUGILB6BzJ8Cuvq6iAAwLrSNGYu1DIAzMunk/xQfJYdVs0ABNbmgSSvSnJTdRAAYN1oGjMXahkA5uPGJH85yZ7qIDBFBiCwdt9I8v1JvlYdBABYFw6OZi7UMgDMw61JLolDz2HNNlUHgBm4MMkfJHlsdRAAYM0OJDkxPivAPGxOsu/w/wIA07QryUuSfKE6CEyZN0Dg+F2X5MXxJggATNmdMfxgPg5keFsZAJim25N8bww/4LgZgMD6+EKSF2QYhgAA0+PMBOZGTQPANN2Uocf0ueogMAcGILB+bkvy8iRXFecAAFZPs5i5UdMAMD1/lOSlSW6pDgJzYQAC62tXku9L8oHqIADAqmgWMzdqGgCm5bcyfPbqzuogMCcGILD+9iW5NMm/jG+JA8BUaBYzN2oaAKbhoSRvSfIDSfYUZ4HZMQCBjXEgyT/NcDj6l4uzAABHp1nM3KhpABi/WzK89fEv4iFa2BAGILCxPp3koiTvqw4CAKxIs5i5UdMAMG4fSvKcOEsWNpQBCGy8e5K8NsllSXYXZwEAlqZZzNyoaQAYp91JfjTJq5PcVZwFZs8ABBbn8iRPT/LOJAeLswAAj6RZzNyoaQAYl0NJrkhyQZJ3F2eBNgxAYLFuS/K3kjw/ydXFWQCAb9pRHQDWmZoGgPH4TJIXJfnBDOd+AAtiAAI1rk3ykiSvTPJ/a6MAAPG0PPOjpgGg3teT/M0kL0jyqeIs0NKm6gBAtiS5NMnPJHlWcRYA6GhPklOrQ8AGuD/JKdUhAKCh65K8PcmvJHmgOAu05g0QqLc/yXuTXJjhrZDfzvBdSABgMXwqiLnyFggALM6hJB/P8LWPZ2c4A9bwA4oZgMC4XJ3kryZ5ZpJ3xD9aAWAR/PeWuVLbALDxdmR42+OCJN+X5L/Gg60wGgYgME43JvmJJN+R4a2Qf5/hAHUAYP1pEjNXahsANsadGT5v9cok5yb5ySQ3lSYClvSo6gDAig5meCvk6iR/N8kLk7wqyYuSXJTh/BAA4PhoEjNXahsA1sf+JNdm6M98JMOB5gdLEwHHxAAEpuPIYUiSnJTkeUm+O8Ng5PlJzq6JBgCT5gwQ5kptA8Da3JrkM0k+mWHYcW2SvaWJgDUxAIHp2ptHDkSS5JQkTzm8nnzE/39skpMP/++JSU5Nsi32AABIkp3VAWCDqG0AGDyU5L4kuzP0U+5Ncv/h//3y4fWVI/7/npqYwHrT/IR52ZPkhsMLAI7VLUmeWB2ikM8EMVfda/uWJOdVhwAAoI5D0AEA2F4doFj3JjHz1b22H18dAACAWgYgAAC9nZbhXKnOujeJma/utX1SksdUhwAAoI4BCABAb56QdlA086W27XEAAK0ZgAAA9Na9OXgwyTeqQ8AG2ZmhxjvrvscBALRmAAIA0Fv35uA3kjxUHQI2yIEkd1WHKNZ9jwMAaM0ABACgt7OqAxTrfkYC89e9xrvvcQAArRmAAAD01v3p6O7NYeave4133+MAAFozAAEA6G17dYBi3ZvDzF/3Gu++xwEAtGYAAgDQW/eno3dUB4AN1r3Gu+9xAACtGYAAAPTW/fv4O6sDwAbrXuPd9zgAgNYMQAAAeuv+dHT3zwMxf91rvPseBwDQmgEIAEBv3ZuD3ZvDzF/3Gu++xwEAtGYAAgDQ16OSnF4dolj35jDz173Gz8iw1wEA0JABCABAX9vj92D3A6KZv+41vinJmdUhAACo0f0fvAAAnfk0jKfjmT81bq8DAGjLAAQAoK/uTcEHktxXHQI22L0Zar2z7nsdAEBbBiAAAH2dVR2gmCfj6WJndYBi3fc6AIC2DEAAAPrq/lS0AQhddK/17nsdAEBbBiAAAH1trw5QrHtTmD6613r3vQ4AoC0DEACAvro/Fd29KUwf3Wu9+14HANCWAQgAQF/dm4I7qgPAgnSv9e57HQBAWwYgAAB9dT8YuPvB0PTRvda773UAAG0ZgAAA9NX9qejunwWij+613n2vAwBoywAEAKCv7k3B7k1h+uhe694AAQBoygAEAKCnbUlOrg5RrPu5CPTRvdZPTrK1OgQAAItnAAIA0FP3tz8ST8XTh1q35wEAtGQAAgDQU/dm4KEkd1aHgAXZmaHmO+u+5wEAtGQAAgDQU/dv4t+V5MHqELAgDybZVR2iWPc9DwCgJQMQAICeuj8N7ZNAdNO95rvveQAALRmAAAD01L0Z2L0ZTD/da777ngcA0JIBCABAT9urAxTr3gymn+41333PAwBoyQAEAKCn7k9D76gOAAvWvea773kAAC0ZgAAA9NT9QOCd1QFgwbrXfPc9DwCgJQMQAICeuj8N3f1zQPTTvea773kAAC0ZgAAA9NS9Gdi9GUw/3Wu++54HANCSAQgAQD+bkzyuOkSx7s1g+ule82dk2PsAAGjEAAQAoJ8zoxHY/UBo+ule85szDEEAAGjEAAQAoB+fgvE0PP2oeXsfAEA7BiAAAP10bwLuS3JvdQhYsLsz1H5n3fc+AIB2DEAAAPo5qzpAsTuSHKoOAQV2Vgco1n3vAwBoxwAEAKCf7k9B+xQQXXWv/e57HwBAOwYgAAD9bK8OUKx7E5i+utd+970PAKAdAxAAgH66PwXdvQlMX91rv/veBwDQjgEIAEA/3ZuA3c9BoK/uAxBngAAANGMAAgDQz3nVAYp1bwLTV/faf2J1AAAAFssABACgly1Jzq8OUWxHdQAo0r32n5Hk0dUhAABYHAMQAIBenpNhCNJZ96fg6av7599OTHJhdQgAABbHAAQAoJcXVwcYge5PwdOX2k9eUh0AAIDFMQABAOhF889T8PTl7afkpdUBAABYnE3VAQAAWJgtSe5Msq06SKFDSU5Ksr86CBTYkmRvev878N4kZyZ5sDoIAAAbzxsgAAB9vCy9hx9JcncMP+hrf5J7qkMUe0ySF1WHAABgMQxAAAD6eGV1gBHw+Su68xms5FXVAQAAWAwDEACAHjYneU11iBH4enUAKOYeGPZC/xYGAGjAjz4AgB6+N8lZ1SFG4PrqAFDMPZCcneTl1SEAANh4BiAAAD28sTrASHy+OgAUMwAZvKE6AAAAAABw/M5MsjfJISsXHee1hKm7OPX34RjW3gx7IwAAM+YNEACA+fvxJCdWhxiBh5LcWB0Cit2Q5EB1iBE4Md6MAwAAAIBJOynJ7al/2noM6wvHeS1hLr6Y+vtxDOtPM+yRAADMlDdAAADm7Q1JnlAdYiSuqw4AI+FeGJyV5IerQwAAsHEMQAAA5uukJP+oOsSIXFsdAEbCvfBN/zg+EQgAMFsGIAAA8/W3k5xTHWJErq4OACPxieoAI3JekjdVhwAAYGNsqg4AAMCGOD3JzUnOrA4yEg8keWyS/dVBYAROTHJ3nH/xsJ1JvjPDNQEAYEa8AQIAME9vieHHkT4dww942L4k11SHGJHtSf5JdQgAANafAQgAwPxcmOTHq0OMzFXVAWBk3BOP9FNJLqgOAQDA+jIAAQCYl81JLk/y6OogI+P8D3gk98QjbUnyzvg3MgAAAACM1t9Lcsh6xNqT5JTjuagwQ6cm2Zv6+3Ns66eO56ICAAAAABvjGRma/dUNxLGt/3Y8FxVm7HdTf3+ObT2Q5JnHc1EBABgPr/cCAMzDSUnel+Tk6iAjdGV1ABip36kOMEInJXlPkhOrgwAAAAAAg8tT/+T0WNdTj+O6wpw9JfX351jX24/jugIAAAAA6+T1qW8WjnXdeBzXFTr449Tfp2NdrzuO6woAwAj4BBYAwLR9d5J3VIcYsd+uDgAj5x5Z3juTPL86BAAAAAB09GeS7Ej9U9JjXs9d68WFJv586u/TMa/bkzxpzVcXAAAAAFi1MzN83qm6OTjm9X/WfHWhlz9J/f065nVzksev+eoCAFDGJ7AAAKZnW5Irk5xfHWTk/kt1AJiIK6oDjNzTMnwqbGt1EAAAAACYs61J/jD1T0RPYV2wxmsM3VyY+vt1Cut/Jjl1jdcYAAAAAFjBqRkacNVNwCmsz6/xGkNXN6T+vp3CuirDW3gAAEyAT2ABAEzD6Uk+luTlxTmm4r3VAWBifqU6wES8OMnHM5zDBAAAAAAcp7OTXJf6J5+nsvYl2b6mKw19nZlkb+rv36msG5M8cU1XGgAAAABIkvy5JF9NfbNvSsvh57A270/9/TuldWuS563pSgMAAABAc69Osjv1Tb6prZet5WID+Qupv3+ntnYn+WtrudgAAAAA0NHmJP8syYHUN/emtr6YZNOqrziQDPfOzam/j6e2Dib5hSSPXv0lBwAAAIA+zk3yB6lv6E11/fTqLzlwhDen/j6e6vq9JOes/pIDAAAAwPy9OsmdqW/iTXV9I8nWVV914EjbkuxK/f081bUryWtXfdUBAAAAYKYen+TXUt+4m/r6V6u98MCS/l3q7+epr19NcuZqLzwAAAAAzMWmJD+cZGfqm3VTXw8kOWt1lx9YxjlJ9qX+vp76uiPeBgEAAACgoe9K8rHUN+jmsn5pdZcfOIr/nPr7ei7r95NcuKqrDwAAAAATdE6SdyZ5KPVNubmsh5I8fTV/BOCoLkhyIPX391zWg0l+Mcl3rOaPAAAAAABTsD3Dd/XvT30jbm7rPav4OwDHztlE6792J/k3cT4IAAAAADNwTpKfy9D0qm68zXHtT/KUY/5rAKvxnRneXKi+z+e47kvy1ngjBAAAAIAJem6S92Zo0Fc32ua8/tOx/kGANXl36u/zOa99Sd6f5IXH+gcBAAAAgAqnJbksybWpb6p1WHuTPPGY/jLAWp2XoUlffb93WF9I8g+SnHFMfxkAAAAA2GCPSfK6JB/J0JCvbqB1Wj93DH8f4Pj9h9Tf753WA0k+nOS1SbYdw98HAIBlbKoOAAAwMZuSXJDk+5P8pSQvSbKlNFFPd2Y4n2BXdRBo4Iwkf5Lk9OogDe1L8odJfifJf09yY4YhCQAAx8AABABgZacluSjJ8zJ8o/3FSc4sTUSS/ESSd1SHgEZ+OskvVIcgO5NcleRTGT63eG2Se0sTAQCMmAEIANDVKUlOTLI1w1PNpyc59/B6Uoa3C54eZ0yM0Q1JnpPkoeog0Mijk3w+yfnVQfg2X0vyx0luTnJLkq8fXrsOr90Z3iTZUxUQAKCKAQgAsBHOTnJxhjcnzs8wUHhSkpMyvFFxQl00AKDIwST3ZDgz65bD66Ykn01yTZLb6qIBAHNkAAIArJeLk7wmySuSPKs4CwAwPdcn+WiSKzIMRAAAjosBCABwPLYleWOSN8VnUQCA9XNTksuT/HKS+4qzAAATZQACAKzFY5L8/QwHUZ9enAUAmK9dSd6e5K1x4DsAsEqbqwMAAJNyQpLLkvxmkkuSnFwbBwCYuZOTvDTJj2Z4E+R/JzlUmggAmAxvgAAAx+rJSd6V5HuqgwAAbX0yyeuT3FwdBAAYvxOqAwAAk3Bpkuti+AEA1Hphkmsz/DYBAFiRT2ABACs5IcM3t9+WZEtxFgCAZPhN8teTbEvy8fgkFgCwDJ/AAgCWsyXJe5P8jeogAADL+HCSH0qytzoIADA+BiAAwFK2ZGgoXFIdBADgKK5M8qok+6uDAADj4gwQAOBbnZDhzQ/DDwBgCi5J8uvxmW8A4Fv4cQAAfKu3JnlTdQgAgFU4P8mpST5WHQQAGA8DEADgSJdmOPAcAGBqXpjkK0k+Xx0EABgHZ4AAAA97apLPJdlaHQQAYI12J3l2ki9VBwEA6jkDBABIht8E74rhBwAwbVsznGWm3wEA+AQWAJAkuSzJT1aHAABYB09McnuSa6uDAAC1fAILANiW5OYkT6gOAgCwTnYmeVqSe6qDAAB1vBIKAPxsDD8AgHnZnuRnqkMAALW8AQIAvW1LckuSx1YHAQBYZ/ckOS/eAgGAtrwBY7BONgAABatJREFUAgC9vTGGHwDAPJ2W5A3VIQCAOt4AAYDerk/yzOoQAAAb5KYkz6gOAQDU8AYIAPR1cQw/AIB5Oz/J86pDAAA1DEAAoK/XVAcAAFiAH6wOAADUMAABgL4uqQ4AALAAr6gOAADUcAYIAPR0dpJbq0MAACzIOUluqw4BACyWN0AAoKfnVwcAAFigi6sDAACLZwACAD1dVB0AAGCB/PYBgIYMQACgp++qDgAAsEB++wBAQwYgANDTedUBAAAWyG8fAGjIAAQAejqnOgAAwAKdWx0AAFg8AxAA6GlbdQAAgAXaWh0AAFi8TdUBAIASDyZ5VHUIAIAFeTDJluoQAMBieQMEAAAAAACYHQMQAOhpT3UAAIAF8tsHABoyAAGAnu6rDgAAsEC7qwMAAItnAAIAPd1aHQAAYIG+Xh0AAFg8AxAA6Omr1QEAABbIbx8AaMgABAB6uqk6AADAAvntAwANGYAAQE+frQ4AALBAfvsAQEMGIADQ0zXVAQAAFuh/VQcAABbPAAQAerotyQ3VIQAAFuD6DL99AIBmDEAAoK8rqwMAACzAR6sDAAA1DEAAoK8rqgMAACzA+6sDAAA1NlUHAABKXZ/kmdUhAAA2yE1JnlEdAgCo4Q0QAOjt3dUBAAA20OXVAQCAOt4AAYDeTk3y1SRnVAcBAFhnu5Kcl+S+6iAAQA1vgABAb/cn+cXqEAAAG+DtMfwAgNa8AQIAbEtyc5InVAcBAFgndyR5WpJ7q4MAAHU2VwcAAMrtT7I7yV+pDgIAsE7enOST1SEAgFreAAEAkuGzmL+X5GXVQQAAjtMnkrw0ycHqIABALQMQAOBhT03yuSRbq4MAAKzR7iTPTvKl6iAAQD2HoAMAD/tSkh9Jcqg6CADAGr0xhh8AwGHOAAEAjvTFDIeiv7A6CADAKr0tyc9XhwAAxsMABAD4Vh9P8vQkz6wOAgBwjH4zyWXxJisAcARngAAAS9mS5MNJLqkOAgBwFFcmeVWS/dVBAIBxcQYIALCU/RkaCb9RHQQAYAUfTvIDMfwAAJbgE1gAwHIOJPlQkq1xJggAMD5vS/KmJA9WBwEAxsknsACAY3FpksszDEMAACrtzjD4+PXqIADAuBmAAADH6slJ3pXke6qDAABtfTLJ65PcXB0EABg/Z4AAAMfqK0n+YpIfS3JHcRYAoJc7MvwGeUkMPwCAY+QMEABgNQ4luTbJOzOcEfKsJCeXJgIA5mxXhrM+Ls3w9seh2jgAwJT4BBYAcDy2JXljhu9wn1+cBQCYj5synD/2y0nuK84CAEyUAQgAsF4uTvKaJK/I8GYIAMBqXJ/ko0muSHJNcRYAYAYMQACAjXB2hoHIRRneDHnS4XVSktPiHDIA6OhgknuS7E1yy+F1U5LPZhh43FYXDQAAAAAAAAAAAAAAAAAAAAAAAAAAAAAAAAAAAAAAAAAAAAAAAAAAAAAAAAAAAAAAAAAAAAAAAAAAAAAAAAAAAAAAAAAAAAAAAAAAAAAAAAAAAAAAAAAAAAAAAAAAAAAAAAAAAAAAAAAAAAAAAAAAAAAAAAAAAAAAAAAAAAAAAAAAAAAAAAAAAAAAAAAAAAAAAAAAAAAAAAAAAAAAAAAAAAAAAAAAAAAAAAAAAAAAAAAAAAAAAAAAAAAAAAAAAAAAAAAAAAAAAAAAAAAAAAAAAAAAAAAAAAAAAAAAAAAAAAAAAAAAAAAAAAAAAAAAAAAAAAAAAAAAAAAAAAAAAAAAAAAAAAAAAAAAAAAAAAAAAAAAAAAAAAAAAAAAAAAAAAAAAAAAAAAAAAAAAAAAAAAAAAAAAAAAAAAAAAAAAAAAAAAAAAAAAAAAAAAAAAAAAAAAAAAAAAAAAAAAAAAAAAAAAAAAAAAAAAAAAAAAAAAAAAAAAAAAAAAAAAAAAAAAAAAAAAAAAAAAAAAAAAAAAAAAmJL/B64jpJif9GsiAAAAAElFTkSuQmCC;fontColor=#484B57;imageBackground=none;imageBorder=none;shadow=0;" vertex="1" parent="1">
          <mxGeometry x="569" y="165" width="66" height="66" as="geometry" />
        </mxCell>
        <mxCell id="pNwCzHMw6aw-D7r6jr79-16" value="" style="shape=image;verticalLabelPosition=bottom;labelBackgroundColor=default;verticalAlign=top;aspect=fixed;imageAspect=0;image=data:image/png,iVBORw0KGgoAAAANSUhEUgAAAUAAAAFACAYAAADNkKWqAAAddUlEQVR4nO3df4xd5Z3f8fde3YxGo5E1sizLYi3L9VrUIQjRLEqRhdKEeilFLptmKV1F3W2aplGWjVKUstl0u9kKRRFCVhRF3VWUpgilqyjdsGnCsmmWsCx1KCEsYRMgxEscwm8c8A8wtvHPsfvH597MD2Y8c2fuPc+5575f0iMPMQp37jnne54f3+f7gCRJkiRJkiRJkiRJkiRJkiRJkiRJkiRJkiRJkiRJkiRJkiRJkiRJkiRJkiRJkiRJkiRJkiRJkiRJkiRJkiRJkiRJkiRJkiRJkiRJkiRJkiRJkiRJkiRJkiRJkiRJkiRJkiRJkiRJkiRJkiRJkiRJkiRJkiRJkiRJkiRJkiRJkiRJkiRJUi38UukPoJHUmvfn2Xl/SpUwAGq1xoG1wBpgCpgEJjp/jnd+ngDGgLeQoNcC2p0GcKbTzgKnO3+eAt7otBPA0c7PR4HXgNeBQ52/k1bEAKiFjJMA1g1ok8AG4ALgVzo/bwDWdf6uPa+1mBvouj/34mynnZn1c/efZ7ejwCud9nPgKeClzs9HmQmYRzFYah4DoFokkF0EbAX+IbAJWE+C3BTp4Y2V+oArdIr0EF8jwfAV4DngSeCnwI+BAzjsHmkGwNExQQLbRmAz8Dbgkk5bV+5jFXUAeAz4IbAHeAZ4gQTKN8p9LFXFANg8LWbm3dYBlwO/SgLdBtKbm6L3IWnTnSW9xUOkx/gY8DDwtyRQducj7TE2iAGwOdYB7wAuZSbgbWZmoUErc4b0DB8DHiG9xW5Q1JAzAA6nMTKU3QRsB94NbCMrsZPYuxuUs2Qx5XXg74H7gO+SIfNzJFhqiBgAh8sFwFXAPwEuA7aQoa7KeYMsqvwdsBv4NlmF1hAwANbberI6+2vA1WR4a++u3s6SYfJfAfcAP8Lhcm0ZAOulTRYptgH/EriCzOON6irtsDtA5g+/A9xJhs2HcKhcGwbAepggwe7XgJ0kH8/Fi2Y5Q4bKfwHcS4KiidmFGQDLmQIuJkHvvWRBwwWM5usupDwDfA34a5KU/VrBzzSyDIDVmwKuB36drOBOlf04Kuw14P8BdwFfxUBYKQNgNaaAd5Kgdx1JV5Hmew3438DXyRD59bIfp/kMgIMzRlZx3wP8K7KCa+DTcrxOVpLvAL5B9jGfKvqJGsoAOBjbgd8gvb1NhT+LhtszwJ+T+cLvlf0ozWMA7J91ZCX333X+dL+t+qW7T/k7wJc6fx4q+omkjnHS07sHOAacs9kG2I4Bd5PMgXGkQrYAN5ACnKUfCttotqeAD5Nkea2AQ+DetEhJqevJUHcbw1coVM1yiuQR3k7mCn+OJbuWzQC4fGuBDwK/RRKYpbr5EfCnwP/AOcJlMQCeX4tUYLke+PfAhbhFTfV2CvgJcBvpEb6EPcJFGQAXN0Zy+P4T8HYMfEs5S/LXDjBzFkf3FLfuiW4nyJ7Y08wcagQzhym9pfNn9zS57oFME8ycTbKO5FO6wn5+Z4DvA58h+4/NI1yAAfDNJoF3ATdj+alu+sUrJLAdIHNM+8jZGS90/vmlzr9XVZWTNgmIF8xqG4FfJsnn6zptPaYjdctzfZKkzxwt+3HqxQA4Y4yUkf/PwJWMzh7ds8w9d/c5Mpe0h5Rv6p7B2211PyxogvQQu22KLFa9lczdbmLuucWjEhwPAX8D3ErK+9sjxADYtRn4HeBDjEbge52ZoyH3kDmjH5NdB3UPcKs1SYLgRWRO963MHAk6ClsVD5FFks+T6z3SRj0ArgeuBf4LGUI1cZ6vey7uC2RO6CFSvn32vNyoapGef3ee8e3APybHDWxk5lzkpjlD7oebgf9Dpjg0QlrkuMi7gZOUT2jtdztGim7+ETlDZCvmK/ZijHxnV5Pv8F6aucvnOHkG3sHoTAWMvC3A52hW4HuZHMhzC7ADD0oahAny3d4C3A/sp/x171c7CXyWPBtqqEmS1vI4ScMofdOtph0HXgS+SbZCXUaG86rGevKd3wB8i1yLYX+hnibPxrXkWVGDbAO+QgJH6RttNe15kun/QTKR77ClvBa5Fh8i1+ZFyt8nq2nHgS+TBSINuTXAB4CngWnK31y9ttOdz34H8D6S7+bwtr4myOLJ+0j9vmcZztHGNCm08NuMxsp4I60nvb5hnLw+DTxAhliX0szV6aZrk1XljwAPMpyB8AjpDTq9MkTGyXDkecrfQL20k8CjwKex2EITXUKu7aMM33zh82QkZf3BGmuR4cfngcOUv2mW06aBg2Qi/XqSkO28XnO1yErr9ST95CDDMzVzGPgTMg2jGrqKJPmWvlF6eavuIueHGPRGT5scnfAZhmvh5EGSDqSaWAfcBLxK+ZtjqXYceJjMC23GuT0l6Xoz8FHgEYYjU+FV8syt6//XoV5sJCukwzCn8iCZR9kwkG9CTbCBpDgNw0jmJPBnOCQuog3sJCkipW+E87Uj5JDrawbzNajBdgJ3knuo9H18vvYUub8dzVRkAvg4qUlX+uIv1g6TSe6dNHMzvaoxRe6hu6n3wt6LZEhsjuqAbSKlvktf8MVad3P5DkwZUP+Mk3vqHuo93fNFMi2lPmuRihUPUc+E0m71lZ2YOa/BWUP26t5HPRP8T5O57ssws6Gvrqa+5+8+QRY31g7st5fm6p5QuIfy9/9CbS9JS9MqjZOijXWcCN5D5iKts7d8k2SlcwspUHFxp23r/G8bsBJJL8aBTwBPUv55mN8Ok1qKtX4+6lwRej3w+2Q/bJ3m0w4AXyVZ8T+huoOAhkWbmXM5NpEtYG8juW7ryLUc7/x73WHSWfI9nui0V8jZJE+Q8yueY+Y8Er/vudrkBfK7wHXUKzfvBPDHJOHfqtM92EhSAOq2TegucmKc3mwtmQO9lSwE7ad/128/2S54S+e/4XTDwnaQGpGln5PZbZpUxjFfcJkuJZVQ6hL8pskG9g/hAsd8G8hDdzuZoz3CYK/bdOe/sZdkA+zAxPL51pAiuY9Sr2fofjIa0HlsB35A+QvWbSfJg2ZxyLmmyNat+ym7GnmMHAXwEcy3nG8beTHVKW3mYXIWj+bp7uyo02LHblzJmq1FDgraRc4gKX195reXyfB7K6ZgzHYNeVGVvj7ddphkdbhzpKNNKs/WpSLGy+SAmAvwQYJ8B+vJivcT1GdYtVCbJudadDfqe/1mysR9jvoc5PQ8qZo98kFwjMxX1GGbzzTpou/AB6erTQ6Seph6B77FruW1+JB1tciI5hHqcS0Pk3n1WqfJDNIkyWGqQ0b7flKXbQMGP5g56OdLDEeZscXaq2QebCNeV8h3sIH0Bg9S/vocIb31kcz9/BT1mPN7nsyT1CnXsLR3ki1Npa9Nv9oDnd9JMU56x3UoKHKEJEyPjDUkn6v0F3+Smd6BYoK8kevwYhrEg/YxrFgyW7eXX4eV4k8xAj3BCbJSV3rYu488DKZOzFhLpgFKX5tBB8FdmEg92xR56ZXuDR4hh0Y1diQ2QR6w0m+bh4ArB/y7DpspUri1jpV2+t1Od35Xk9rn2kEWSEpem5Okg9S4Xvoayge/Y6SEtwsdc20mAaEOK4NVte72rM2r/vaao7tAcgdlzyU5SabIGjUc/jRlh1bHgT/AIe983Z7fKAW/+UHQnuBcU8AfUjYINmZhZIIEnpI3+h6S/2Svb661jG7wmx8EnROcq0V2a5QuszXUZfbHyEJDqSTnabKdbfugf9Eh1J2PHYU5v6XaaRo679QHV5BtdKVekofJnvOhS5ZukyzvUukUJ8mbvU610erkJpq92ttrOwLcuKpvtLnWU3aB7AipuD40O3rawPWU20HQXU53vu/NWiQhuIl5fv24b65Y+VfbaFNkYaLUffMq8F6GZBrrXZQ7r/cY6d00NpdolTbRrB0e/W73Y2L8YsZJQYxSI4enGILdPJdSruLE02R7jxbWJln/pYNM3dttDNFwq4D3UK6D8zI1Lqp6MWV6F9PAs2T44o27sBa5cYe5sEFV7VVSm3IohlsFtElP7HnKLI48AFw08N+yR+vJubglbthHyJnBWtx6Uh6qdHAZlvYQLqAt5XLKVW+/mxpdnykytKp6laib5rJt8L/iUGuRuZtRzvdbyb31MewFnk+L9MR2U/29dZoUMim+0NkiNf1KLJHfT86S1fltJZWcSweVYWuP4v21HFvIsLTq63OavNiLvqRupMzS+B14Gthy7cLe30raNEmn0tIuIHm3VV+jI+RArMq1yA6LqqvKnibnw64f/K/YCFPU8wCjYWn7cK/wcm0A7qH60eBBsgZQaU9wG2UmQLvVXLQ8H6V8EBn2dkPP3/roKtUTfIRM9VRiLTl9vsph1WnyxRr8lm8D9ToOcVjbfTji6MUFVL91bhq4iwoWRcbIvEjVdf3uJV+slm8H7vftRztCdjdp+TaSF0eV1+kkcDMDLJzQIpuSqx7jfx17fitxO+WDR1PaF3r87pVn9k6qvU6ngfczoPnA7cDeCn+ZaTK2d29m79aSvZOlA0dT2l5qkHM2hDZS/TnET5Ik7b6apPqdBA9Twy0vQ2InVnzpZztMCoSqdxdT/VkjD9LHkvoTwGcr/gWeIIUV1Ls2KfBp7l//2jQ5ttGdIStzKanMXuU120Wfitz+JtVWdd5PJp292VZmDdkrWTpoNK3dRcMO6qlQi5zEWGWlqFeB61b7wS+l2vNCX8aSVqu1kXIlyZrc9mEmwmq9h2oT819kFeWzqj405yQpoz909f9rZjsOfwfRprHq0GqNAR+mujS6abJttucFrBaphlFl8NvV64fUgj5M+WDR1PaBHq6DFlflGeHTZEdUT1NqV5GCh1V9wNtwz2W//DfKB4qmts/2cB20uCmSp1pVB+tZMge5LGOkIGRVN9WD5KwK9cddlA8UTW1f7+E66Pw2UX2cWXJ6bYyc/lTVh9qDBU37aRIPPRpkewDPD+6ni6g2PeZTLBEE30V1q777yVF36p8NlCtTPgrtEWpUir0h3kt1WQv7OM/JclNUWz3ko3iIUb9tofqE01FqTwCbl3sxtCxjVFu27T4WWG9oA39INSszp4EvY7rLIGyj2v3ao9aeBC5c9tXQco0BX6GaQisnyTEeczpfl1BdguIP8KyFQbkYiyAMsu3F/emDsoXqpm/2kWflF7kxb3RaFdbhqq+kuTZRXeHZX8S7bgB8hiQnnqjgP76x899aW8F/a9ScAc6W/hANdpZ8x+qvdSTHsoqthm+Q+PPc/L+YIKXuqxpOfBGTn/vNRZDBNhdB+m8N2QhR1TW8Exhf7MO8A3i6og9yEvgDXAnuJ9NgBttMg+mvNokBVW2Lewq4bKkPdFNFH+YcOdJuZ2/fmc7DROjBtgc4T+9BPdtJtUfr3sgyOlwtqq0nt49UMFF/VH0Owyi1r/VwHXR+26m21N436aEgwuVUm092PxWe69lwFkMYXPtMD9dBi7uQajddPMkKSplVfQLc3bjPsh8shzW4Zjms1Zuk2hFm96S4FX3QL1FdyZpp4PN4+tZqbad8oGhisyDq6k2RI0arjCm3sYqjDLZS7c6C48AfrfTDCrAk/qCaJfFX72byjFd1zfbSh11nV1PtA3WcrNa4V3hl1gDfonzAaFrzUKSVGyMV5qsMfi+Tws6rNk4KJVR5zsRBchqdOYK9a5Oajp4L0r/msZgr1ybPcpXpLtMkv7Bvnagx4J4Kf4FzZMhhvcCV8WD0/jYPRl+591LtSXDnyAio7yPIS4FHK/5F9gNX4Ju3V2uxKkw/215cnOtVixQfrXo++gd0Kr0MwnVUO44/R/a2uvrWu9spHzia0r7Q43evPLNV70s/Rs4eHpg21U9mniOnOm3HnmAvdpAbonTwGPZ2hBwVoeVpkVFbVadKdttxKqoyP0mqt1Y9yf4E8HYMgsu1gWqz7Zva7qO6OnXDrkWKDVTd85sG/pQKV+k3UebhehyHw72o8qyFprYbev7WR9fl5Bmt+hrtJvmvlbqYajcznyOR/mnylrEnuLQpql+Ba1LbhzUrl6NFOibPUv3I8EUKHlPw28CrS3zAQbQnyNtGS7sVcwJX0rq5f1radvJMVn2NDgL/poLf77xuoPpFkXPk7Xw19gSXspUyN+ewt0ex+vNSWuQZrHokeI4s8H1w8L/i0iaBz1FdVdfZ7XngWtwxcj4t4OPYC+ylTZPtmL5cF9cmKSdVr/aeI7Hms9SoetQa4OuUuVn3Ax8a/K841NYBD1M+sAxLexAP7VrKhylXdOMOargvewvV1vma3Y6RFc/afSk10SI95RLztcPWDgLXYO9vMZOkd1wqx/Rb1HhqYitZCSrxxRwhRQCsIrOwNqnvWDrA1L19EadUFjNGFtVK7TN/ij6Utxq0EomQ3TZNzm2oPCdoSGwkB/uUDjJ1bbux5t9iNpJnq9Rc8uOkHkHtdVeGSuWfTZPabcVyg2qsu0HdSjFvbofxcK7FXEwOFSoV/PaR2n5DMy3RAq6n7JzTk7h/eDEfwyA4ux0hc8iaq0WeoScpd20OkpJaQ/cct8khMlUWQpzfnicrxJ7lOtcEsItqD72qaztN5o69R+YaJyu9L1Lu2uwnmy2Gdk62+yWWvMEPk3NGvMHnWktSl0Y5P3CapFRY62+uCXJ+R8lRwjRJdG7EouaNJBCVvNmdF3yzNZSd2K5D8HOv71wXU/5MmcPARwb9i1ZpgtToL7FlbvYNv4csAjTirdInmxm9INgNfptW//U1xhipe/gkZe+F42TnUm12efRL93ClkkHwHJlX+DgOiWebIsPhUZgTPI09v/kmgE9Qdr7+HEmu/jgN7qCMky+69HD4OHkILmIIV5cGZC1ZGGlyFelusrxzftEiz8DXKN8xOQzcRIODX9cE+UVLPwzngEfItifFBM1NkTlMUl3s+c/YSQ4RKn1tzpF1gsYNe8/nRuqxN3Wa9ArcATDjnTRrx8huTHKebSP1qRP5KiOag9lNkSk9HD5HyuvsJoe5DG3OUR+1yENyO/V4Sa3m4foibo3sGiMvt/spU75uoesz0nm6beB9lCurM78dJKvVlkKKNqki8xD16C0st02TklbX4Autay1ZhKzLC20/2S028tenW1ixLgd5nyQPz3ZG+M00S4vUE7yJbEivcyCcJpWcP9b5zC5w5R6+grzE6tDrO0cOmr8Wr88vlDpF/nxtHzkTwnSJaJFyZ7dQz4OW9gGfJuWSfLBiDflO6nS9XiYB2Wu0gEuo31m2T5DN2CO1QrWEKZKpv5uyaTNHOp/hBnxRzTZB7tlSZekWa7vJThOdxzZSWbpOSbkHyWHwW3HOYrYNwA7gNjKsOcxgh8jTnf/GXrK4cWXnMyja5B79CvWZ6ztHnuVvAhcO7ldvlnXkpPc6BcFzpLrMJzCRdiFTZNHhFrKX9GX6EwynO/9f3yTDuWvw+1/IWnJvljikaKngdzt5pmvnl0p/gPNYC/xHMvlep+HnKeAxkkf118BrZT9O7bTJ9VpD0k8uAd5G9hyvJ5Py451/rzsPdBY4A5zotFeAZ8j0w2PAC8DrwNHOv6sZU6RY6O+T4WWddlIcJc/JH+NzsiJtsqJXeo/iQu0IqTDjnMbyTZAguIVMdVzcads6/9t66vWyq7tLyD1Yx+2LB0mCs1NGfXAF9U3BOE4OG7oML7YGr03utS9Rfv/uQq2binT5oL6AUdQiPYX7qN+8YPeiP0uKCVyIgVD91yY95V1knq+OnYHTwD1YZGRg1pMT4et48bttH6lAvXVA34FGz1ZyT+2j/P19vk7AZ8gzqgEaJ3lfpc4fXu6b8HmyIlq3iWkNhzFy79xK7qU6jny67WlGfE9v1VokB+wJyl/8pdpe8ma02oyWayO5Z/ZS/v5dqj1OKkk75C1gHckxquMq2Px2hOQ2XolvSr3ZOLk3vsxw3M/HSAK8hUMKmyJltfZT77nBbttPKvDuJDePb87R1SL3wLXkSII67YVfrE13PucHcfthrWwH7qX8DdJLe4DkOXo4z+jZTJL8h63w7D1YXLa2NpBJ4zomTi/WTpJJ7s+TjH7LODVTt6zYVcAXyIHjdV7YmN8OkkU9V3lrbgz4TYZjAnl+O0besDfijdYkG0hP/16GY35vfnsSi5cOnTWkYkgdSu6vpB0n80LvJ9vEvPmGR5tcsw+Qa1jHHRvLaa+S3qpzfUNqkry59jAcCyQLtZMk3ed24GrSm3AVuX7GSarTNWSb2h7qU4G51zZN7rnrcG92I2wivcEmHPe4lwTD6/GwnzrYSKZcbqc+xzqsph0hvT4X5hpmghTvfIThfTPPbsfI4smdJAv/MkyrGbTuQsZlJPXqLnINhnFeb347CTyMeaqNt5EU1mzCTTu77SeT7LeSofJkv74wsYZ8p7vIdzxMWQbLaUfI+TcjN6Koc0HUQbuEXPQdNHOe4wTwd+R4gceAnwI/A94o+aGGwCTJ0dtK7pF/DlxKM3tFbwDfBj4J/KjwZylilAMgZMh4FXAzzV5pPUqqLL9EbvTdJCge6vzdCVKReZR0K1dPkPvgEuDdpJTTBSQNqam96DPkZfhJUtX8UNmPU86oB8CuC8jWnt9ldPLvzgDPAT8mvcPHSRn6n5ES9E0LiG0yxNtKenhvI7Ubt5EJ/6a+/OZ7BfgT4L8DPy/8WYozAM5ok7f/75H5nloe4jJAJ2a110kgfIyUOvoZM73F18nQ6Sj1CZJt0lvrnkUySXp1W4BfIWWltnT+boIMZ0etRNkB4K/IHPHfU59rV5QB8M3GSQn+/0r2PLqqmoOIXiNB8BUSBF8jPYh9ZGh9iDxkBzp/9xr9O8CoRYperO20dZ0/LwB+mfTap0iAW9/5+zV47SCB7nvkfv4uecGpwwC4uDbpCf4eCYSjMkTqpzeY6S0eJSfqnZnXIN/t7DZGenHdXl0TF6kG7RQJeLvIQoc9vgUYAJe2gZQr+h0yRB61oZOGyymy0PUF4Bukx65FGACXbw3Zl/tbJBFWqpvvk214/5NMU2gJBsDedHcCvAf4D2RyvYn5YRoeJ5jp8f0FmYP18HgN3EZS7WMYziWxNa9Nk9Sl9+N5MypojJS3v4tmFFuw1bsdJvfaNTgfvWoOgftnCrgc+Ldke52FCdQvZ0ha0bfJHN/fdv5Zq2QAHIy3A79BSlZtwUColTlLdul8lRyk9cOyH6d5DICD0yYLJjuBf02CokcIajkOkUIWfwb8JVnYMI9vAAyA1Zgku0v+BSmeaSDUQg4A/4vM8X2XJI9rgAyA1ZsE3gv8OvBORm/PseY6AHyHnB3yDQx6lTIAljNJdpa8iwyRu5v1nS9strMkSfmnwB3A/yUVeQx8BRgA62GM7Df+p2Tb3TZMcWiaUyTQ/SU5+vR7nf9NBRkA66VN0mm2kCHylaR23YaCn0kr93NSY/FvyNktPyPpKy5o1IQBsN6myHa7K4F/BrwDq9LU3RmSp/ctMrz9Eebs1ZYBcLisIyX8303Sai6kuWXbh8VR4CckbeVeUmL+QNFPpGUzAA6nNtn/uYnsPnk36SlOkdp59hIH4wypb3iIzOfdR+byniNFYR3aDhkDYHNMkSHypcA/6vy5BRdTVusUWbF9jJwp/RhuRWsMA2AzTZChcTco/ioJiBuYKStvL3GuM6Rnd4gsXvyQHBT+fRLsjuKRoo1jABwd46SE10aysvxWchRkNzCOopdIj+4xYA9ZsX2h0zw7YwQYAAXpEW4jR0a+lQTI9Z3W7TEOW+HXE8z06F7ptGdIoPspORltZM/DVRgAtZDuoURTzBxOtI70Hv8BMweHrye7V8aYOdCo1Wnzf4bl73LpVjQ+0/n57AI/nyHzc68zE+BeIsd4vkBWYruHMXWHsCYeaw4DoFarTXqIU8wEzHHmnujWXZnuBsW3zPoZ5ga408wEuDeYe7Jc9+fusZuHcOVVq2AAVCnze4OeYyFJkiRJkiRJkiRJkiRJkiRJkiRJkiRJkiRJkiRJkiRJkiRJkiRJkiRJkiRJkiRJkiRJkiRJkiRJkiRJkiRJkiRJkiRJkiRJkiRJkiRJkiRJkiRJkiRJkiRJkiRJkiRJkiRJkiRJkiRJkiRJkiRJkiRJkiRJkiRJkiRJkiRJkiRJkiRJkqRR9f8Brj/SDhaNDxoAAAAASUVORK5CYII=;fontColor=#595D6B;" vertex="1" parent="1">
          <mxGeometry x="490" y="190" width="20" height="20" as="geometry" />
        </mxCell>
        <mxCell id="pNwCzHMw6aw-D7r6jr79-17" style="edgeStyle=orthogonalEdgeStyle;rounded=0;orthogonalLoop=1;jettySize=auto;html=1;exitX=0;exitY=0.5;exitDx=0;exitDy=0;entryX=1;entryY=0.5;entryDx=0;entryDy=0;entryPerimeter=0;dashed=1;fontColor=#595D6B;" edge="1" parent="1" target="pNwCzHMw6aw-D7r6jr79-5">
          <mxGeometry relative="1" as="geometry">
            <mxPoint x="569" y="200" as="sourcePoint" />
          </mxGeometry>
        </mxCell>
        <mxCell id="Qu3-ATc50QOktxV0pUjC-13" value="&lt;font face=&quot;Courier New&quot;&gt;Kubernetes&lt;br&gt;Database&lt;/font&gt;" style="aspect=fixed;sketch=0;html=1;dashed=0;whitespace=wrap;fillColor=#2875E2;strokeColor=#ffffff;points=[[0.005,0.63,0],[0.1,0.2,0],[0.9,0.2,0],[0.5,0,0],[0.995,0.63,0],[0.72,0.99,0],[0.5,1,0],[0.28,0.99,0]];shape=mxgraph.kubernetes.icon2;prIcon=vol;labelPosition=center;verticalLabelPosition=top;align=center;verticalAlign=bottom;fontColor=#595D6B;" vertex="1" parent="1">
          <mxGeometry x="440" y="176.92" width="39.67" height="38.08" as="geometry" />
        </mxCell>
        <mxCell id="64bBHuUa2oHp0DUWRqnR-2" value="&lt;font face=&quot;Courier New&quot;&gt;Client&lt;/font&gt;" style="aspect=fixed;sketch=0;html=1;dashed=0;whitespace=wrap;fillColor=#2875E2;strokeColor=#ffffff;points=[[0.005,0.63,0],[0.1,0.2,0],[0.9,0.2,0],[0.5,0,0],[0.995,0.63,0],[0.72,0.99,0],[0.5,1,0],[0.28,0.99,0]];shape=mxgraph.kubernetes.icon2;prIcon=user;labelPosition=center;verticalLabelPosition=top;align=center;verticalAlign=bottom;fontColor=#595D6B;" vertex="1" parent="1">
          <mxGeometry x="160" y="350" width="40" height="38.4" as="geometry" />
        </mxCell>
        <mxCell id="64bBHuUa2oHp0DUWRqnR-3" style="edgeStyle=orthogonalEdgeStyle;rounded=0;orthogonalLoop=1;jettySize=auto;html=1;exitX=0.995;exitY=0.63;exitDx=0;exitDy=0;exitPerimeter=0;entryX=0.005;entryY=0.63;entryDx=0;entryDy=0;entryPerimeter=0;fontColor=#595D6B;" edge="1" parent="1" source="64bBHuUa2oHp0DUWRqnR-4" target="64bBHuUa2oHp0DUWRqnR-11">
          <mxGeometry relative="1" as="geometry">
            <mxPoint x="410" y="373" as="targetPoint" />
          </mxGeometry>
        </mxCell>
        <mxCell id="64bBHuUa2oHp0DUWRqnR-4" value="&lt;font face=&quot;Courier New&quot;&gt;Kubernetes&lt;br&gt;Control-Plane&lt;/font&gt;" style="aspect=fixed;sketch=0;html=1;dashed=0;whitespace=wrap;fillColor=#2875E2;strokeColor=#ffffff;points=[[0.005,0.63,0],[0.1,0.2,0],[0.9,0.2,0],[0.5,0,0],[0.995,0.63,0],[0.72,0.99,0],[0.5,1,0],[0.28,0.99,0]];shape=mxgraph.kubernetes.icon2;prIcon=api;labelPosition=center;verticalLabelPosition=top;align=center;verticalAlign=bottom;fontColor=#595D6B;" vertex="1" parent="1">
          <mxGeometry x="320" y="350" width="39.58" height="38" as="geometry" />
        </mxCell>
        <mxCell id="64bBHuUa2oHp0DUWRqnR-5" value="&lt;font face=&quot;Courier New&quot;&gt;encrypted data&lt;/font&gt;" style="whiteSpace=wrap;html=1;shape=mxgraph.basic.document;fillColor=#4BFCD2;strokeColor=#4BFCD2;labelPosition=center;verticalLabelPosition=bottom;align=center;verticalAlign=top;fontColor=#595D6B;gradientColor=none;" vertex="1" parent="1">
          <mxGeometry x="485" y="355" width="30" height="36" as="geometry" />
        </mxCell>
        <mxCell id="64bBHuUa2oHp0DUWRqnR-6" style="edgeStyle=orthogonalEdgeStyle;rounded=0;orthogonalLoop=1;jettySize=auto;html=1;exitX=0.995;exitY=0.63;exitDx=0;exitDy=0;exitPerimeter=0;entryX=0.005;entryY=0.63;entryDx=0;entryDy=0;entryPerimeter=0;strokeWidth=1;fontColor=#595D6B;" edge="1" parent="1" source="64bBHuUa2oHp0DUWRqnR-2" target="64bBHuUa2oHp0DUWRqnR-4">
          <mxGeometry relative="1" as="geometry" />
        </mxCell>
        <mxCell id="64bBHuUa2oHp0DUWRqnR-7" value="&lt;font face=&quot;Courier New&quot;&gt;clear data&lt;/font&gt;" style="whiteSpace=wrap;html=1;shape=mxgraph.basic.document;fillColor=#f5f5f5;strokeColor=#666666;labelPosition=center;verticalLabelPosition=bottom;align=center;verticalAlign=top;fontColor=#595D6B;" vertex="1" parent="1">
          <mxGeometry x="246" y="354" width="30" height="36" as="geometry" />
        </mxCell>
        <mxCell id="64bBHuUa2oHp0DUWRqnR-8" value="" style="shape=image;verticalLabelPosition=bottom;labelBackgroundColor=default;verticalAlign=top;aspect=fixed;imageAspect=0;image=data:image/png,iVBORw0KGgoAAAANSUhEUgAABkAAAAZACAYAAAAhDI6nAAAABmJLR0QA/wD/AP+gvaeTAAAgAElEQVR4nOzdedStV0Hn+e8dMhCmJBDIBBqQSQRlHgSEECIgAYJEBFu6RIuS0pKytAt7ubqkHaroqmoFhxYURcQJUKZYyhAJSEQEBIEgc5ghkEBIyJx7k/7juVlJNMN9x/2ccz6ftX4rLBaL+3v3c+57cvY+e+8CAAAAAAAAAAAAAAAAAAAAAAAAAAAAAAAAAAAAAAAAAAAAAAAAAAAAAAAAAAAAAAAAAAAAAAAAAAAAAAAAAAAAAAAAAAAAAAAAAAAAAAAAAAAAAAAAAAAAAAAAAAAAAAAAAAAAAAAAAAAAAAAAAAAAAAAAAAAAAAAAAAAAAAAAAAAAAAAAAAAAAAAAAAAAAAAAAAAAAAAAAAAAAAAAAAAAAAAAAAAAAAAAAAAAAAAAAAAAAAAAAAAAAAAAAAAAAAAAAAAAAAAAAAAAAAAAAAAAAAAAAAAAAAAAAAAAAAAAAAAAAAAAAAAAAAAAAAAAAAAAAAAAAAAAAAAAAAAAAAAAAAAAAAAAAAAAAAAAAAAAAAAAAAAAAAAAAAAAAAAAAAAAAAAAAAAAAAAAAAAAAAAAAAAAAAAAAAAAAAAAAAAAAAAAAAAAAAAAAAAAAAAAAAAAAAAAAAAAAAAAAAAAAAAAAAAAAAAAAAAAAAAAAAAAAAAAAAAAAAAAAAAAAAAAAAAAAAAAAAAAAAAAAAAAltWO0QUAAGCNjqi+vfqW6qjqyOp21TH7/nnQvhxSHVDdorqsurg6v7q0uqi6oDqvOutf5LPV5dv208DWOLzp78jVOW7fP2/T9HfjltWB1a275u/LpdUl1ZVNf1f2Vufsy9nVV/b9589WH6s+XV2xXT8QAACslQUQAADm6sDqvtWDq3tW99iXw7f4z91bfaZ61778ffWBas8W/7mwXsdW968ecK1/HrYNf+6epr8rH68+VL1nXz63DX82AADcJAsgAADMxc2r46uHVQ9tmsg9eGija1xUvbf62+oN1T9WVw1txCo7tnp89dimBcKjxtb5V75Svbt6Z3Va9b6mXSUAAAAAACvjLtVzqzc1Hb9z1YLk89VvVSc27VSBrbSrekT135p2I41+/a8151avrP5t0+INAAAAAMBSukv1/KY7BEZPzG5GvlH9TtOxQ7CZvrP6f6svN/51vlnZW51R/ccshgAAAAAAS+CI6ieb7tQYPQG7lfmn6ieqQzdn2FhBR1b/qem1NPr1vNW5svq76jlNl7EDAAAAACyMB1R/2GIdb7UZuah6cXWnjQ8hK+K7qldUlzf+9Tvq78zLmu7/AQAAAACYpQOrp1d/3/hJ1dG5omlS+9s3NKIsqx3V45ouCh/9Wp1Tzqx+rDpo/UMLAAAAALB5Dqr+ffW5xk+gzi17q7+o7r3u0WWZ7KieWn2o8a/NOedL1c/lSDkAAAAAYBALH/ufPdVLq6PWNdIsgxOr9zb+tbhIOb96QXWbdYw3AAAAAMCa7ayemYWP9eTC6r9Uh6x51FlUD65Ob/xrb5Hzjer/qm65xrEHAAAAANhvD6/e0/gJ0UXP56snr3HsWSy3r/6gurLxr7dlyVern266bwgAAAAAYFMcV7268ROgy5bXVEev4Tkwf7uq/1Cd1/jX17LmY02XyAMAAAAArNuu6meqixo/6bms+Ub1nKYLslls96/e3/jX1KrkDdWd9+vJAAAAAABcy3fl0ubtzJuajk1i8RxU/bfqisa/jlYtlzbdq3PATT4lAAAAAGDlHVD9SiZzR+TL1WNu+hExIw+qPtz4186q5wPVfW/iWQEAAAAAK+xuueR8dPY27SbYfRPPirF2V79U7Wn8a0amXFH91+rgG3luAAAAAMAKemb1zcZPYsqUd+d+g7m6Y/WOxr9G5Prz4ereN/j0AAAAAICVcevqNY2ftJR/nfOqp97wo2OAU5qey+jXhtx4Lq5+/AaeIQAAAACwAu5Zfazxk5Vy4/n/qgNv4BmyPXZXv97414KsLa+pDr+e5wkAAAAALLEnVec3foJS9i9nVEdc75Nkq92mOq3xrwFZXz7ZtNgLAAAAACy5ndV/r65s/MSkrC2faLqonu1z3+qzjX/2srGcXz0hAAAAAGBpHVz9aeMnI2VjE7mP/5cPli3xg9VFjX/msjm5snp+tSMAAAAAYKkcWb278ZOQsvFcUf1kbJVd1Qsa/5xla/Kn1c0CAAAAAJbCPavPNH7iUTY3v9Y0Wc/mObx6c+OfrWxt/qE6OgAAAABgoT2w+lrjJxxla/KGfJt9sxxXfaTxz1S2J1+oHhAAAAAAsJCOr77Z+IlG2dq8ozosNuL+1Zcb/yxle3NR9b0BAAAAAAvlCdXFjZ9glO3Jh6tjYz1OrC5o/DOUMbmsekoAAAAAwEI4uemi7NETi7K9+XR1l1iLZ+fvitTl1dMCAAAAAGbthOrSxk8oyph8rXpw3JQd1fMb/7xkPtlTPSsAAAAAYJYe0XSm/eiJRBmbC5ruf+H6HVD9YeOfk8wve6sfDwAAAACYlQfmHgO5Ju41uH6HVP+r8c9H5psrq58JAICFtWt0AQAANtW9q7dUh44uwmzsaloA+VT1ocFd5uKw6o3ZHcON21Gd2HQk1jsGdwEAYB0sgAAALI+7VG+tjhhdhNm5ehHkvOofBncZ7cjqtOoBo4uwMI5v2lX3rtFFAABYGwsgAADL4Y7V6dWxo4swWzuqx1YXV+8c3GWUOzUtEn776CIsnBOrz1QfGNwDAIA1sAACALD4Dq/+tmlyF27Mjuox1e6mBbNVcr+mn/kOo4uwkHZUj2/aQXXW4C4AAAAAsBIOqP6m8ZcFy+Llt6qdrYZHVec3fsxl8XNR9ZAAAAAAgC33242fEJTFzR83LaIts5OrSxo/1rI8Oae6ewAAAADAlnlu4ycCZfFzanWzltNPVHsbP8ayfPlcjlMDAAAAgC1xYnVF4ycBZTnytupWLZfnNX5cZbnzoeqwAAAAAIBNc4/qG42f/JPlynuqI1p8u6uXNn48ZTXy5mpXAADMkn9RAwBYLIc3XXp+9OgiLJ2jq6dWb6y+NrjLet2i+ovqaaOLsDLu3HSE3FtGFwEAAACARba7emvjv/Esy51zqoe0eO5YfbDx4yermacHAMDs7BxdAACA/faL1aNGl2Dp3bY6vcXaRXHv6u+qe40uwsr6vep+o0sAAAAAwCI6odrb+G85y+pkb/XTzd/J1YWNHy+RTzctIAIAAAAA++l21ZcaP7knq5k/rg5pfnZVz8/CoMwrf9N0XCEAADPgEnQAgHnb2XSp83eNLsLKulf1fU2XPJ83uMvVblu9tnpWtWNwF7i246pbVG8eXQQAAAAA5u7nGv+NZpGrqnOrExvvQdXnGj8eIjeWHwoAAAAAuEEPrC5v/ESeyNW5snpRdWDbb2f13OqyNfQVGZULq7sFAMBQtosDAMzTodX7q28d3AOuz/uajp/6wDb9efeoXlo9dJv+PNgM76m+u7pidBEAgFXlDhAAgHn6o0z2Ml9HVT/adDn6u9q6Cd5Dqp9v+vtw3Bb9GbBVjmnaLXXa6CIAAAAAMBfPaPzxLSL7my82LYYc0ObZXf1I9fkZ/HwiG8ne6vgAABjCEVgAAPNy++rM6raji8AanVW9sHp5dcE6/z9uVf3v1X+s7rRJvWC0L1bfWX1tdBEAgFVjAQQAYF5eXT11dAnYgIurN+zL6dXZN/G/P6p6VHVS9cSmY69g2byuOnl0CQCAVWMBBABgPk6pXjW6BGyyLzXtDjm7aWfIVdWtqyOrOzctgMAqeE714tElAABWiQUQAIB5uG314ep2o4sAsCUuqe5XfWR0EQCAVbFzdAEAAKr6jSx+ACyzm1Uvq3aNLgIAsCr8ixcAwHgnVb8yugQAW+7Y6hvVu0YXAQBYBY7AAgAY69DqzOqY0UUA2BYXV/euPjW6CADAsnMEFgDAWP89ix8Aq+SQ6nfzhUQAgC3nCCwAgHHuV/12JsEAVs1x1Req940uAgCwzHzYBgAYY2f1d9WDRxcBYIjzq+9oWggBAGALOAILAGCMZ2XxA2CV3bppFyAAAFvEEVgAANvvsOp11c1HFwFgqLtWH6k+PLoIAMAycgQWAMD2+83qJ0aXWELnVadVZ1Qfqs6qvlZdWB1cfXv1uKbdN3ca1BHm4KzqtdXbqzOrs6tLqoOaFmhvX92l+q7qofty0JCmq+Hs6u5NR2IBAAAAwML6rmpPdZVsSq6o/rx6fLV7P5/BruqHqs/MoL/IduavquNb+xfhDqme2rRz7YoZ/BzLmF/d76cBAAAAADO0o2l3wuiJtmXInur329hOjoOrX64un8HPI7KVeWfTLo7NcHT1gqbdCqN/rmXK5dU91/AcAAAAAGBWfrjxk2zLkNOre61x7G/MfauPz+DnEtnsfL36sbbm6OPbVP+zumwGP+ey5G/W9AQAAAAAYCZuVn2u8RNsi5wL2rrJ3FtWr5jBzyiyWTm1abfGVrtL9aYBP9+y5pS1DT8AAAAAjPe8xk+sLXLeXd15zaO+dv+munibfzaRzcwl1U+2NQuFN+ZHcizWZuSzTXeuAAAAAMBCuE11XuMn1hY1v1sdtOZRX78HVl/egp9DZKvzmeo+jXNc9feNH4dFzy+vdeABAAAAYJRfa/yE2iJmT9POmRGOqf5xPzqKzCV/W92+8XZXv9n48VjkXFrdda0DDwAAAADb7bimyazRE2qLlkuqJ69jvDfTLau/bPxYiNxUfqM6oHl5bnVF48dmUfOGtQ85AAAAAGyvP2n8RNqi5ZvVo9cz2FtgV/XbjR8TkevLZdWzmq8Tc/zfRvKotQ85AAAAAGyP76r2Nn4SbZFycfXIdYz1VnOJvcwt36we2/zdp/pq48drEfP+aufahxwAAAAAtt5pjZ9AW6RcXn3fukZ6e/z7LGjJPPLFpgXWRXGPps6jx20R87R1jDcAAAAAbKnHNX7ibJFyRfX96xrp7fW0pmOHRo+XrG4+WB3b4rlr9fnGj9+i5ZPVgesYbwAAAADYMu9u/MTZouTK6ofXN8xDPKa6sPHjJquX06pbt7iOq77Q+HFctPyH9Qw2AAAAAGyFJzR+wmyR8gvrG+ahHlCd2/ixk9XJa6uDW3z3rL7W+PFcpJxT3Wo9gw0AAAAAm83uj/3Pn1c71jfMw7ncWbYrL6t2tzwenF1Ua80vrWukAQAAAGATndT4ibJFyfuqm69vmGfj7rnXQLY2L2g5ndR098/o8V2UXNxi3v0CAAAAwJLYUb238RNli5AvVsesb5hn57imi4pHj6ksV/a2/Hc/PLvx47xIecn6hhkAAAAANu6JjZ8gW4RcXj1knWM8V0dXZzZ+bGU5cnn1jFbDbzZ+vBcllzctuAIAAADAttqRuz/2N89b5xjP3WHVOxs/vrLYubB6XKvjgOr0xo/7ouR31zfMAAAAALB+T278xNgi5K3VznWO8SK4efWmxo+zLGa+Vj201XOb6qzGj/8i5PLqTusbZgAAAABYux1NF3qPnhibe75c3X6dY7xIDqpe0/jxlsXKp6u7tbruX13S+OewCHnpOscYAAAAANbscY2fEJt79lYnrHeAF9Cu6mWNH3dZjHyw6R6ZVfesxj+LRYhdIAAAAABsm7c1fkJs7vkf6x3cBbaj+tXGj73MO2+vDo2rvbLxz2QR8nvrHWAAAAAA2F8PbvxE2Nzzsepm6x3gJfCz1ZWNfw4yv7yqOjiu7dDqs41/NnOPXSAAAAAAbLnXNX4ibM7ZWz183aO7PJ5SXdz45yHzyYuqnXF9HlbtafwzmnvcBQIAAADAlrlb0wT/6EmwOefX1j26y+fB1Vcb/0xkbPZUz4mb8ouNf1Zzz57qLusdYAAAAAC4Mb/X+AmwOeeT1c3XPbrL6e7VWY1/NjIm51cnxv7YXb2z8c9s7nnJegcYAAAAAG7IMdVljZ/8mmuurB653sFdckdW72n8M5LtzWere8Va3K26pPHPbs65pDpqvQMMALDsnDkLALA+P10dOLrEjL28etvoEjN1dtPi0KmDe7B9/rHpCLQPjS6yYD7WdBQWN+zg6rmjSwAAAACwPG5dfaPx3/yda87PN5L3x47qeblHZtnziuqQWK/d1Xsb/xznnPOrQ9c7wAAAAABwbc9r/ITXnPNT6x/alXRSdV7jn5tsbi6t/l1shvtUVzT+mc45/3ndowsAAAAA++yuPtf4ya655szqgHWP7ur6tuqDjX9+sjn5fNORV2ye/9r45zrnnN10HBYAAAAArNsPNH6ia665snrE+od25d28+tPGP0fZWN5U3TY228HVRxv/fOecf7vu0QUAAACA6p2Nn+Saa/5oA+PKNZ5dXd745ylry5XVC6pd//qRsklOaPxznnM+mdcfAAAAAOt0/8ZPcM01F1ZHr39o+RceWX2x8c9V9i/nVk+4vgfJpvuLxj/vOeep6x9aAAAAAFbZKxo/uTXX/NIGxpXrd5tM9i5C3pjFv+30LdXFjX/uc80/rH9oAQAAAFhVR1WXNX5ya475anWr9Q8tN+GZ1QWNf85y3VxSPa/aecOPji3yC41//nPOQ9c/tAAAAACsov+78ZNac81PbGBc2T93rt7W+GctU95V3ePGHhhb6uDqrMa/DuaaV65/aAEAAABYNQdVZzd+UmuO+VR14PqHljXY0bQb5GuNf+6rmouadn24aHq8Jzf+9TDXXFHdYf1DCwAAAMAq+TeNn9Caa1y4u/2Orl7T+Ge/ajm1uuN+PB+2z5sb/7qYa16wgXEFAAAAYIW8u/GTWXPM3zftSmCMJ1WfaPzrYNnz6Sz0zdV9qr2Nf43MMedWh6x/aAEAAABYBfdv/ETWXPPI9Q8rm+TA6merbzT+9bBsuaD6P5vum2C+/qjxr5W55tkbGFcAAAAAVsBLGz+JNcecvpFBZdMdUb242tP418aiZ0/1u9WRa3oCjPKt1aWNf93MMWdmlx4AAAAAN+DQ6sLGT2LNMd+zgXFl6xxXvaTpEuTRr5FFy97qVdXd1zzqjParjX/9zDWP2cC4AgAAALDEntv4yas55m82MqhsCwsh+x8LH4vvsOprjX8tzTF/uYFxBQAAAGBJ7aj+ufGTV3PMIzYwrmyvu1W/U13U+NfN3HLRvrG527pHlzn5uca/puaYvdWdNzCuAAAAACyhRzV+4mqOsftjMR3WdFn6pxr/GhqdT1U/s29MWB43q77U+NfXHPP/bGBcAQAAAFhCr2z8pNUc8/CNDCrD7axOqv6q1Toe6/Kmo4CesG8MWE6OLbz+fLU6aAPjCgAAAMASObJpwnT0pNXcYvfHcjmi+onqHdWVjX99bXb2Vn9bPae67SaNGfNmF8gN5+kbGFcAAAAAlsjPN36yao45YSODyqzdsfrP1Rkt9s6QK/b9DD9b3WFTR4hFYRfI9eftGxlUAAAAAJbDjuqTjZ+smlvev29sWH43b1rsekH13sa/9m4qn6peUp1SHboF48FiObj6QuNfl3PMPTcwrgAAAAAsgeMbP0k1x/zARgaVhXbH6mlNCyJvrs5p3Ovwq9Wb9nX5gX3d4F/6qcb/zpxjXrSRQQUAWES+xQcAcF1/XD1jdImZ+WR196Y7FaCm46Xu0/S6OLb6ln3/3R3a+H0b51af35fP7vvnR5t2IX1hg//frIaDm3YGHT26yMx8ozqmunh0EQCA7WIBBADgGoc1XaB78OgiM/PjTUcMwf64WXVU09+nA6pbVIdUB1W32ve/uaC6tLqk+mbT3R3nVWfv++9go34qOx6uz7Oql40uAQAAAMD2+8nGH1Eyt5ydBSFg8Rxcfbnxv0PnlndtZFABABbNztEFAABm5FmjC8zQC5u+qQ+wSC6tfmt0iRl6UPWdo0sAAAAAsL3u0/hv5s4tF1SHbmRQAQY6vOmItdG/S+cWR4MBACvDDhAAgMmPjS4wQ3/QdGkuwCL6evU7o0vM0A813ckDAAAAwAo4uGmibPS3cueUK6u7bWRQAWbgmOqyxv9OnVtO2cigAgAsCjtAAADqKdVho0vMzF9VHxtdAmCDvlj9yegSM+TOKwAAAIAV8abGfxt3bjlhQyMKMB93r/Y2/vfqnLK3usNGBhUAAACA+Tu62tP4yag55cPVjo0MKsDMvK7xv1vnlp/f0IgCACwAR2ABAKvuf6t2jS4xMy9qmhwDWBa/NrrADP1oFrsBAAAAltoHG/8t3Dnl69XNNzSiAPP0/sb/jp1bvmdDIwoAMHN2gAAAq+y+1b1Gl5iZ360uGl0CYAv8+ugCM+QydAAAAIAl9cLGf/t2Ttlb3WlDIwowXwdXX23879o55aLqlhsZVACAObMDBABYVburHxxdYmbeVJ01ugTAFrm0esnoEjNzSHXy6BIAAAAAbK4nNv6bt3PLSRsaUYD5O6q6rPG/b+eUt2xoRAEAAACYnVc3ftJpTvlctWtDIwqwGP648b9z55S91bEbGlEAgJlyBBYAsIoOy26Hf+l3mibBAJbdi0YXmJmd1dNHlwAAAABgc/zbxn/jdk65vDp6QyMKsFje0/jfvXPKmRsbTgCAebIDBABYRb7pel2vrb40ugTANnrx6AIzc8/q3qNLAAAAALAxR1d7Gv9t2znlkRsZUIAFdLPq643//Tun/I8NjSgAwAzZAQIArJqn57Lva/tY9fbRJQC22SXVK0aXmJln5P0RAFgyFkAAgFXj+Kvr+v2mb/4CrJoX5/fftR1dHT+6BAAAAADrc7fGHzEyp1xRHbmhEQVYbG9v/O/iOeXlGxtOAIB5sQMEAFglzxhdYGb+sjp7dAmAgV4yusDMnNx0PwoAAAAAC+Zjjf927ZzyhI0NJ8DCO7D6SuN/H88pT9nQiAIAzIgdIADAqnhAddfRJWbky9UbR5cAGOzy6g9Gl5iZp40uAACwWSyAAACrwuXn1/Xyas/oEgAz8PtNOx+YPKG6xegSAAAAAOyfndUXGn+syJxy9w2NKMByOaPxv5fnFF8aAACWgh0gAMAqeGh1zOgSM/L26qOjSwDMyMtGF5gZx2ABAEvBAggAsApOGV1gZv5gdAGAmXlldeHoEjPy2OrQ0SUAADbKAggAsOx2Vt8/usSMXFT9xegSADNzYfXq0SVm5KDq5NElAAA2ygIIALDsvjvHX13ba6pvji4BMEOOwboux2ABAAvPAggAsOyeOrrAzLxidAGAmTqj+vjoEjPy6OqI0SUAADbCAggAsMwcf3VdX6zeOroEwExdlTuSrm13jsECABacBRAAYJk5/uq6/qjaO7oEwIy9PL8nr82XCACAhWYBBABYZqeMLjAzfzS6AMDMfSk75a7t+Oq2o0sAAKyXBRAAYFk5/uq63lOdOboEwAJwV9I1dldPHF0CAGC9LIAAAMvqYdXRo0vMyB+OLgCwIF5TXTi6xIz4MgEAsLAsgAAAy+qpowvMyBXVK0eXAFgQF1WvG11iRk6oDh1dAgBgPSyAAADLyPFX1/Xm6pzRJQAWiDuTrnFgddLoEgAA62EBBABYRg/P8VfX9qejCwAsmLdUXxxdYkZ8qQAAWEgWQACAZXTK6AIzcnH1+tElABbMlTk68NoeW91qdAkAgLWyAAIALJud1cmjS8zI63OZL8B6vGJ0gRk5qPq+0SUAANbKAggAsGweluOvru3PRhcAWFD/VJ05usSMPGV0AQCAtbIAAgAsmx8YXWBGzqveOLoEwAJzh9I1HlsdPLoEAMBaWAABAJbJznxD9dpeVV0+ugTAAvuz6qrRJWbiFtUjR5cAAFgLCyAAwDJ5RHXU6BIz4pvLABtzVvXe0SVm5EmjCwAArIUFEABgmXz/6AIz8oXqHaNLACwBdyld46Rqx+gSAAD7ywIIALAsduSbqdf26urK0SUAlsCf5ffp1Y6p7je6BADA/rIAAgAsiwdUdxhdYkZePboAwJL4UvV3o0vMyBNHFwAA2F8WQACAZXHy6AIz8oXqXaNLACyRV44uMCN2WwIAC8MCCACwLJ48usCMvLq6anQJgCXyqmrP6BIzce/quNElAAD2hwUQAGAZ3KO6++gSM+L4K4DNdU51+ugSM+IYLABgIVgAAQCWgd0f1/h8jr8C2AqvGl1gRiyAAAALwQIIALAMnjK6wIw4/gpga7wux2Bd7RHVYaNLAADcFAsgAMCiO6a63+gSM+L4K4CtcW719tElZmJ39bjRJQAAbooFEABg0T2l2jG6xEx8vvqH0SUAlthfjC4wI08aXQAA4KZYAAEAFt3JowvMiOOvALbWa6q9o0vMxOOrg0aXAAC4MRZAAIBFdpvq4aNLzIjjrwC21leqM0aXmIlbVN8zugQAwI2xAAIALLKTms4hx/FXANvFMVjXeOLoAgAAN8YCCACwyBx/dY1X5fgrgO3w6urK0SVm4sm5hwsAAABg0x1SXdQ06S/1oI0NJwBrcEbjf+/PJffd4FgCAGwZO0AAgEX12KZFEOpz1btHlwBYIY7BuoZjsACA2bIAAgAsqqeMLjAjr276Fi4A2+O1owvMyJNGFwAAAABYJgdUX2/8sR9zyYM3NpwArMMHG//7fy65wwbHEgBgS9gBAgAsokdVh40uMROfr/5hdAmAFfSG0QVm5LGjCwAAXB8LIADAIjp5dIEZeWXTt28B2F6vH11gRiyAAAAAAGyCndUXG3/cx1zykI0NJwDrtCPvR1fn/KbjKQEAZsUOEABg0TywOnp0iZk4O8dfAYxyVXXq6BIzcavqoaNLAAD8SxZAAIBF88TRBWbktdWVo0sArDD3gFzjcaMLAAAAACy6Dzf+qI+55DEbHEsANuag6oLGvx/MIR/Y4FgCAAAArLQ7N36CZy45rzpwY8MJwCb488a/J8wld9jgWAIAbCpHYAEAi+RJowvMyF9Wl48uAYBjsK7lxNEFAACuzQIIALBILIBc47WjCwBQTQvSe0aXmAn3gAAAs7JjdAEAgP10m+rsavfoIjNwSXVEddHoIgBU9bbqe0aXmIELqttWV4wuAq4VpFkAACAASURBVABQdoAAAIvjCVn8uNqbsvgBMCeOwZrcqnrI6BIAAFezAAIALIonji4wI46/ApiX148uMCOPHV0AAAAAYJEc1HSsxlXSFU3HiwAwLx9u/HvEHPL+jQ4kAMBmsQMEAFgEJ1S3HF1iJt5enTu6BAD/il0gk++sjh5dAgCgLIAAAIvB8VfXcPwVwDy5B2Syo/re0SUAAAAAFsGO6guNP9JjDrmyusPGhhOALbKz+lLj3yvmkFdtcCwBADaFHSAAwNw9sDpmdImZeE/1+dElALheV1Z/ObrETDym2j26BACABRAAYO5OGl1gRl43ugAAN+rU0QVm4tDqwaNLAABYAAEA5u7JowvMiPs/AObtrdVlo0vMxONGFwAAsAACAMzZnat7ji4xEx+pPjq6BAA36qLqHaNLzMRjRxcAALAAAgDMmeOvruH4K4DF8NejC8zEfaojR5cAAFabBRAAYM6eNLrAjDj+CmAxWACZ7KgePboEALDaLIAAAHN1ePWw0SVm4ovVe0eXAGC/fKT67OgSM3HC6AIAwGqzAAIAzNUTqt2jS8zE66urRpcAYL+9cXSBmXjM6AIAwGqzAAIAzNUTRxeYkTeMLgDAmjgGa3JMdY/RJQCA1WUBBACYo4OqE0eXmIkLq7eNLgHAmpxWXTa6xEzYBQIADGMBBACYo0dXtxxdYib+KpNoAIvmourvRpeYCfeAAADDWAABAObI8VfXcPwVwGJyDNbkkdUBo0sAAAAAzMGO6vNNl36veq6oDtvYcAIwyD0b/z4ylzxsg2MJALAudoAAAHPzgOrY0SVm4m+r80aXAGBdPlx9dnSJmXAMFgAwhAUQAGBuHH91DcdfASy2N40uMBMuQgcAhrAAAgDMzZNGF5gRCyAAi+2NowvMxAOrW48uAQCsHgsgAMCcfGv1HaNLzMQHq0+PLgHAhpxWXT66xAzsbroMHQBgW1kAAQDm5OTRBWbk9aMLALBh36zeObrETDgGCwDYdhZAAIA5cf/HNRx/BbAc/np0gZlwEToAsO12jC4AALDP4dVXmo7JWHVfqo6trhpdBIANu1fTsYbUcdVnRpcAAFaHHSAAwFx8XxY/rvb6LH4ALIsPVZ8bXWImjh9dAABYLRZAAIC5OGl0gRk5dXQBADbVm0cXmAn3gAAAAAAr56DqgqZdD6ueb1YHb2w4AZiZpzX+/WUOOSdfxAQAtpF/8QAA5uD46pajS8zEX1eXji4BwKY6rbpydIkZuG1179ElAIDVYQEEAJiDJ44uMCNvGF0AgE33teoDo0vMhGOwAIBtYwEEABhtR+7/uNqe6q9GlwBgS7gHZHLC6AIAwOqwAAIAjHb/6pjRJWbijOrro0sAsCVOG11gJh5WHTi6BACwGiyAAACjPXl0gRl5/egCAGyZM6pLRpeYgUOqB40uAQCsBgsgAMBoJ48uMCPu/wBYXpc2LYJQx48uAACsBgsgAMBId6nuMbrETHyoOmt0CQC2lGOwJo8aXQAAWA0WQACAkZ4yusCMOP4KYPm9ZXSBmXhIdfPRJQCA5WcBBAAYyfFX13D8FcDy+6fqq6NLzMCB1UNHlwAAlp8FEABglKOrB44uMRNfqt47ugQAW+6q6q2jS8yEY7AAgC1nAQQAGOVJ1Y7RJWbiDU2TYgAsP/eATFyEDgBsOQsgAMAoTx5dYEYcfwWwOtwDMrl/dejoEgDAcrMAAgCMcOvqkaNLzMSF1emjSwCwbT5XfXx0iRnYVT18dAkAYLlZAAEARnhC0wWo1BurS0eXAGBb2QUycQ8IALClLIAAACM4/uoajr8CWD3uAZm4BwQA2FIuHgUAtttB1TnVLUcXmYG91ZHVuaOLALCtbtX0u/+A0UUGu6q6Xd4HAYAtYgcIALDdTszix9XekUkfgFV0QfXe0SVmYEfuBAMAtpAFEABguzn+6hqOvwJYXe4BmbgHBADYMhZAAIDttKvpAnQmFkAAVpd7QCaPHl0AAAAAYDM8oum8b6kzNziWACy2A6sLG/9+NIccs8GxBAC4XnaAAADb6eTRBWbkdaMLADDU5dXfjS4xE47BAgC2hAUQAGC77KqeNLrEjJw6ugAAw711dIGZOH50AQBgOe0eXQAAWFrHVg/alwdW96tuMbTRfHy5es/oEgAMZwFkcnJ1UfXuffl409FYAAAbsmN0AQBgKeyu7lt9d/XwpkWPo4c2mrcXV88ZXQKA4XZV51aHji4yM9+o3lW9s3pH06LIxUMbAQALyQIIALAeN6/u07Tg8bCmRY9bD220WL63evPoEgDMwuurJ44uMXN7qg803ZlyRvW26pyRhQCAxWABBADYH7esHtF0Sekjq+/MUZrrdX51u6bLbwHgudULR5dYQB+t3t60GHJ69ZWhbQCAWbIAAgBcn0Oqhzbt7vjupsWPA4c2Wh5/Uv3Q6BIAzMa9m3Y3sDFnVafty+lNR4sBACvOAggAUNNujgc2Hc306H3/+YChjZbXD1SvHl0CgNnY0bR74YjRRZbIldWHqr9pOnLyb6tLhjYCAIawAAIAq+vI6sTqCdUJ1WFj66yEy5omuL45uggAs/LKpgVytsae6h+qU5t2iLyvumpoIwAAAGBT3ax6fPXrTedmXyXbnr+8yacEwCr68ca/R61SvlT9QfX06vCbfjwAAADAHN2memb1quqCxk84rHqedeOPC4AVddfGv0etavZUZ1TPq+5xUw8KAFgsjsACgOVzp+qkpqOtHtl0vwfj7a2Oqs4ZXQSAWfp8dezoEnRW047NU6u3NS2QAAAAAIPsqh5WvaD658Z/k1KuP2+/oQcIANUfNv69Sq6bc5t20T6zutUNPzoAAABgMx3StMvjJdXZjZ8gkJvOT1/vkwSAyY80/r1KbjiXVG+pnpudOgCwMByBBQCL45jqydUTm462OnBoG9bqTtWnR5cAYLbuWH12dAn2y1XVPzYdk/W66oNj6wAAN8QCCADM2+FNd3mcUj0293ksqn+q7jO6BACz98nqzqNLsGafbjoq6+XVRwZ3AQAAgFk7rOms6VOryxt/5INsPL8QANy032n8e5ZsLB+unl/dNQAAAKCa7vQ4pWnR47LGf3iXzc29A4Cb9vTGv2fJ5uXqxZBvCwAYwhFYADDO1ReZP616XHXw2DpskU833f8BADflyOpL+ay+bK6q/r7pmKxXNz1jAAAAWDoHN11k/qfVhY3/ZqJsfX41ANh//9z49y7Zuuyt3lY9p7pdAAAAsOB2VA+vfr86v/EfvGV78/AAYP/9VuPfu2R7sqd6Y/WM6mYBAADAArlD9fPVJxr/AVvG5CvVrgBg/53S+Pcv2f6cV724enAAAAAwUwdXP1i9qemIg9EfpmVsXhIArM3tqisb/x4m4/LP1fOqowMAAIAZuGf1guqcxn9olvnk0QHA2n248e9hMj57q7dUz6wOCQAAALbR4dWzq/c3/gOyzC/nVLsDgLX7zca/j8m8cl7TztKHBQAAAFtkV3VC9arq8sZ/GJb5xvFXAKzXUxv/PibzzdVHZN0+AOBG7RhdAAAWxLdU/6760aazueGmnNh0bAUArNUR1VfymZ0bd0X1huq3q7c2LY4AANfiX6YA4IbtaLrD4dnVyTnOiP13bnVUtWd0EQAW1oeq7xhdgoXxier3qpdWXxvcBQBmY+foAgAwQ7duWvQ4s+kb/Kdk8YO1eW0WPwDYmNNHF2Ch3KV6QfWFpqNaHzq2DgAAAHNz36ZvzV3U+LOdZbHzvQHAxjyl8e9nsth5V/XM6uAAYEU5AguAVXdg9aSmHR8nDO7Ccvha0/FXV4wuAsBCu0311ZzcwMadX72yemH1kcFdAAAA2AbHVM9vmlgY/e08Wa68NADYHB9o/PuaLE/25nhXAACApfY91eubPgCO/hAqy5nHBgCb44WNf1+T5cxnqp9tuvsOAACABbazOql6Z+M/bMpy5+tNx6oBwGY4ufHvbbLcuaB6UfUtAQAAsFAOarr48aON/3Apq5HfCwA2z+HZtSrbk73VqdWDA4Al4jI1AJbREU33e3yxenl1t6FtWCWvHl0AgKXy9eqDo0uwEnZWT6j+vjqj6Z6QXUMbAQAAcB13btrCf1Hjv0Unq5fzcvwVAJvv1xr/HiermU9Uz60OCQAWlB0gACyD765eV328+ql8SGOM11WXjy4BwNI5fXQBVta3VS+sPl39l+q2Y+sAwNrtGF0AANZpR/Xk6v+oHjK4C9R0bMT/Gl0CgKVzy+rc7DJkvEuajpf9n9WnBncBAABYSjurp1YfaPyxACJXx/FXAGyltzb+vU7k6lzRtBBy1wBg5hyBBcCi2Nl0GeM/NV00fe+xdeA6XpvjrwDYOq8aXQCuZXf1zOqfqz+uvn1sHQAAgMW1szqpel/jv+0mckN5RACwdQ6rLm38+53I9WVvdWp1vwBgZuwAAWCudlY/WH2wekN1n7F14AZ9pHrH6BIALLXzqj8fXQJuwM6mu9DeU70m/94OAABwg67e8fH+xn+bTWR/8iMBwNa7d3Vl49/3RPYnb6keFAAAAFXtqp7RdJbw6A9sIvubz1UHBQDb468a/94nspb8dfXQAAAAVtjJTccIjf6AJrLW/HAAsH3uVe1p/PufyFrzxhyNBQAArJiHVGc0/gOZyHryntynBsD2+53GvweKrCd7qz+p7hQAbJMdowsAsJLuUv1K9dS8F7GY9jSda/2+0UUAWDm3rs6sjh1dBNbpiupl1S9UZw/uAsCS861FALbTEdVvVh+uTsniB4vrF7P4AcAY51c/3vSNelhEB1TPrj5RPb+65dA2ACy1XaMLALASDqn+U/Wq6uF5/2Gx/U317zLxBMA4n6huXn336CKwAQdWj2xaDNlR/WPTLlsAAICFsKv60eoLjT9zWGQz8unqNgHAeLuq0xr/3iiyWflU9YycVgIAACyAx1cfavwHKZHNyleruwUA83Hr6v2Nf48U2cy8vzoxANgEzl4HYLMdV/1G9X2ji8AmOq96TNPRDAAwJ7ev3p5FepbP66ufbtqBCwDrYlshAJvlgOq51Qez+MFyObs6PosfAMzTV6qHVu8aXQQ22ZOqj1Yvqm4xuAsAALDCTqw+3vjt8iKbnQ9WdwoA5u9W1amNf+8U2Yp8unpKAAAA2+iY6pWN/0AkshX5k+rmAcDi2Fn9QrW38e+jIluRN1d3DwAAYAvtbjru6vzGfwgS2eycVz07AFhcD2k6Omj0e6rIVuTypmOxbhUAAMAme1jTsUCjP/iIbHb2Vi+vjgoAFt8h1S9XF/f/s3fn4Z7edX3/n5nJThIgZA+BEBaBsO+7gMgqaFXcQbEt/tpeFquttHRRW1v1Z1t/YlFRrC1uCP6UQmRXRIjsyJYAQsKWjYSEQEL2mfSP+4wzTGY5Z+ac8/kuj8d1va/vmZNJ5pX7/s4597nf9/vzGf89VqmNqIurH6wOCQAA4CDdqfrdanvjf9hRaj1re3VO9ZAAYPGcUb2iurHx33OV2oj66+o+AQAAHKDvqC5t/A83Sq1nfbXphtD9AoDFd1r1C01PzY/+HqzUetcN1b+vDg8AdmFMEIB9uVP1a9X3jw4C6+TK6q3V66vXNi0LAgDLZGv1rdU/qJ5e3WVsHFhXH6/+UfXe0UEAmA0aIADszXdWv16dPDoIHKArm34IPq/6UPXB6mNNe30AAJN7Vg9tWgrygU1LCZ0xNBEcnG3V/6hekoddAJaeBggAuzuuaerj+aODwCp9pfpw9cmmhscnmpoel48MBQBz7LimRsj9qnuvvN6/On1kKFijT1c/XL17dBAAxtEAAWBXD6/+sLrH6CCwF5c2TXKcV52/8vH5TWs/AwAb6w5NzZCH7lLf1LSsFsyi7U3TID9d3Tg4CwADaIAAUNMPrf+m+pnq0MFZYIcvVe/bpT5QXTU0EQCwu9tVD64esUvdbWgiuK2PNE24f3R0EAA2lwYIAKc3TX08YXQQltqNTQ2O9zQ1O95bfX5oIgDgQJ3UzmbII6tHV8cOTQTT9eaLq5dmehhgaWiAACy3b65eVZ0yOghL55qmJse51btWXq8fmggA2Chbm/YSeWz1uOrx1ZkjA7HU3lo9r2naGIAFpwECsJwOqV5S/VzWbGZzXFH91Uq9s2kPj+0D8wAAY53V1Ax5YvWkNETYXBdVP1S9Y3QQADaWBgjA8jm+emX1rNFBWGhfqf66env1l9XHs9QAALB3d2tqhDyxenLTMq2wkbZV/7H6T7lOBVhYGiAAy+Xe1TnV3UcHYeHc1LSM1VualhX4cNMPlQAAB+Je1VOqpzY1ROwhwkZ5fdOSWF8dHQSA9acBArA8vqX6k+oOo4OwMC6s3rZSb8kPjQDAxthaPaipIfKUpimRQ0cGYuF8uvoHTcu0ArBANEAAlsMLq/9RHTY6CHPtxqY9PF5XvaH63MgwAMDSOqF6WvWcldfbj43Dgrimen712tFBAACA1Tmk+q9Na9oqdSD15aY9Y56bpScAgNlzeNNUyEurzzb+2knNd22vfjoAAGDmba1+p/E/RKj5qwurX226mWBqCACYJ2dVL6re1bQf2ejrKjWf9YosswawECyBBbCYDq/+oPru0UGYC9urv63OadoE8oNj4wAArIsTq2dU37byeszYOMyZNzdNQV8zOggAB04DBGDx3K760+qpo4Mw025s+qHutU2NjyvGxgEA2FBHV9/atG/Id1THj43DnHh/9axcKwPMLQ0QgMVyTPWm6rGjgzCTbq7eVv1xU+Pjq2PjAAAMcVhTM+R7q2/PJurs28erb6kuHx0EgLXTAAFYHIdXr6ueNjoIM2V79e7qNdWrqi+NjQMAMFOOaJqcfm7TZMixY+Mwoz5VPbm6ZHQQAABYRluanuofvVmgmp36QNMGoKcGAMBqHFk9u3pldW3jr+fUbNUnq9MDAAA21SHVbzb+BwI1vt5b/WR1RgAAHIxjqx9qmrC+sfHXeWo26lPVKQEAAJvm5xv/g4Aa+0PYv63OCgCAjXDH6gXV25uWFx19/afG1vur2wUAAGy472n8DwBq8+u66tXVU7KfFwDAZrpz9eLqM42/JlTj6s+rQwMAADbMvaqvNv7iX21efaB6YXVMAACM9tDq5dU1jb9OVJtfLw8AANgQt6vOa/xFv9r4+lz1c1niCgBgVh1b/Wj111kia9nqpwIAANbd/278xb7auLq+aYmrZ1dbAwBgXpzRtETWBY2/plQbX9uqJwYAAKybf9L4C321MfX+piWubh8AAPNsS9N+bX9Q3dD460y1cfW5XL8DAMC6OCX7fixa3dDODc0BAFg8d6heVF3Y+GtPtTH1+wEAAAftDxp/ca/Wpy6qfrY6MQAAlsGOqZBXV7c0/npUrW/9QAAAwAF7bDZVnPfaVr21em729gAAWGanNz0Mc3njr1HV+tTV1V0DAADWbGv14cZf1KsDqy9Xv1zdffcTCwDAUjuyel717sZfs6qDrz8PAABYs3/W+It5tfb6QNOm5kff9pQCAMA3uE/1q9U1jb+OVQdeT9j9xAIAAHt3p+rKxl/Iq9XVturPmpYsAwCAtbpj9eLq4sZf26q119tve0oBAIC9+anGX8Sr/dcN1SubntwDAICDdVjT3nHva/y1rlpbfcsezicAALAHH2n8Bbzae13dtFTBaXs7gQAAcJAeV72+2t7461+1/3pfdcgezyQAAPD3HtH4i3e157qwelF1u72ePQAAWF/3anr45vrGXw+rfde37eUcAgAAK36j8Rfu6hvrPdV3V1v3cd4AAGAjnVr9l+qqxl8fqz3Xh/Z69gAAgI6qvtL4C3c11Ruqx+/zjAEAwOY6pvrx6vONv15Wt6377/3UAQDAcvvBxl+wq/rzpqXIAABgVh1evbBpmdbR189qZ714XycNAACW2dsaf8G+zHVO9fD9niUAAJgdh1UvqD7d+OtpVX+1z7MFAABL6q7VtsZfsC9bba9eXz1s/6cIAABm1qHV86pPNP4ae5nr5uoO+zlXAACwdJ7b+Iv1Zart1euqh67m5AAAwJzYUn1f9fHGX3Mva33Pfs8SABtmy+gAAOzR3UcHWCJvqx5ZPaf64OAsAACwnrZXr2rajPs51QfGxllKzxgdAAAAZs3LG/+k0qLXO5oaHwAAsCwOaZo2/1Tjr8eXpS7LA8gAAPAN3tr4C/VFrfObnn4DAIBldWj1Y9Uljb8+X4Z6+OpOCwAALIcLGn+Rvmh1SfXCph/2AACAOrp6SXV146/XF7n+/WpPCAAALLpDq5sbf5G+KHVt9YvVsWs5CQAAsESOb7pmvr7x1++LWH+8+lMBAACL7azGX6AvQt1cvaw6eW2HHwAAltZdqv9VbWv89fwi1XvWcA4AWEdbRwcA4DYeWj1/dIgFsKU6orpjdV071zcGAAD27KvVB5quox8xOMsiOaT676NDAADALPixxj+htIj15erVTc2l26/6bAAAwOI7u3px9a5qe+Ov3Retrl79qQBgPdkIFmD23G10gAV1p+q5K3Vj9Y7qnOqt1ScH5gIAgM12x+pJ1TOrZ1WnjI2z8I4eHQBgWWmAAMyew0cHWAJHVE9dqaovVX9dva16Y/XFQbkAAGAjHFo9sHrKSn1zddjQRMvlxtEBAJaVBgjA7LlidIAldHI7p0OqLmxqhrytekvTWsgAADBPzmpnw+Np1XFj4yy1y0cHAFhWGiAAs0cDZLyzqheu1M1NG0G+c6XOrb4yLhoAANzGodWDq8dVT1h5PWFoInb15dEBAJaVBgjA7PF00Gw5rHr0Sv30yud2TIic27SXyOfHRAMAYEkdVj2gabrjcSt1h6GJ2JcvjQ4AsKw0QABmjwmQ2bfrhEjVBe2cDnlvdX61bUw0AAAW0CnVI6tHVY+vHp69A+eJn/EABtEAAZg9JkDmz91X6kdWfn1t07JZ72lqiLy3unRIMgAA5s1R1UOaGh47mh53GZqIg+VnPIBBNEAAZo+ng+bfMdUTV2qHLzQ1Qt5Tva/6UHXdZgcDAGCmbKnu2c5mxyOblrY6bGQo1p0GCMAgh4wOAMAeXVSdPjoEG2pb9ammRsiO+tvqayNDAQCwYQ6t7t003bGjHlQdOzIUm+IZ1ZtGhwBYRhogALPp96sfHB2CTXdr9Zl2NkM+uPJ65chQAACs2eHV/drZ6Hhw9cCm5a1YLjdXxzctkwvAJtMAAZhN/6j67dEhmBmfrz5SfXzl9WPVp6tbRoYCAKCaNii/f9PSVfdfqftlk3Im764eMzoEwLKyBwjAbPqr0QGYKXddqefs8rkbq/ObmiEfqz668mqzdQCAjXF0dd+mSY77NTU6HlidMDIUM++vRgcAWGYmQABm1xerO48Owdy5sp3TIudXn6zOq748MhQAwBw5ommvjns3NTzObpruuHvTpuWwFk+t3jo6BMCy0gABmF32AWE9fbmpIfKJXV4/UV00MhQAwEDHVPdZqfvu8nq3auvAXCyOm5r2//j66CAAy0oDBGB2/UD1B6NDsPC+1s4pkU807S3yqerCpmW2AADm3enVvap7tnOq495NS4zCRnp79eTRIQCWmQYIwOw6ovpCddLoICytS5saIxfuUuc3NUhswA4AzJI7VmftUmc3NTruVR07MBfL7furV40OAbDMNEAAZtsvVP96dAjYzU1NzZC/W6lPVxesfO6LaY4AABvjhKbmxt2re7RzquNeTQ0QmCWXNU0Z3TQ6CMAy0wABmG13abqpbA1i5sUtTZNLF+6hLqiuHhcNAJhxh1Vn9I2THDvqHtXtx0WDNfu56mdHhwBYdhogALPvddWzR4eAdXJlO5shF1afrT6/Ul+obhgXDQDYYIdUp1ZnNj3oc2Y7JzrOamp+ePCHRXBL0/v74sE5AJaeBgjA7Ht69cbRIWCTfKWpMXJpdUkmSABgnhxWndjU5Nh1euO0lc/du7rdsHSweV5dfe/oEABogADMgy3VR6r7jQ4CM+Ar7ZwY+XzTniMXr7xe1NQ0sc4yAGyMk6rTqzs3TXCcvvJ616an3U/NBAfcWj2mes/oIABogADMiydXfzE6BMyJr/SNEyS7f/z56tph6QBgNt2xnZMaZ+3h4zOqY4elg/nx+9XzRocAYKIBAjA/XlN99+gQsCAua2qKXNLOBsmO18uapkoub1q/GQDm2R2bGhk7Gho7Pj6laYLjtJXXI0YFhAVybdNSb/b+AJgRGiAA8+Ou1Seqo0YHgSWxvakJsqMhsvvrl5oaJpdXNw7KCMByOqRpOaoTm5oXp7SzqbGj0bHj9chBGWEZ/dvqv4wOAcBOGiAA8+Vnq58ZHQK4jRualt7aMUmy68e7fu7ibOQOwN7tWIZq16mNPX18RtOG48DsuLA6u+m6EIAZoQECMF+Oqj5Y3Wd0EOCAfb2pIXL5LnVF9eVd6opdPnfdmJgAHKRDqxOqO628ntg0tbHj1yc0TWycvPLPTszP6DCvtldPr946OggA38jFFcD8uV/13uro0UGATXFddWVTQ+TypqbIle1slFy+8uurdilPHgKsry3V8bvUrk2MHc2LHb++08qvjx+SFBjh56t/PzoEALelAQIwn360+p3RIYCZtWNJrrXWpdWtA/ICbKajmpaS2lG7Li+1tzqxaaIDYHfvqL6l2jY6CAC3pQECML/+V/XDo0MAC2ctzZPrd/v9X8oP/8DG272Bsa86crfff1K1dfMjAwvqS9VDmvZ8A2AGaYAAzK/bVe+u7j86CMCK7U2bvF9dfbW6ZqWuXfn1V1c+3vH5r1Zf2+33Xb3yOY0UWCzHVcdUx67UHXb5eMfn77jbr3d87pjq9it11GYHB9iLW6qnVm8fHQSAvdMAAZhvp1fnVncdHQRgnV3fNzZFbmjaD+VgP7bEF+zbMU1TE8et8uPbNTUl9vTxMSt1h039PwDYeLdWL6j+9+ggAOybBgjA/LtX9c6mJR0A2LdbmhorNzY1RXYs43VtdXPTVMq2PLJzaAAAIABJREFUpmbJ7r/3upWPr1n5Z19tmnrZ8fltTdMrtXOK5YaVPwPWamtTI6GmSYhDqyOqo5t+jtvRVDimOqxpOmLryucPXfl3Dm9nU+LI/fzeHf9tAPbvp6r/PjoEAPunAQKwGB7SNHp93P5+IwBDbG9qmNTOZstN1ddXPveVlddbm5ovO+xottQ3NlN2bbbUzmZM7Wzq7OnP3tXuv29P/60dbl7JvVYH0wDa0nSjfq0Oa7rRv7sdN/93tWsjYVc79o3Y2+/b0ZDY/ffunvm4du43saMJUVNT4vB2Nh9a+fe27Pb7AJg9v1C9ZHQIAFZHAwRgcTyhOqedN1IAAABYP79WvShLagLMjS2jAwCwbv66elJ1+eggAAAAC+aXqn+e5gfAXDEBArB4zqreUt19dBAAAIA5d2vTnh+/MjoIAGunAQKwmO5c/Xn1gNFBAAAA5tQN1QuqV40OAsCBsQQWwGK6qHpk9crRQQAAAObQxdUT0/wAmGtbRwcAYMPcUr22urR6er7mAwAArMY7q2+tPjU6CAAHxwQIwOL7reoZ1SWjgwAAAMyw7dV/rZ5cXTY4CwDrwNPAAMvhs9XvVMdXD8keUAAAALu6oPqu6rebGiEALAATIADL46vVjzVNg3xhcBYAAIBZsK16afXA6h2DswCwzkyAACyfC6r/Wd2uenimQQAAgOV0XvWcpmn5mwdnAWADuOkFsNwe33Sxf8/RQQAAADbJLdV/q36munFwFgA2kAkQgOX2hep3q6Oqh+b7AgAAsNjOrb6z+v2m5a8AWGD2AAHg2uonq3tUv5UfAgAAgMXzyep7mqbg/3ZwFgA2iSWwANjdfaufrZ47OAcAAMDBuqj6T037IN4yOAsAm0wDBIC9eUz1i01PSAEAAMyTq6r/t3ppdf3gLAAMogECwL4c0rQ+7s9VZw/OAgAAsD/XVC+rfqm6enAWAAbTAAFgtR5Xvbh6Vr5/AAAAs+Wy6uVNEx9XDc4CwIxwAwuAtXpg9U+r51dHDs4CAAAst49Uv169srphcBYAZowGCAAH6pTq/6l+vDp+cBYAAGC5nNu0zNU51a2DswAwozRAADhYx1Y/Wr2wuu/gLAAAwOL6avWq6teq8wZnAWAOaIAAsJ4e2tQI+f6mxggAAMDB+mD1W9UfVtcOzgLAHNEAAWAjHFk9u6kZ8i35fgMAAKzNZdWrq9+uPj44CwBzyg0pADbavat/WD2vOnlwFgAAYHbdUr2h+p2V11vGxgFg3mmAALBZtlaPrp5bfV910tg4AADADNhevbt6TdP+Hl8aGweARaIBAsAIuzZDvr86cWwcAABgE+3a9PjjpuWuAGDdaYAAMNquzZAfqE4YGwcAANgAuzY9XlNdMjYOAMtAAwSAWXJE06bp37ZSZ4yNAwAAHITrq7+ozqlen6YHAJtMAwSAWXZ2UyPkKdUTq0OHpgEAAPbn8urNTQ2PN1XXjI0DwDLTAAFgXpxQPal6dvWc6vZj4wAAACvOb2p4nFOdW906Ng4ATDRAAJhHR1RPaJoMeUr1oGrL0EQAALA8LqvetlJvqS4dGwcA9kwDBIBFsGM65CnVt1Z3GxsHAAAWynXV37Sz6fGhTHkAMAc0QABYRGe1czrkydWdxsYBAIC5sq36cDsbHu+sbhyaCAAOgAYIAItuS9MSWY9vWjbrcdVJQxMBAMBsual6f1Oj453Vu6qvDU0EAOtAAwSAZXRWUyPksSuv9x0bBwAANtXXmyY83tU04XFudf3QRACwATRAAKDOaOd0yOObGiK+RwIAsCiuaGpy/HVT0+Nvq1uGJgKATeDmDgDc1rHVA6uHNk2JfHOWzQIAYD7cUv1dU6Pj3OqD1fnZtByAJaQBAgCrc1o7GyKPqx5SHTU0EQAA1KVNTY5dGx6WswKANEAA4EAd3rS5+iOrhzc1RO5dbR0ZCgCAhXZZ9aGmJsd7V+rLQxMBwAzTAAGA9XNYda+mSZFd68iRoQAAmEs7Jjt21HnVhUMTAcCc0QABgI21p6bIg6ujR4YCAGCm7N7seF/1paGJAGABaIAAwOY7tLpPdb/qAdX9V+ouI0MBALDhrqk+Xn2s+ugur1ePDAUAi0oDBABmx3HVPauzmyZF7tu0z8gJI0MBALBmt1RfqM5v5/JV51efqLYPzAUAS0UDBABm35ntnBI5u2mz9ftURw3MBADA1Mz4XFNj4/ym6Y6PNzU8bhwXCwAoDRAAmGenNU2JnL3yelbTklonjQwFALCAdp3o2LEZ+fnVh6trB+YCAPZBAwQAFs/pTRMi92lqjOyYGDl5ZCgAgDlwXfXp6pPtXLLq/JXP3TQwFwBwADRAAGB5HFHdo53TIjvqodUdB+YCANhMN1dfbJri2DHJsWOq43PZowMAFoYGCABwu+rKpgYJAMCiuKxpP44L+8Zmx6ealrQCABacBggAUPXm6qmjQwAArJO3VE8bHQIAGGvL6AAAwEx44+gAAADr6JzRAQCA8TRAAIDSAAEAFotrGwBAAwQAqKa1sP9udAgAgHVwfvWZ0SEAgPE0QACAHV43OgAAwDp4/egAAMBs0AABAHZwswAAWASuaQCAqg4ZHQAAmBlbq8uqE0YHAQA4QFdUp1bbRgcBAMYzAQIA7LCtesPoEAAAB+GcND8AgBUaIADAriwZAQDMM9cyAMDfswQWALCrY6ovV0eMDgIAsEY3VidW14wOAgDMBhMgAMCurq3+anQIAIAD8BdpfgAAu9AAAQB2Z+kIAGAeuYYBAL6BJbAAgN2dXn0x1wkAwPy4tbpLddHoIADA7DABAgDs7uLqw6NDAACswYfS/AAAdqMBAgDsyetGBwAAWAPLXwEAt6EBAgDsyWtHBwAAWIM/Gx0AAJg91vYGAPbmM9XdR4cAANiPT1f3Gh0CAJg9JkAAgL35/0cHAABYBdcsAMAeaYAAAHvjZgIAMA9cswAAe2QJLABgbw6pPlfdZXAOAIC9+WJ11+rW0UEAgNljAgQA2Jtbs6EoADDbXpPmBwCwFxogAMC+WFICAJhlrlUAgL2yBBYAsC9bqouqU0cHAQDYzWXV6dX20UEAgNlkAgQA2Jft1WtHhwAA2IM/SfMDANgHDRAAYH8sLQEAzCLXKADAPlkCCwDYn63VpdWJo4MAAKz4ctMSnbeMDgIAzC4TIADA/myrXj86BADALv40zQ8AYD80QACA1bDEBAAwS1ybAAD7ZQksAGA1Dqu+VN1xdBAAYOldXZ1c3TQ6CAAw20yAAACrcXN1zugQAADVa9P8AABWQQMEAFitV40OAABQ/dHoAADAfLAEFgCwWodWF1cnjQ4CACyty6vTswE6ALAKJkAAgNW6pfqT0SEAgKX2qjQ/AIBVMgECAKzF46p3jg6xwH6ien111h7q7OrIcdEA2MUt1ReqC/dQT6p+eVy0hffo6j2jQwAA8+HQ0QEAgLlybtMNn7uMDrKgtrbzBtruDqvOrO5R3Xulvqm6b3XiJuUDWDZXVOdXn6o+WX2i+kz1+ermvfw7T9yUZMvps9V7R4cAAOaHBggAsBa3Nm08+uLRQRbUviY8bq4+vVJv3O2fHV/dp52Nkfus1N0y8QuwP9urzzU1Oj7ZzkbHJ6urDuC/d9S6JWN3f9R0LQIAsCoaIADAWmmAbJyjD/Dfu6ppOufc3T5/TNOEyP2r+63U/auTDzQgwJy7rPp49bHqvOqjTY2Pr6/jn3GgX8vZvz8aHQAAmC8aIADAWn2k6abR2aODLKA7rfN/79rqfSu1qxOqBzSdwwdUD25qjhyxzn8+wCg3NDU6/rapybGj2XHlJvzZ6/21nMlHm84pAMCqaYAAAAfij6qfHx1iAZ20SX/Ol6u/XKkdDm3nniJnVw+tHpn9RYDZ97WmiY4PNjU6zq/eX904KI8pu43xh6MDAADzx5rQAMCBOKtpE1jXEuvrXdXjR4fYzVlNEyIPrh6+UnccmghYZlc1NTc+UH2oacLjs0MT3da51WNGh1gwtzbta/X50UEAgPnipgUAcKDeXT1qdIgF83dNUxiz7rSmCZEd9dg0RYD19/Xqw02THTvq/GZ/E+zPVHcfHWLBzOIDAgDAHLAEFgBwoP4oDZD1duroAKt0yUq9fuXXW5uWznp49YimJ5/PrrYMSQfMo+1Ny1ed27Rv0furT1TbRoY6QKeMDrCAXjU6AAAwn0yAAAAH6qTq4jxQsd5ObNqjY94dUz2oaTrkcU1NkeOHJgJmybXVR5qe7D93pa4ammh9nFxdNjrEgrmlOr26fHQQAGD+aIAAAAfjzdVTR4dYMI+q3js6xAbY2jQV8tjq0U1LmZw5MhCwqT7b1Oz4m5U6r/mc7tifRzf9/7F+3lg9c3QIAGA+eWITADgYf5QGyHq7W4vZANlWfXSlfmPlc6c2TYc8ZeX1vmOiARvg0qaGx9uqtzZ7G5VvFHt/rL8/HB0AAJhfGiAAwMH406ab2UeODrJAzhodYBNdWr1mparOqJ5YffNK3WNMLOAAfLp6x0r9VXXR0DTj3G10gAVzXfV/RocAAOaXBggAcDC+Vv1Z9f2jgyyQZX56+IvV761U1Z2rb22aMnpKdcKgXMBtXdE03fGWpgmPi8fGmRnL1MTeDH9aXTM6BAAwv+wBAgAcrG9tugHG+nhP0xry3NbZ1bc1NUMeXx0xNg4slVuaNi1/W3VO0z4X24cmmk3vrx42OsQCeXL19tEhAID5pQECABysLdWF1V1HB1kQX6+Oy43F/Tmmabmsp1XPyrIzsBE+29TseHPTslZfH5pm9m1tmow8enSQBfHZpqnIW0cHAQAAAJbbzzXdoFDrU/dc2+GnadmZFzVturyt8edQqXmsbdUHqp+tHpoH5tbq3o0/h4tU/2Fthx8A4LZc0AIA6+HM6oKmaRAO3nOrPxkdYo6dUD2zabmsp1fHjo0DM+366tymSY/XVJeMjTPXvrd61egQC2J7U2P786ODAADzzU0KAGA9fK56x+gQC+SBowPMuS9Xr6y+pzql+s7q1dV1I0PBDLmu+uPqH1R3atrL6VfT/DhY9x8dYIH8RZofAMA60AABANbL744OsEA0QNbPddWfNT2ZfUL1nKan3G8aGQoGuLFpyuOHmxqD31e9tmkChPXxoNEBFohrCgBgXVgCCwBYL0c3PT18+9FBFsCl1WmjQyy4OzY9/f591ZObNi+GRbOt6Un6VzU1Aq8eG2fhXdrUXOLgfKXpe+ANo4MAAAAA7Orljd80dVHq7ms89hy406oXV59t/HlXaj3q4uoXm/ZnYnPcq/HnfVHqZWs89gAAAACb4lGNv3GyKPUjazv0rIMt1VOa9gu5qfHvAaXWUrdUb62eWx0am+1HG/8eWJR62BqPPQAAAMCmOa/xN08WoV6x1gPPujqt+nfVRY1/Lyi1r/pi9ZLq1Bjpdxv/XliE+shaDzwAAADAZvpXjb+Bsgj1ybUeeDbE4dXzq080/j2h1K51QfWi6siYBZ9p/HtiEeon1nrgAQAAADbTyVk+aD1qe3XSGo89G2dL9ezqfY1/b6jlro80NeW2xqw4pfHvi0WoG6sT13jsAQD2acvoAADAwvlS9YbRIRbAIdXjRofg722vXl89snpm9f6xcVhC76ueUT2wemW1bWwcdvGE0QEWxDnVFaNDAACLRQMEANgI/2t0gAXxjNEBuI1bqzc2NUK+p7pwbByWwBerH6seXb1pcBb27JmjAyyI/zk6AAAAAMBqHFpd2vjlNOa9LmmaBGF2HVn9bNPSLaPfL2qx6qbqF7PHx6zbUl3W+PfLvNelTdcOAADrygQIALARbql+f3SIBXBq9bDRIdinG5oaIA+r/nZsFBbIB6sHV/+66T3G7Hpk095XHJz/3XTtAACwrjRAAICN8jtNT3VycJ49OgCr8rGmJYpemvc9B+7W6leqx1TnDc7C6nzb6AAL4NbqFaNDAAAAAKzV2xu/rMa8l6mC+fPDTcsXjX7vqPmqm6t/HPPmY41/78x7vWXNRx0AAABgBnxP42+szHttr85Y64FnuGdkXxC1+rqxelrMmzMb/95ZhPrONR53AIBVswQWALCR/qxpc1gO3CFZBmsevbF6QdPNPdiX7dXzqzePDsKa+dp88C6uXjc6BACwuDRAAICNdHPTXiAcnB8cHYAD8ofVy0eHYOb9RvXHo0NwQJ43OsACeEU2PwcANtAhowMAAAvvrtUF1dbRQebcfapPjg7Bmh1XfbY6fnQQZtKV1d2qa0YHYc3Orj4+OsScu6Xp/X/R6CAAwOIyAQIAbLTPV28YHWIB/MjoAByQr1W/NzoEM+uVaX7Mqx8ZHWABvD7NDwBgg2mAAACb4TdHB1gAz8sUzbx65+gAzCzvjfl0aJYmXA+/MToAALD4NEAAgM3wpupzo0PMudOqp44OwQG5bHQAZtaXRgfggDyjOnV0iDl3QfW20SEAgMWnAQIAbIbtedJzPfzI6AAckJNHB2BmnTQ6AAfkBaMDLICXVbeODgEALD4NEABgs7yium50iDn37dWdRodgzU4bHYCZ5b0xf06snjU6xJy7tvrd0SEAgOWgAQIAbJarqt8fHWLOHVH92OgQrNljRgdgZj16dADW7J9Wh48OMedeWV09OgQAsBwOGR0AAFgqZ1cfyzXIwfhSdWZ1w+AcrM7WpnNmcoc9uappGaxto4OwKkc07Wd1yuAc8+zWpmuBT4wOAgAsBxMgAMBmOq/6y9Eh5tzJ1feODsGqPTHND/bu+OoJo0Owaj+U5sfBeluaHwDAJtIAAQA226+NDrAA/lWu4+bFT44OwMzzHpkPW6t/OTrEAnjp6AAAAAAAG2lLdUHTMhjqwOt71nrg2XQPqLY3/r2iZru2V/eLWfeDjX+vzHt9Js17AGCTufgAADbb9uplo0MsgJ/Jtdys+8/Z74b9O6T6+dEh2Ket1b8bHWIBvKzpGgAAAABgod2huqbxT6POe/3AWg88m+Y7G//+UPNV3x6z6oca//6Y97qmuv1aDzwAAADAvHpp42/IzHt9tjpyrQeeDXds9cXGvz/UfNXnq2Ni1hzVdG5Gvz/mvX51rQceAGA9WDYBABjlV6pbRoeYc2dW/2J0CG7jFdWdR4dg7tyl6b3DbPmXTeeGA7ctm58DAAAAS+jVjX8qdd7ra9XJaz3wbJifaPx7Qs13/XjMitOyXON61KvWeuABAAAAFsEjGn9jZhHqD9Z64NkQT6xuavz7Qc133Vg9PmbBHzf+/bAI9bC1HngAAACARfGOxt+cWYR69loPPOvqAdVVjX8fqMWoq6sHx0jPbPz7YBHqL9d64AEAAAAWyXMaf4NmEerzTZtvs/nuUV3a+PeAWqy6vPqmGOG46guNfw8sQj1zjcceAAAAYKFsqT7Z+Js0i1C/tcZjz8G7Z1PzafS5V4tZn63uHpvtfzb+3C9CnVcdssZjDwAAALBwXtj4GzWLUt+3xmPPgXtI9aXGn3O12HVZlsPaTM9t/DlflHrBGo89AAAAwEI6IksIrVd9pTpzTUefA/HNTfs0jD7fajnqmuopsdHOyt/r9arLqiPXdvgBANbfltEBAACqG6uXjg6xIO5QvSo3njbSC6s3V7cfHYSlcUx1TvUPRwdZYEdVf5y/1+vlv1c3jA4BAAAAMCuOa5peGP3U6qLUq7P2+no7onp548+tWu56eXV4rKdDqj9s/LldlLqyOnZNZwAAYINsHR0AAGDFjU1POT9hdJAFcXZ1U/XO0UEWxF2ansD/jtFBWHoPrb6lelv11cFZFsV/qH58dIgF8kvVW0aHAAAAAJg1J1TXNv7p1UWpbdXz1nQG2JMfyb4Aavbq6ur5cbB+pNre+PO5KPW16vi1nAAAAACAZfLfGn8DZ5Hqlur71nQG2OGk6k8bfw6V2lf9eXVqHIjvqm5u/DlcpPrFNZ0BAAAAgCVzanV942/iLFLdVH3bWk7CkttS/ePqisafO6VWU5c3bZC+JVbr25u+No4+d4tU11Unr+UkAAAAACyjX2/8jZxFq5ubbpCybw+p/qbx50upA6kPVI+K/Xl+mh8bUS9dy0kAAAAAWFZn5ubURtT26qdXfxqWyhnVK5r2TRl9npQ6mNpW/VZ159iTl2TPj42oG6u7rOE8AAAAACy13238DZ1Frd+ojlj9qVhopzY9tXxD48+LUutZ11e/Wp0SNX3N+63Gn5dFrVes/lQAAAAAcI9sTruR9f7qbqs+G4vnztV/a1qzfvS5UGoj6+vVL1ent7zuXn2w8ediUeum6qxVnw0AAAAAqumJ0tE3dha5vlJ996rPxmJ4VPVHWWJNLV/dVP1h9YiWy/dWVzf++C9yvXzVZwMAAACAv3dm07rio2/uLHq9tmkPjEV1TPW86j2NP9ZKzUK9u+nvxO1aXHepXtf4Y73odUP2/gAAAAA4YL/e+Bs8y1Bfq/5FdfjqTsvM21o9vfr96trGH1+lZrGurX6velrT35lFcHj1k9U1jT++y1C/trrTAgAwxiGjAwAA7Mfp1WeqI0cHWRKfr36haRP6mwZnWavbVd9SPbP69mz+DGtxafV/qjdUf9m0d8g8Obz60erfZCJhs1zftL/KpaODAAAAAMyzX2n8U67LVp+r/nl1/P5PzzBbqwdWL6re3LQUy+jjptQi1PXVm5q+Bjyg2Z4OuVP1E03N29HHbdnqv67i/AAADGUCBACYBydXF7TY69XPqhub9gj5naanwrcNyrGl6anuBzVtZP6o6qFN+3sAG+va6gNN++i8p/pI9YVq+6A8W6unNE18fHt1xKAcy+za6qzqitFBAAD2RQMEAJgXv1T99OgQS+6q6m3VW5omLi7agD/jyOrspqfOv6m6Z3WvlVc3OWF23Fh9uvq7lddPVR+tzmuaxlpvZ1RPbdqv5CnVHTfgz2D1fqF6yegQAAD7owECAMyLE5qmQI4bHYS/94Xq49XHmm58XtD0NPAVTRsQ783tm/Z2OWXl9YymhscDmhodh25cZGCD3dLUFPnoSn2xuqRpn4hLqq/u4989tjpxpe5R3b/p68L9mr5OMBu+2jT9cdXoIAAA+6MBAgDMk39b/fzoEKzKjdWVTUtm7bpM1RHV0UMSAbPguqavDztc27Sk1QlNG5kz+/5N9YujQwAArIYGCAAwT45qWmbFk8AAsPkublqW8LrRQQAAVmPr6AAAAGtwS3V106a3AMDm+vHqA6NDAACslgkQAGDebGm6+fLg0UEAYIl8pHpItX10EACA1doyOgAAwBptr14yOgQALJl/leYHADBnTIDAYjmmOqu628rrWdWZ1Z2aNp29Qzs3nz0uy+ABAAAAi29b9bWmPYxurL5S3VRdWX2uurD67C6v1wxJCaw7DRCYX0dXD6seUz26ekR1ytBEAAAAAPPv0uq91d9U764+WF0/NBFwQDRAYH5srR7ftPHv46oHVYcOTQQAAACw+G6uPtTUEPk/1buapkqAGacBArNtS9OEx3NX6tSxcQAAAACW3pXVG6rXVG9qapAAM0gDBGbT/at/Wn1XdeLgLAAAAADs2RXVn1Qvq84bnAXYjQYIzJbHVS+unpW/nwAAAADz5Nzql6pzqlsHZwFygxVmwVHV86sXVfcZnAUAAACAg3N+9f9Vv1fdMDgLLDUNEBjnkOq7q1+u7jo4CwAAAADr6+LqP1avqLYPzgJLSQMExnh49SvVY0cHAQAAAGBDfaD6iaYlsoBNtGV0AFgyp1evrN6b5gcAAADAMnhY9c7q1VkFBDbV1tEBYIn8k+r1Td/0TF8BAAAALI9DqrOrf1x9ufrg2DiwHNyEhY13h+o3q+8dHQQAAACAmfDa6h9VV44OAotMAwQ21pOq32ta+goAAAAAdrio+qHqHaODwKKyBBZsjEOr/1y9vLr94CwAAAAAzJ7jqudVhzXtEbJ9bBxYPCZAYP0d3bSp1bNGBwEAAABgLry1+q7qmtFBYJFogMD6Or56XfXY0UEAAAAAmCvvb3qg9orRQWBRaIDA+rlr9abq3qODAAAAADCXLqieXn1mdBBYBFtGB4AFcXb1rjQ/AAAAADhwd2/aD+TBo4PAIjABAgfvQdXbqzuMDgIAAADAQri6+ubqo6ODwDzTAIGDc7fq3OrU0UEAAAAAWCiXNO0z+7nBOWBuWQILDtwJ1RvT/AAAAABg/Z1WvbU6aXQQmFcaIHBgjq5eV33T6CAAAAAALKx7VK+vbjc6CMwjDRBYu8OqP6kePToIAAAAAAvvEdWrqkNHB4F5s3V0AJhDP1+9YHQIAAAAAJbGvVZe/2pkCJg3NkGHtXlC9ZdpHgIAAACwubZXT6nePjoIzAsNEFi9O1Yfru4yOggAAAAAS+mi6oHVVaODwDywBwis3u+m+QEAAADAOHeufnt0CJgXlvGB1fkn1U+NDgEAAADA0rtPdXH1odFBYNZZAgv274zqk9XRo4MAAAAAQHVtde+mRgiwFyZAYP9+s3rI6BAAAAAAsOLw6oTqtaODwCwzAQL79ujq3PxdAQAAAGC23Fo9qnrf6CAwq9zUhb07pHpP9YjRQQAAAABgD95TPaapGQLsZsvoADDDnp/mBwAAAACz61HV948OAbPKBAjs2VHVp6vTRwcBAAAAgH34YnXP6sbRQWDWmACBPXtemh8AAAAAzL4zqh8cHQJmkQkQuK1Dqo9X9x0dBAAAAABW4ePVA7IXCHwDEyBwW09P8wMAAACA+XG/6ltHh4BZowECt/UvRgcAAAAAgDVyTwt2Ywks+Eb3qz6avxsAAAAAzJ8HNt3bAjIBArv7Z2l+AAAAADCffmx0AJglbvTCTlurS6sTRwcBAAAAgANwRXVadcvoIDALTIDATk9K8wMAAACA+XVi9bjRIWBWaIDATt89OgAAAAAAHKTvGh0AZoUlsGCytbqkOml0EAAAAAA4CJdVp1fbRweB0UyAwOSb0/wAAAAAYP6dUj1mdAiYBRogMHn26AAAAAAAsE43RADjAAAgAElEQVS+Y3QAmAUaIDB57OgAAAAAALBO3OuC7AECVUdVV1eHjw4CAAAAAOvg5ur21fWjg8BIJkCgHp7mBwAAAACL47DqoaNDwGgaIFCPHh0AAAAAANaZe14sPQ0Q8M0AAAAAgMXjnhdLzx4gUJdWp4wOAQAAAADr6JLq9NEhYCQNEJbdsdXXRocAAAAAgA1wbHXt6BAwiiWwWHZnjQ4AAAAAABvkzNEBYCQNEJadBggAAAAAi8q9L5aaBgjLzjcBAAAAABbV3UYHgJE0QFh2vgkAAAAAsKjc+2KpaYCw7M4cHQAAAAAANojVT1hqGiAsu+NHBwAAAACADXL70QFgJA0Qlt3RowMAAAAAwAY5ZnQAGEkDhGV3u9EBAAAAAGCDuPfFUtMAYdmZAAEAAABgUWmAsNQ0QFh2GiAAAAAALCoNEJaaBgjLzjcBAAAAABaVe18stUNGB4DBbh0dYDBfAwAAAIBF5/4PLCkTIAAAAAAAwMLRAAEAAAAAABaOBggAAAAAALBwNEAAAAAAAICFowECAAAAAAAsHA0QAAAAAABg4WiAAAAAAAAAC0cDBAAAAAAAWDgaIAAAAAAAwMLRAAEAAAAAABaOBggAAAAAALBwNEAAAAAAAICFowECAAAAAAAsHA0QAAAAAABg4WiAAAAAAAAAC0cDBAAAAAAAWDgaIAAA8H/Zu5sXzfKrDuCne3oyk3F6et6qKyRqEFGMKEhwXLhxG/+ASFYuRHEtiP+A2/wLblwJgu6CK3euBBECCQhuAgZqaron85KZxHlpF9WhcYaeel7uveep8/184O6G6fMUh3Orzvf33AsAAMA4AhAAAAAAAGAcAQgAAAAAADCOAAQAAAAAABhHAAIAAAAAAIwjAAEAAAAAAMYRgAAAAAAAAOMIQAAAAAAAgHEEIAAAAAAAwDgCEAAAAAAAYBwBCAAAAAAAMI4ABAAAAAAAGEcAAgAAAAAAjCMAAQAAAAAAxhGAAAAAAAAA4whAAAAAAACAcQQgAAAAAADAOAIQAAAAAABgHAEIAAAAAAAwjgAEAAAAAAAYRwACAAAAAACMIwABAAAAAADGEYAAAAAAAADjCEAAAAAAAIBxBCAAAAAAAMA4AhAAAAAAAGAcAQgAAAAAADCOAAQAAAAAABhHAAIAAAAAAIwjAAEAAAAAAMYRgAAAAAAAAOMIQAAAAAAAgHEEIAAAAAAAwDgCEAAAAAAAYBwBCAAAAAAAMI4ABAAAAAAAGEcAAgAAAAAAjCMAAQAAAAAAxhGAAAAAAAAA4whAAAAAAACAcQQgAAAAAADAOAIQAAAAAABgHAEIAAAAAAAwjgAEAAAAAAAYRwACAAAAAACMIwABAAAAAADGEYAAAAAAAADjCEAAAAAAAIBxBCAAAAAAAMA4AhAAAAAAAGAcAQgAAAAAADCOAAQAAAAAABhHAAIAAAAAAIwjAAEAAAAAAMYRgAAAAAAAAOMIQAAAAAAAgHEEIAAAAAAAwDgCEAAAAAAAYBwBCAAAAAAAMI4ABAAAAAAAGEcAAgAAAAAAjCMAAQAAAAAAxhGAAAAAAAAA4whAAAAAAACAcQQgAAAAAADAOAIQAAAAAABgHAEIAAAAAAAwjgAEAAAAAAAYRwACAAAAAACMIwABAAAAAADGEYAAAAAAAADjCEAAAAAAAIBxBCAAAAAAAMA4AhAAAAAAAGAcAQgAAAAAADCOAAQAAAAAABhHAAIAAAAAAIwjAAEAAAAAAMYRgAAAAAAAAOMIQAAAAAAAgHEEIAAAAAAAwDgCEAAAAAAAYBwBCAAAAAAAMI4ABAAAAAAAGEcAAgAAAAAAjCMAAQAAAAAAxhGAAAAAAAAA4whAAAAAAACAcQQgAAAAAADAOAIQAAAAAABgHAEIAAAAAAAwjgAEAAAAAAAYRwACAAAAAACMIwABAAAAAADGEYAAAAAAAADjCEAAAAAAAIBxBCAAAAAAAMA4AhAAAAAAAGAcAQgAAAAAADCOAAQAAAAAABhHAAIAAAAAAIwjAAEAAAAAAMYRgAAAAAAAAOMIQAAAAAAAgHEEIAAAAAAAwDgCEAAAAAAAYBwBCAAAAAAAMI4ABAAAAAAAGEcAAgAAAAAAjCMAAQAAAAAAxhGAAAAAAAAA4whAAAAAAACAcQQgAAAAAADAOAIQAAAAAABgHAEIAAAAAAAwjgAEAAAAAAAYRwACAAAAAACMIwABAAAAAADGEYAAAAAAAADjCEAAAAAAAIBxBCAAAAAAAMA4AhAAAAAAAGAcAQgAAAAAADCOAAQAAAAAABhHAAIAAAAAAIwjAAEAAAAAAMYRgAAAAAAAAOMIQAAAAAAAgHEEIAAAAAAAwDgCEAAAAAAAYBwBCAAAAAAAMI4ABAAAAAAAGEcAAgAAAAAAjCMAAQAAAAAAxhGAAAAAAAAA4whAAAAAAACAcQQgAAAAAADAOAIQAAAAAABgHAEIAAAAAAAwjgAEAAAAAAAYRwACAAAAAACMIwABAAAAAADGEYAAAAAAAADjCEAAAAAAAIBxBCAAAAAAAMA4AhAAAAAAAGAcAQgAAAAAADCOAAQAAAAAABhHAAIAAAAAAIwjAAEAAAAAAMYRgAAAAAAAAOMIQAAAAAAAgHEEIAAAAAAAwDgCEAAAAAAAYBwBCAAAAAAAMI4ABAAAAAAAGEcAAgAAAAAAjCMAAQAAAAAAxhGAAAAAAAAA4whAAAAAAACAcQQgAAAAAADAOAIQAAAAAABgHAEIAAAAAAAwjgAEAAAAAAAYRwACAAAAAACMIwABAAAAAADGEYAAAAAAAADjCEAAAAAAAIBxBCAAAAAAAMA4AhAAAAAAAGAcAQgAAAAAADCOAAQAAAAAABhHAAIAAAAAAIwjAAEAAAAAAMYRgAAAAAAAAOMIQAAAAAAAgHEEIAAAAAAAwDgCEAAAAAAAYBwBCAAAAAAAMI4ABAAAAAAAGEcAAgAAAAAAjCMAAQAAAAAAxhGAAAAAAAAA4whAAAAAAACAcQQgAAAAAADAOAIQAAAAAABgHAEIAAAAAAAwjgAEAAAAAAAYRwACAAAAAACMIwABAAAAAADGEYAAAAAAAADjCEAAAAAAAIBxBCAAAAAAAMA4AhAAAAAAAGAcAQgAAAAAADCOAAQAAAAAABhHAAIAAAAAAIwjAAEAAAAAAMYRgAAAAAAAAOMIQAAAAAAAgHEEIAAAAAAAwDgCEAAAAAAAYBwBCAAAAAAAMI4ABAAAAAAAGEcAAgAAAAAAjCMAAQAAAAAAxhGAAAAAAAAA4whAAAAAAACAcQQgAAAAAADAOAIQAAAAAABgHAEIAAAAAAAwjgAEAAAAAAAYRwACAAAAAACMIwABAAAAAADGEYAAAAAAAADjCEAAAAAAAIBxBCAAAAAAAMA4AhAAAAAAAGAcAQgAAAAAADCOAAQAAAAAABhHAAIAAAAAAIwjAAEAAAAAAMYRgAAAAAAAAOMIQAAAAAAAgHEEIAAAAAAAwDgCEAAAAAAAYBwBCAAAAAAAMI4ABAAAAAAAGEcAAgAAAAAAjCMAAQAAAAAAxhGAAAAAAAAA4whAAAAAAACAcQQgAAAAAADAOAIQAAAAAABgHAEIAAAAAAAwjgAEAAAAAAAYRwACAAAAAACMIwABAAAAAADGEYAAAAAAAADjCEAAAAAAAIBxBCAAAAAAAMA4AhAAAAAAAGAcAQgAAAAAADCOAAQAAAAAABhHAAIAAAAAAIwjAAEAAAAAAMYRgAAAAAAAAOMIQAAAAAAAgHEEIAAAAAAAwDgCEAAAAAAAYBwBCAAAAAAAMI4ABAAAAAAAGEcAAgAAAAAAjCMAAQAAAAAAxhGAAAAAAAAA4whAAAAAAACAcQQgAAAAAADAOAIQAAAAAABgHAEIAAAAAAAwjgAEAAAAAAAYRwACAAAAAACMIwABAAAAAADGEYAAAAAAAADjCEAAAAAAAIBxBCAAAAAAAMA4AhAAAAAAAGAcAQgAAAAAADCOAAQAAAAAABhHAAIAAAAAAIwjAAEAAAAAAMYRgAAAAAAAAOMIQAAAAAAAgHEEIAAAAAAAwDgCEAAAAAAAYBwBCAAAAAAAMI4ABAAAAAAAGEcAAgAAAAAAjCMAAQAAAAAAxhGAAAAAAAAA4whAAAAAAACAcQQgAAAAAADAOAIQAAAAAABgHAEIAAAAAAAwjgAEAAAAAAAYRwACAAAAAACMIwABAAAAAADGEYAAAAAAAADjCEAAAAAAAIBxBCAAAAAAAMA4AhAAAAAAAGAcAQgAAAAAADCOAAQAAAAAABhHAAIAAAAAAIwjAAEAAAAAAMYRgAAAAAAAAOMIQAAAAAAAgHEEIAAAAAAAwDgCEAAAAAAAYBwBCAAAAAAAMI4ABAAAAAAAGEcAAgAAAAAAjCMAAQAAAAAAxhGAAAAAAAAA4whAAAAAAACAcQQgAAAAAADAOAIQAAAAAABgHAEIAAAAAAAwjgAEAAAAAAAYRwACAAAAAACMIwABAAAAAADGEYAAAAAAAADjCEAAAAAAAIBxBCAAAAAAAMA4AhAAAAAAAGAcAQgAAAAAADCOAAQAAAAAABhHAAIAAAAAAIwjAAEAAAAAAMYRgAAAAAAAAOMIQAAAAAAAgHEEIAAAAAAAwDgCEAAAAAAAYBwBCAAAAAAAMI4ABAAAAAAAGEcAAgAAAAAAjCMAAQAAAAAAxhGAAAAAAAAA4whAAAAAAACAcQQgAAAAAADAOAIQAAAAAABgHAEIAAAAAAAwjgAEAAAAAAAYRwACAAAAAACMIwABAAAAAADGEYAAAAAAAADj3OkuAAAAFvbVqnqjqr5ZVd+oql99fD1fVfce/zfvVNXPqupHj68fVtV/VNW/V9WPN64XlqT/AQDgsVvdBUCzR90FNDMDAJjijar6dlV9q6p+98j/1/er6l+q6h/raiEMp07/A8AXs/8BINKj8AsAbrK7VfVXVfWDWu9e+YPH/8bdjT4T7Er/A8Duuvcv3RcAobpvQN0XANxEL1XV31bVw9runvnw8b/50gafD76I/geA/XXvX7ovAEJ134C6LwC4SW5X1V9W1UX13TsvHtdwe+XPCp+l/wHgcN37l+4LgFDdN6DuCwBuil+rqn+t/nvnL65/q6rfXPUTwxP6HwCO033v7L4ACNV9A+q+AOAm+E5VvVf9983PXu89rg3WpP8B4Hjd983uC4BQ3Teg7gsATtntqvpu9d8vr7u+Wx4JxPL0PwAsp/t+2X0BEKr7BtR9AcCp+lJV/UP13yt3vf65qp5f5SdBIv0PAMvqvld2XwCE6r4BdV8AcIq+VFXfq/775L7X9x7XDsfQ/wCwvO77ZPcFQKjuG1D3BQCn5nbdrJPvn73+qaqeWfynQgr9DwDr6L5Hdl8AhOq+AXVfAHBqbsI7D667vrv4T4UU+h8A1tF9f+y+AAjVfQPqvgDglHyn+u+NS11/uvDPhvn0PwCsp/ve2H1BrFvdBUCz9JuAGQDAqfj1qvrPqnqxu5CFvF9Vv1dV/91dCDeC/geAddn/QKjb3QUAABDvdlX9Xc1Z/lZdfZa/L79vcz39DwAAK/ELKQAA3f6iqv6ou4gV/GFdfTb4IvofAABW4utPpPMVSADodbeq/quqvtJdyEouq+o3quqd7kI4SfofALZh/wOhfAMEAIBOf1Nzl79VVWdV9dfdRXCy9D8AAKxI+kc6JwAAoM/dqvpRVb3cXcjK3qmqr5dT8Px/+h8AtmP/A6F8AwQAgC5/XvOXv1VV96rqz7qL4OTofwAAWJn0j3ROAABAn+9X1e90F7GRH1bVb3cXwUnR/wCwHfsfCOUbIAAAdHijcpa/VVXfqKrf7y6Ck6H/AQBgAwIQAAA6fLu7gAZ/0l0AJ0P/AwDABgQgAAB0+OPuAhp8q7sATob+BwCADXj+G+k8AxIAtvfVqvqf7iKafK2qftxdBK30PwBsz/4HQvkGCAAAW/uD7gIavdFdAO30PwAAbEQAAgDA1r7ZXUCj5M/OleQeSP7sAAA0EIAAALC13+ouoFHyZ+dKcg8kf3YAABoIQAAA2NrXuwtolPzZuZLcA8mfHQCABgIQAAC29svdBTRK/uxc+Vp3AY1+pbsAAACyCEAAANjSraq6311Eoxe7C6Dd3e4CGt0vf4MCALAhv3wCALCl16rqTncRjV7oLoB2yT1wp6pe6S4CAIAcAhAAALaU/O0PwAwAAGBDAhAAALaUvvz8oLsA2qX3QPoMAABgQwIQAAC2dNZdQLOfdhdAu/e7C2gmAAEAYDMCEAAAtvSV7gKavdldAO0uuwtodt5dAAAAOQQgAABsKf0bIAIQ0nsgfQYAALAhAQgAAFtKf/zNRXcBtEvvgfQZAADAhgQgAABsKX35mX76Hz2QPgMAANiQAAQAgC2lP/8//f0P6IH0GQAAwIYEIAAAbCn99Hf66X/0QPoMAABgQwIQAAC2lL78TH//A3ogfQYAALAhAQgAAFt5vqpe6i6iWfrpf/TAvbqaBQAAsDoBCAAAW3Hy2/IbPVBVddZdAAAAGQQgAABsRQDiBdgIQKrMAgAANiIAAQBgK+fdBTR7t6o+7C6Cdh9W1XvdRTRLnwUAAGxEAAIAwFbST307+c8vpPdC+iwAAGAjAhAAALaSvvRMX3rzRHovpM8CAAA2IgABAGAr6S8+vugugJOR3gvpswAAgI0IQAAA2Er6qe/0U/88kd4L6bMAAICNCEAAANhK+ouP05fePJHeC+mzAACAjQhAAADYSvqp78vuAjgZ6b2QPgsAANiIAAQAgK2kLz3TT/3zRHovpM8CAAA2IgABAGALt8qLj9NffM0T6b1wv65mAgAArEoAAgDAFl6pqme7i2iWfuqfJ9J74dmqerm7CAAA5hOAAACwBY+8sfTmCb1gJgAAsAEBCAAAW0hfdn5SVQ+7i+BkPKiqj7uLaJY+EwAA2IAABACALZx3F9Dssqo+7S6Ck/FpXYUgydJnAgAAGxCAAACwhfTT3h55xGel90T6TAAAYAMCEAAAtnDWXUCz9GU3n5feEwIQAABWJwABAGAL6cvOi+4CODnpPZEeigIAsAEBCAAAW0h/3n/6aX8+L70n0mcCAAAbEIAAALCF9G+AXHYXwMlJ74n0mQAAwAYEIAAAbCF92Zl+2p/PS++J9JkAAMAGBCAAAGwhfdmZ/r4HPi+9J9JnAgAAGxCAAACwti9V1b3uIpqln/bn89J74uW6mg0AALAaAQgAAGu7X1W3uotolr7s5vPSe+JWVZ11FwEAwGwCEAAA1uZRN5bdfF76I7CqzAYAAFYmAAEAYG3n3QU0e7+qPugugpPzQVX9tLuIZumzAQCAlQlAAABYW/opb9/+4GnSeyN9NgAAsDIBCAAAa0tfcqYvuXm69N5Inw0AAKxMAAIAwNrSX3TsXQ88TXpvpM8GAABWJgABAGBt6ae800/583TpvZE+GwAAWJkABACAtaW/6Dh9yc3TpfdG+mwAAGBlAhAAANaWfsr7srsATlZ6b6TPBgAAViYAAQBgbelLzvRT/jxdem+kzwYAAFYmAAEAYG3pLzpOf9E1T5feG/er6lZ3EQAAzCUAAQBgTS9X1XPdRTRLP+XP06X3xnNV9VJ3EQAAzCUAAQBgTR5xY8nN0+kNMwIAgBUJQAAAWNN5dwHNPqmqB91FcLLeqqseSZY+IwAAWJEABACANaWf7n5QFtw83SdV9bC7iGbpMwIAgBUJQAAAWFP6ctMjjrhOeo+kzwgAAFYkAAEAYE3py82L7gI4eek9kj4jAABYkQAEAIA1nXUX0Cz9dD/XS++R9BkBAMCKBCAAAKwp/QXH6cttrpfeI+kzAgCAFQlAAABYU/rjbS67C+DkpfdI+owAAGBFAhAAANaUvtxMP93P9dJ7JH1GAACwIgEIAABrSl9upr/gmuul90j6jAAAYEUCEAAA1nKnql7pLqJZ+ul+rpfeI69W1bPdRQAAMJMABACAtdyvqlvdRTRLX25zvfQeuVVVr3cXAQDATAIQAADW4tE2lttcT4+YFQAArEQAAgDAWs67C2j2QVW9310EJ++9uuqVZOmzAgCAlQhAAABYS/qpbif72dVldwHN0mcFAAArEYAAALCW9KWmAIRdpfdK+qwAAGAlAhAAANZy1l1As4vuArgx0nslfVYAALASAQgAAGtJf65/+ql+dpfeK+mzAgCAlQhAAABYS/pjbdKX2uwuvVfSZwUAACsRgAAAsJb0pWb6i63ZXXqvpM8KAABWIgABAGAt6UvN9Pc6sLv0XkmfFQAArEQAAgDAWtJfbJz+WCN2l94rAhAAAFYhAAEAYA0vVdWXu4tolr7UZnfpvfLlqrrbXQQAAPMIQAAAWIMT3Zba7E6vmBkAAKxAAAIAwBrOuwto9qiq3uoughvjsqo+7S6iWfrMAABgBQIQAADWkH6a+0FVfdxdBDfGx1X1dncRzdJnBgAAKxCAAACwhvRlpkcasa/0nkmfGQAArEAAAgDAGtKXmRfdBXDjpPdM+swAAGAFAhAAANZw1l1As/TT/OwvvWfSZwYAACsQgAAAsIb0FxqnL7PZX3rPpM8MAABWIAABAGAN6Y+zuewugBsnvWfSZwYAACsQgAAAsIb0ZWb6aX72l94z6TMDAIAVCEAAAFhD+jIz/YXW7C+9Z9JnBgAAKxCAAACwtGeq6tXuIpqln+Znf+k981pV3ekuAgCAWQQgAAAs7az8npm+zGZ/6T1zu65CEAAAWEz6H6YAACzvvLuAE5C+zGZ/esbsAABgYQIQAACWlv4s/59V1bvdRXDjvFNXvZMsfXYAALAwAQgAAEtLX2I6yc+hLrsLaJY+OwAAWJgABACApaUvMS+6C+DGSu+d9NkBAMDCBCAAACztrLuAZr4BwqHSeyd9dgAAsDABCAAAS0t/kXH6EpvDpfdO+uwAAGBhAhAAAJaW/hib9CU2h0vvnfTZAQDAwgQgAAAsLX2Jmf4iaw6X3jvpswMAgIUJQAAAWFr6EjP9RdYcLr130mcHAAALE4AAALC09CVm+mOMOFx673gHCAAAixKAAACwpBer6oXuIpqlL7E5XHrvvFBVv9RdBAAAcwhAAABYUvq3P6ossTmc3jFDAABYkAAEAIAlpT/C5lF5kTWHe7OueihZ+gwBAGBBAhAAAJaUfnr77ar6qLsIbqyPquon3UU0S58hAAAsSAACAMCS0peXHmHEsdJ7KH2GAACwIAEIAABLSl9eXnQXwI2X3kPpMwQAgAUJQAAAWFL68jL99D7HS++h9BkCAMCCBCAAACwpfXmZvrzmeOk9lD5DAABYkAAEAIAlpS8vL7sL4MZL76H0GQIAwIIEIAAALCl9eZl+ep/jpfdQ+gwBAGBBAhAAAJaUvrxMf4E1x0vvofQZAgDAggQgAAAs5Zmqeq27iGbpp/c5XnoPvV5XswQAAI4mAAEAYCmvlcVl+vKa46X30DNV9Wp3EQAAzCAAAQBgKefdBZyA9OU1x9NDZgkAAAsRgAAAsJT0Z/f/b1W9010EN95P6qqXkqXPEgAAFiIAAQBgKelLyzer6lF3Edx4j6rqsruIZumzBACAhQhAAABYSvrS8qK7AMZI76X0WQIAwEIEIAAALOWsu4Bm3t3AUtJ7KX2WAACwEAEIAABLSX9xcfrSmuWk91L6LAEAYCECEAAAlpL+2Jr0pTXLSe+l9FkCAMBCBCAAACwlfWmZ/uJqlpPeS+mzBACAhQhAAABYSvrSMv3F1SwnvZfSZwkAAAsRgAAAsJT0pWX6Y4tYTnovpc8SAAAWIgABAGAJL1TVi91FNEtfWrOc9F66W1czBQAAjiIAAQBgCU5sW1qzHL1UddZdAAAAN58ABACAJZx3F3AC0l9czXLerKpH3UU0M1MAADiaAAQAgCWkfwPkJ1X18+4iGOPnVfVudxHN0mcKAAALEIAAALCE9GWlRxaxtPSeSp8pAAAsQAACAMAS0peVF90FME56T6XPFAAAFiAAAQBgCenLyvTT+iwvvafSZwoAAAsQgAAAsIT0ZWX6sprlpfdU+kwBAGABAhAAAJaQvqxMX1azvPSeSp8pAAAsQAACAMAS0peV6ctqlpfeU+kzBQCABQhAAABYQvqyMn1ZzfLSeyp9pgAAsAABCAAAx7pdVa93F9EsfVnN8tJ76qz8vQoAwJH8QgkAwLFerao73UU0S19Ws7z0nrpTVa90FwEAwM0mAAEA4Fjn3QWcgPRlNcvTU2YLAABHEoAAAHCs9Gf1f1RVb3cXwTgP66q3kqXPFgAAjiQAAQDgWOlLysuqetRdBOM8qqq3uotolj5bAAA4kgAEAIBjpS8pL7oLYKz03kqfLQAAHEkAAgDAsc66C2jmXQ2sJb230mcLAABHEoAAAHCs9BcVpy+pWU96b6XPFgAAjiQAAQDgWOmPqUlfUrOe9N5Kny0AABxJAAIAwLHSl5SX3QUwVnpvpc8WAACOJAABAOBY6UvK9BdVs5703kqfLQAAHEkAAgDAsdKXlOmPKWI96b2VPlsAADiSAAQAgGM8X1UvdRfRLH1JzXrSe+teXc0YAAA4iAAEAIBjnHcXcALSl9SsR2/5FggAAEcQgAAAcAzLSS+qZj0CEDMGAIAjCEAAADhG+nLy3ar6sLsIxvqwqt7rLqJZ+owBAOAIAhAAAI6Rvpy86C6A8dJ7LH3GAABwBAEIAADHSF9OekQRa0vvsfQZAwDAEQQgAAAcI305mb6cZn3pPZY+YwAAOIIABACAY6QvJ9OX06wvvcfSZwwAAEcQgAAAcIz05WT6cpr1pfdY+owBAOAIAhAAAI6RvpxMX06zvvQeS58xAAAcQQACAMAx0peT6ctp1pfeY+kzBgCAIwhAAAA41K2qOusuoln6cpr1pffY/bqaNQAAsDcBCAAAh3qlqp7tLqJZ+nKa9aX32LNV9XJ3EQAA3EwCEAAADnXeXcAJSF9Osz49ZtYAAHAgAUHHpm4AACAASURBVAgAAIdKfzb/J1X1sLsIxntQVR93F9EsfdYAAHAgAQgAAIdKX0peVtWn3UUw3qd1FYIkS581AAAcSAACAMCh0peSF90FECO919JnDQAABxKAAABwqPSlpHczsJX0XkufNQAAHEgAAgDAodKXkulLabaT3mvpswYAgAMJQAAAOFT6UjJ9Kc120nstfdYAAHAgAQgAAIdKX0pedhdAjPReS581AAAcSAACAMCh0peS6S+mZjvpvZY+awAAOJAABACAQ6UvJdMfS8R20nstfdYAAHAgAQgAAId4rqrudRfRLH0pzXbSe+3lupo5AACwFwEIAACHuF9Vt7qLaJa+lGY76b12q6rOuosAAODmEYAAAHAIj6SxlGY76e8AqTJzAAA4gAAEAIBDpC8j36+qD7qLIMYHVfXT7iKapc8cAAAOIAABAOAQ6ctIJ/LZWnrPpc8cAAAOIAABAOAQ6ctIj79ia+k9lz5zAAA4gAAEAIBDpC8j05fRbC+959JnDgAABxCAAABwiPRlZPoymu2l91z6zAEA4AACEAAADpG+jExfRrO99J5LnzkAABxAAAIAwCHSl5Hpy2i2l95z6TMHAIADCEAAADhE+jIyfRnN9tJ7Ln3mAABwAAEIAAD7ulVVZ91FNEtfRrO99J67X1ezBwAAdiYAAQBgXy9X1XPdRTRLX0azvfSee66q7nUXAQDAzSIAAQBgXx5FYxnN9vSc2QMAwJ4EIAAA7Ct9CflJVT3oLoI4b9VV7yVLnz0AAOxJAAIAwL7Sl5APyiKa7X1SVQ+7i2iWPnsAANiTAAQAgH2lLyEvugsgVnrvpc8eAAD2JAABAGBf6UtI72KgS3rvpc8eAAD2JAABAGBf6UvI9CU0fdJ7L332AACwJwEIAAD7Sl9Cpi+h6ZPee+mzBwCAPQlAAADYV/oSMn0JTZ/03kufPQAA7EkAAgDAvtKXkOlLaPqk91767AEAYE8CEAAA9pW+hExfQtMnvffSZw8AAHsSgAAAsI9nq+qV7iKapS+h6ZPee6/W1QwCAICdCEAAANjH/aq61V1Es/QlNH3Se+9WVZ11FwEAwM0hAAEAYB8eQWMJTR+9ZwYBALAHAQgAAPtIXz5+UFXvdxdBrPfqqgeTpc8gAAD2IAABAGAf6cvHi+4CiJf+LZD0GQQAwB4EIAAA7CN9+Zi+fKZfeg+mzyAAAPYgAAEAYB/py8f05TP90nswfQYBALAHAQgAAPtIXz6mL5/pl96D6TMIAIA9CEAAANhH+vIxfflMv/QeTJ9BAADsQQACAMA+0peP6ctn+qX3YPoMAgBgDwIQAAD2kb58TF8+0y+9B9NnEAAAexCAAACwj/TlY/rymX7pPXjeXQAAADeHAAQAgF3dq6rnu4tolr58pl96Dz5fVS91FwEAwM0gAAEAYFfp3/6osnymnx40iwAA2JEABACAXaUvHT+tqre6iyDeZV31YrL0WQQAwI4EIAAA7Cp96figqj7uLoJ4H1fVw+4imqXPIgAAdiQAAQBgV+lLR48e4lSk92L6LAIAYEcCEAAAdpW+dExfOnM60nsxfRYBALAjAQgAALtKXzqmL505Hem9mD6LAADYkQAEAIBdpS8d05fOnI70XkyfRQAA7EgAAgDArtKXjulLZ05Hei+mzyIAAHYkAAEAYFfpS8f0pTOnI70X02cRAAA7EoAAALCr8+4CmqUvnTkd6b2YPosAANiRAAQAgF3cqapXuotolr505nSk9+KrdTWTAADgCwlAAADYxVn53TF96czpSO/F21X1encRAACcvvQ/YgEA2I1n7ls6czr0opkEAMAOBCAAAOwifdn4s6p6t7sIeOyduurJZOkzCQCAHQhAAADYRfqy8aK7APiM9G+BpM8kAAB2IAABAGAX6cvG9GUzpye9J9NnEgAAOxCAAACwi/RlY/qymdOT3pPpMwkAgB0IQAAA2EX6sjF92czpSe/J9JkEAMAOBCAAAOwifdmYvmzm9KT3ZPpMAgBgBwIQAAB2kb5sTF82c3rSezJ9JgEAsAMBCAAAu0hfNqYvmzk96T2ZPpMAANiBAAQAgF2kLxvTl82cnvSePO8uAACA0ycAAQDgOner6oXuIpqlL5s5Pek9+UJVvdhdBAAAp00AAgDAddK//VFl2czp0ZNmEwAA1xCAAABwnfQl46OquuwuAj7jzbrqzWTpswkAgGsIQAAAuE76kvFhVX3UXQR8xkdV9XZ3Ec3SZxMAANcQgAAAcJ30JaNHDXGq0nszfTYBAHANAQgAANc57y6gWfqSmdOV3pvpswkAgGsIQAAAuM5ZdwHN0pfMnK703kyfTQAAXEMAAgDAddIfM5O+ZOZ0pfdm+mwCAOAaApD/a+/ugz2r6/uAv5fV5WlXRFgxgFK1xiBKFcUan5M2GemDY2NNiWPS0ShN89RpTdNO26l9nnYck0lbTSPRjiaNiajRNA3G2jQJ+BApVgHBkKoVBbIssjwsy+7C7vaPs9RF77279+69v8855/N6zXxH/3zPuZ/z5befzznnCwDA0XRvMnZvMjNe3Wuz+94EAMBRGIAAAHA03ZuM3ZvMjFf32uy+NwEAcBQGIAAAHE33g4a7N5kZr+612X1vAgDgKAxAAABYyeYkj6sOUax7k5nx6l6bZ2TYowAAYEkGIAAArOTMaDB2bzIzXt1rc3OGIQgAACzJAAQAgJX4xr4mM+OlNu1RAACswAAEAICVdG8u7ktyT3UIWMbdGWq0s+57FAAAKzAAAQBgJd2bi3ckOVQdApZxKMnO6hDFuu9RAACswAAEAICVdG8u+sQQY9e9RrvvUQAArMAABACAlXRvLnZvLjN+3Wu0+x4FAMAKDEAAAFhJ9+Zi9+Yy49e9RrvvUQAArMAABACAlXRvLnZvLjN+3Wu0+x4FAMAKDEAAAFhJ9+Zi9+Yy49e9RrvvUQAArMAABACAlZxVHaBY9+Yy49e9RrvvUQAArMAABACAlXR/urp7c5nx616j3fcoAABWYAACAMByTklyanWIYt2by4xf9xrdmmGvAgCAb2MAAgDAcnxaRnOZ8VOj3gIBAGAZBiAAACyne1PxUJKd1SHgKO7IUKuddd+rAABYhgEIAADL6d5UvDvJvuoQcBT7ktxTHaJY970KAIBlGIAAALCc7k1FnxZiKrrXave9CgCAZRiAAACwnO5ngHRvKjMd3Wu1+14FAMAyDEAAAFjO9uoAxbo3lZmO7rXafa8CAGAZBiAAACyn+2dlujeVmY7utdp9rwIAYBkGIAAALKd7U7F7U5np6F6r3fcqAACWYQACAMByujcVuzeVmY7utdp9rwIAYBkGIAAALKf7wcLdm8pMR/da7b5XAQCwDAMQAACWckKSM6pDFOveVGY6utfq9vi3LQAAS/AjEQCApZyR5FHVIYp1byozHd1rdXOSx1WHAABgfAxAAABYim/qJzuqA8AxUqv2LAAAlmAAAgDAUro3Ex9Mcnd1CDhGuzLUbGfd9ywAAJawqToAFNuf5NHVIQCA0bk1ybnVIWAVbk1ydnUIAGB0HkyypToEVPEGCN3dXx0AABil7mcqMD1qFgBYit4XrRmA0N2e6gAAwChpJjM1ahYAWIoBCK0ZgNCdAQgAsBTNZKZGzQIASzEAoTUDELrzHwEAYCmayUyNmgUAlqL3RWsGIHTnDRAAYCmayUyNmgUAlmIAQmsGIHR3V3UAAGCUNJOZGjULACxlV3UAqGQAQndfqQ4AAIySZjJTo2YBgKV8uToAVDIAoTsDEABgKZrJTI2aBQCWovdFawYgdGcKDgAsRTOZqVGzAMBS9L5ozQCE7vxHAABYimYyU7OjOgAAMEp6X7S2qToAFNua5L7qEADAqNyT5LHVIWAN7knymOoQAMBoHMrQ+9pTHQSqeAOE7nYn+dPqEADAqHj7g6lSuwDAkW6P4QfNGYBA8kfVAQCAUdFEZqrULgBwpE9XB4BqBiCQfKo6AAAwKprITJXaBQCOpOdFewYg4D8GAMAjaSIzVWoXADjSJ6sDQDUDEEiuSbK/OgQAMBo7qgPAGqldAOBh+5J8tjoEVDMAgeSBJJ+vDgEAjMbO6gCwRmoXAHjYtUn2VoeAagYgMLi6OgAAMBo+I8RUqV0A4GGfqA4AY2AAAoOPVAcAAEZDE5mpUrsAwMM+XB0AxsAABAZXJbm9OgQAMAqayEyV2gUAkuTWJJ+uDgFjYAACg4MxGQcABg6SZqrULgCQJB/M0OuC9gxA4Js+UB0AACj3UJJd1SFgje7KUMMAQG8frA4AY7GpOgCMyOYktyV5fHUQAKDM7UnOrg4Bx+H2JE+oDgEAlNmR5JwkB6qDwBh4AwS+6UBMyAGgO2coMHVqGAB6+0AMP+D/MwCBR3p7kkPVIQCAMprHTJ0aBoC+DmXobQGHGYDAI30hyceqQwAAZTSPmTo1DAB9XZnkpuoQMCYGIPDtfr46AABQRvOYqVPDANCXnhZ8CwMQ+Ha/m+S66hAAQAnNY6ZODQNATzck+R/VIWBsDEBgaf+xOgAAUELzmKlTwwDQ09viXFv4NgYgsLRfTfK16hAAwMJpHjN1ahgA+vlqkvdVh4AxMgCBpT2Q5B9WhwAAFk7zmKlTwwDQz88m2VcdAsbIAASW974kV1eHAAAWSvOYqVPDANDLp5JcUR0CxmpTdQAYuecm+UwMCwGgi1OT7KkOAcfhlCT3V4cAABbiYJIXJLmmOgiMlaYurOzaJL9WHQIAWIj7YvjB9O1Jsrs6BACwEO+J4QesyBsgcHTnJvlihidCAYD5+lKSP1sdAtbBl5I8pToEALChdid5epLbqoPAmHkDBI7u60neXB0CANhwzk5gLtQyAMzf34nhBxyVAQgcm19K8hvVIQCADaVpzFyoZQCYtw8meXd1CJgCAxA4dj+W5JbqEADAhtE0Zi7UMgDM19eSXFYdAqbCAASO3d1JXpfkQHUQAGBD7KgOAOtELQPAPB1M8iNJ7qoOAlNhAAKrc1WSf1sdAgDYEDurA8A6UcsAME//PMnvV4eAKTEAgdV7S5IPVYcAANadzwYxF2oZAObnt5L86+oQMDUGILB6BzJ8Cuvq6iAAwLrSNGYu1DIAzMunk/xQfJYdVs0ABNbmgSSvSnJTdRAAYN1oGjMXahkA5uPGJH85yZ7qIDBFBiCwdt9I8v1JvlYdBABYFw6OZi7UMgDMw61JLolDz2HNNlUHgBm4MMkfJHlsdRAAYM0OJDkxPivAPGxOsu/w/wIA07QryUuSfKE6CEyZN0Dg+F2X5MXxJggATNmdMfxgPg5keFsZAJim25N8bww/4LgZgMD6+EKSF2QYhgAA0+PMBOZGTQPANN2Uocf0ueogMAcGILB+bkvy8iRXFecAAFZPs5i5UdMAMD1/lOSlSW6pDgJzYQAC62tXku9L8oHqIADAqmgWMzdqGgCm5bcyfPbqzuogMCcGILD+9iW5NMm/jG+JA8BUaBYzN2oaAKbhoSRvSfIDSfYUZ4HZMQCBjXEgyT/NcDj6l4uzAABHp1nM3KhpABi/WzK89fEv4iFa2BAGILCxPp3koiTvqw4CAKxIs5i5UdMAMG4fSvKcOEsWNpQBCGy8e5K8NsllSXYXZwEAlqZZzNyoaQAYp91JfjTJq5PcVZwFZs8ABBbn8iRPT/LOJAeLswAAj6RZzNyoaQAYl0NJrkhyQZJ3F2eBNgxAYLFuS/K3kjw/ydXFWQCAb9pRHQDWmZoGgPH4TJIXJfnBDOd+AAtiAAI1rk3ykiSvTPJ/a6MAAPG0PPOjpgGg3teT/M0kL0jyqeIs0NKm6gBAtiS5NMnPJHlWcRYA6GhPklOrQ8AGuD/JKdUhAKCh65K8PcmvJHmgOAu05g0QqLc/yXuTXJjhrZDfzvBdSABgMXwqiLnyFggALM6hJB/P8LWPZ2c4A9bwA4oZgMC4XJ3kryZ5ZpJ3xD9aAWAR/PeWuVLbALDxdmR42+OCJN+X5L/Gg60wGgYgME43JvmJJN+R4a2Qf5/hAHUAYP1pEjNXahsANsadGT5v9cok5yb5ySQ3lSYClvSo6gDAig5meCvk6iR/N8kLk7wqyYuSXJTh/BAA4PhoEjNXahsA1sf+JNdm6M98JMOB5gdLEwHHxAAEpuPIYUiSnJTkeUm+O8Ng5PlJzq6JBgCT5gwQ5kptA8Da3JrkM0k+mWHYcW2SvaWJgDUxAIHp2ptHDkSS5JQkTzm8nnzE/39skpMP/++JSU5Nsi32AABIkp3VAWCDqG0AGDyU5L4kuzP0U+5Ncv/h//3y4fWVI/7/npqYwHrT/IR52ZPkhsMLAI7VLUmeWB2ikM8EMVfda/uWJOdVhwAAoI5D0AEA2F4doFj3JjHz1b22H18dAACAWgYgAAC9nZbhXKnOujeJma/utX1SksdUhwAAoI4BCABAb56QdlA086W27XEAAK0ZgAAA9Na9OXgwyTeqQ8AG2ZmhxjvrvscBALRmAAIA0Fv35uA3kjxUHQI2yIEkd1WHKNZ9jwMAaM0ABACgt7OqAxTrfkYC89e9xrvvcQAArRmAAAD01v3p6O7NYeave4133+MAAFozAAEA6G17dYBi3ZvDzF/3Gu++xwEAtGYAAgDQW/eno3dUB4AN1r3Gu+9xAACtGYAAAPTW/fv4O6sDwAbrXuPd9zgAgNYMQAAAeuv+dHT3zwMxf91rvPseBwDQmgEIAEBv3ZuD3ZvDzF/3Gu++xwEAtGYAAgDQ16OSnF4dolj35jDz173Gz8iw1wEA0JABCABAX9vj92D3A6KZv+41vinJmdUhAACo0f0fvAAAnfk0jKfjmT81bq8DAGjLAAQAoK/uTcEHktxXHQI22L0Zar2z7nsdAEBbBiAAAH2dVR2gmCfj6WJndYBi3fc6AIC2DEAAAPrq/lS0AQhddK/17nsdAEBbBiAAAH1trw5QrHtTmD6613r3vQ4AoC0DEACAvro/Fd29KUwf3Wu9+14HANCWAQgAQF/dm4I7qgPAgnSv9e57HQBAWwYgAAB9dT8YuPvB0PTRvda773UAAG0ZgAAA9NX9qejunwWij+613n2vAwBoywAEAKCv7k3B7k1h+uhe694AAQBoygAEAKCnbUlOrg5RrPu5CPTRvdZPTrK1OgQAAItnAAIA0FP3tz8ST8XTh1q35wEAtGQAAgDQU/dm4KEkd1aHgAXZmaHmO+u+5wEAtGQAAgDQU/dv4t+V5MHqELAgDybZVR2iWPc9DwCgJQMQAICeuj8N7ZNAdNO95rvveQAALRmAAAD01L0Z2L0ZTD/da777ngcA0JIBCABAT9urAxTr3gymn+41333PAwBoyQAEAKCn7k9D76gOAAvWvea773kAAC0ZgAAA9NT9QOCd1QFgwbrXfPc9DwCgJQMQAICeuj8N3f1zQPTTvea773kAAC0ZgAAA9NS9Gdi9GUw/3Wu++54HANCSAQgAQD+bkzyuOkSx7s1g+ule82dk2PsAAGjEAAQAoJ8zoxHY/UBo+ule85szDEEAAGjEAAQAoB+fgvE0PP2oeXsfAEA7BiAAAP10bwLuS3JvdQhYsLsz1H5n3fc+AIB2DEAAAPo5qzpAsTuSHKoOAQV2Vgco1n3vAwBoxwAEAKCf7k9B+xQQXXWv/e57HwBAOwYgAAD9bK8OUKx7E5i+utd+970PAKAdAxAAgH66PwXdvQlMX91rv/veBwDQjgEIAEA/3ZuA3c9BoK/uAxBngAAANGMAAgDQz3nVAYp1bwLTV/faf2J1AAAAFssABACgly1Jzq8OUWxHdQAo0r32n5Hk0dUhAABYHAMQAIBenpNhCNJZ96fg6av7599OTHJhdQgAABbHAAQAoJcXVwcYge5PwdOX2k9eUh0AAIDFMQABAOhF889T8PTl7afkpdUBAABYnE3VAQAAWJgtSe5Msq06SKFDSU5Ksr86CBTYkmRvev878N4kZyZ5sDoIAAAbzxsgAAB9vCy9hx9JcncMP+hrf5J7qkMUe0ySF1WHAABgMQxAAAD6eGV1gBHw+Su68xms5FXVAQAAWAwDEACAHjYneU11iBH4enUAKOYeGPZC/xYGAGjAjz4AgB6+N8lZ1SFG4PrqAFDMPZCcneTl1SEAANh4BiAAAD28sTrASHy+OgAUMwAZvKE6AAAAAABw/M5MsjfJISsXHee1hKm7OPX34RjW3gx7IwAAM+YNEACA+fvxJCdWhxiBh5LcWB0Cit2Q5EB1iBE4Md6MAwAAAIBJOynJ7al/2noM6wvHeS1hLr6Y+vtxDOtPM+yRAADMlDdAAADm7Q1JnlAdYiSuqw4AI+FeGJyV5IerQwAAsHEMQAAA5uukJP+oOsSIXFsdAEbCvfBN/zg+EQgAMFsGIAAA8/W3k5xTHWJErq4OACPxieoAI3JekjdVhwAAYGNsqg4AAMCGOD3JzUnOrA4yEg8keWyS/dVBYAROTHJ3nH/xsJ1JvjPDNQEAYEa8AQIAME9vieHHkT4dww942L4k11SHGJHtSf5JdQgAANafAQgAwPxcmOTHq0OMzFXVAWBk3BOP9FNJLqgOAQDA+jIAAQCYl81JLk/y6OogI+P8D3gk98QjbUnyzvg3MgAAAACM1t9Lcsh6xNqT5JTjuagwQ6cm2Zv6+3Ns66eO56ICAAAAABvjGRma/dUNxLGt/3Y8FxVm7HdTf3+ObT2Q5JnHc1EBABgPr/cCAMzDSUnel+Tk6iAjdGV1ABip36kOMEInJXlPkhOrgwAAAAAAg8tT/+T0WNdTj+O6wpw9JfX351jX24/jugIAAAAA6+T1qW8WjnXdeBzXFTr449Tfp2NdrzuO6woAwAj4BBYAwLR9d5J3VIcYsd+uDgAj5x5Z3juTPL86BAAAAAB09GeS7Ej9U9JjXs9d68WFJv586u/TMa/bkzxpzVcXAAAAAFi1MzN83qm6OTjm9X/WfHWhlz9J/f065nVzksev+eoCAFDGJ7AAAKZnW5Irk5xfHWTk/kt1AJiIK6oDjNzTMnwqbGt1EAAAAACYs61J/jD1T0RPYV2wxmsM3VyY+vt1Cut/Jjl1jdcYAAAAAFjBqRkacNVNwCmsz6/xGkNXN6T+vp3CuirDW3gAAEyAT2ABAEzD6Uk+luTlxTmm4r3VAWBifqU6wES8OMnHM5zDBAAAAAAcp7OTXJf6J5+nsvYl2b6mKw19nZlkb+rv36msG5M8cU1XGgAAAABIkvy5JF9NfbNvSsvh57A270/9/TuldWuS563pSgMAAABAc69Osjv1Tb6prZet5WID+Qupv3+ntnYn+WtrudgAAAAA0NHmJP8syYHUN/emtr6YZNOqrziQDPfOzam/j6e2Dib5hSSPXv0lBwAAAIA+zk3yB6lv6E11/fTqLzlwhDen/j6e6vq9JOes/pIDAAAAwPy9OsmdqW/iTXV9I8nWVV914EjbkuxK/f081bUryWtXfdUBAAAAYKYen+TXUt+4m/r6V6u98MCS/l3q7+epr19NcuZqLzwAAAAAzMWmJD+cZGfqm3VTXw8kOWt1lx9YxjlJ9qX+vp76uiPeBgEAAACgoe9K8rHUN+jmsn5pdZcfOIr/nPr7ei7r95NcuKqrDwAAAAATdE6SdyZ5KPVNubmsh5I8fTV/BOCoLkhyIPX391zWg0l+Mcl3rOaPAAAAAABTsD3Dd/XvT30jbm7rPav4OwDHztlE6792J/k3cT4IAAAAADNwTpKfy9D0qm68zXHtT/KUY/5rAKvxnRneXKi+z+e47kvy1ngjBAAAAIAJem6S92Zo0Fc32ua8/tOx/kGANXl36u/zOa99Sd6f5IXH+gcBAAAAgAqnJbksybWpb6p1WHuTPPGY/jLAWp2XoUlffb93WF9I8g+SnHFMfxkAAAAA2GCPSfK6JB/J0JCvbqB1Wj93DH8f4Pj9h9Tf753WA0k+nOS1SbYdw98HAIBlbKoOAAAwMZuSXJDk+5P8pSQvSbKlNFFPd2Y4n2BXdRBo4Iwkf5Lk9OogDe1L8odJfifJf09yY4YhCQAAx8AABABgZacluSjJ8zJ8o/3FSc4sTUSS/ESSd1SHgEZ+OskvVIcgO5NcleRTGT63eG2Se0sTAQCMmAEIANDVKUlOTLI1w1PNpyc59/B6Uoa3C54eZ0yM0Q1JnpPkoeog0Mijk3w+yfnVQfg2X0vyx0luTnJLkq8fXrsOr90Z3iTZUxUQAKCKAQgAsBHOTnJxhjcnzs8wUHhSkpMyvFFxQl00AKDIwST3ZDgz65bD66Ykn01yTZLb6qIBAHNkAAIArJeLk7wmySuSPKs4CwAwPdcn+WiSKzIMRAAAjosBCABwPLYleWOSN8VnUQCA9XNTksuT/HKS+4qzAAATZQACAKzFY5L8/QwHUZ9enAUAmK9dSd6e5K1x4DsAsEqbqwMAAJNyQpLLkvxmkkuSnFwbBwCYuZOTvDTJj2Z4E+R/JzlUmggAmAxvgAAAx+rJSd6V5HuqgwAAbX0yyeuT3FwdBAAYvxOqAwAAk3Bpkuti+AEA1Hphkmsz/DYBAFiRT2ABACs5IcM3t9+WZEtxFgCAZPhN8teTbEvy8fgkFgCwDJ/AAgCWsyXJe5P8jeogAADL+HCSH0qytzoIADA+BiAAwFK2ZGgoXFIdBADgKK5M8qok+6uDAADj4gwQAOBbnZDhzQ/DDwBgCi5J8uvxmW8A4Fv4cQAAfKu3JnlTdQgAgFU4P8mpST5WHQQAGA8DEADgSJdmOPAcAGBqXpjkK0k+Xx0EABgHZ4AAAA97apLPJdlaHQQAYI12J3l2ki9VBwEA6jkDBABIht8E74rhBwAwbVsznGWm3wEA+AQWAJAkuSzJT1aHAABYB09McnuSa6uDAAC1fAILANiW5OYkT6gOAgCwTnYmeVqSe6qDAAB1vBIKAPxsDD8AgHnZnuRnqkMAALW8AQIAvW1LckuSx1YHAQBYZ/ckOS/eAgGAtrwBY7BONgAABatJREFUAgC9vTGGHwDAPJ2W5A3VIQCAOt4AAYDerk/yzOoQAAAb5KYkz6gOAQDU8AYIAPR1cQw/AIB5Oz/J86pDAAA1DEAAoK/XVAcAAFiAH6wOAADUMAABgL4uqQ4AALAAr6gOAADUcAYIAPR0dpJbq0MAACzIOUluqw4BACyWN0AAoKfnVwcAAFigi6sDAACLZwACAD1dVB0AAGCB/PYBgIYMQACgp++qDgAAsEB++wBAQwYgANDTedUBAAAWyG8fAGjIAAQAejqnOgAAwAKdWx0AAFg8AxAA6GlbdQAAgAXaWh0AAFi8TdUBAIASDyZ5VHUIAIAFeTDJluoQAMBieQMEAAAAAACYHQMQAOhpT3UAAIAF8tsHABoyAAGAnu6rDgAAsEC7qwMAAItnAAIAPd1aHQAAYIG+Xh0AAFg8AxAA6Omr1QEAABbIbx8AaMgABAB6uqk6AADAAvntAwANGYAAQE+frQ4AALBAfvsAQEMGIADQ0zXVAQAAFuh/VQcAABbPAAQAerotyQ3VIQAAFuD6DL99AIBmDEAAoK8rqwMAACzAR6sDAAA1DEAAoK8rqgMAACzA+6sDAAA1NlUHAABKXZ/kmdUhAAA2yE1JnlEdAgCo4Q0QAOjt3dUBAAA20OXVAQCAOt4AAYDeTk3y1SRnVAcBAFhnu5Kcl+S+6iAAQA1vgABAb/cn+cXqEAAAG+DtMfwAgNa8AQIAbEtyc5InVAcBAFgndyR5WpJ7q4MAAHU2VwcAAMrtT7I7yV+pDgIAsE7enOST1SEAgFreAAEAkuGzmL+X5GXVQQAAjtMnkrw0ycHqIABALQMQAOBhT03yuSRbq4MAAKzR7iTPTvKl6iAAQD2HoAMAD/tSkh9Jcqg6CADAGr0xhh8AwGHOAAEAjvTFDIeiv7A6CADAKr0tyc9XhwAAxsMABAD4Vh9P8vQkz6wOAgBwjH4zyWXxJisAcARngAAAS9mS5MNJLqkOAgBwFFcmeVWS/dVBAIBxcQYIALCU/RkaCb9RHQQAYAUfTvIDMfwAAJbgE1gAwHIOJPlQkq1xJggAMD5vS/KmJA9WBwEAxsknsACAY3FpksszDEMAACrtzjD4+PXqIADAuBmAAADH6slJ3pXke6qDAABtfTLJ65PcXB0EABg/Z4AAAMfqK0n+YpIfS3JHcRYAoJc7MvwGeUkMPwCAY+QMEABgNQ4luTbJOzOcEfKsJCeXJgIA5mxXhrM+Ls3w9seh2jgAwJT4BBYAcDy2JXljhu9wn1+cBQCYj5synD/2y0nuK84CAEyUAQgAsF4uTvKaJK/I8GYIAMBqXJ/ko0muSHJNcRYAYAYMQACAjXB2hoHIRRneDHnS4XVSktPiHDIA6OhgknuS7E1yy+F1U5LPZhh43FYXDQAAAAAAAAAAAAAAAAAAAAAAAAAAAAAAAAAAAAAAAAAAAAAAAAAAAAAAAAAAAAAAAAAAAAAAAAAAAAAAAAAAAAAAAAAAAAAAAAAAAAAAAAAAAAAAAAAAAAAAAAAAAAAAAAAAAAAAAAAAAAAAAAAAAAAAAAAAAAAAAAAAAAAAAAAAAAAAAAAAAAAAAAAAAAAAAAAAAAAAAAAAAAAAAAAAAAAAAAAAAAAAAAAAAAAAAAAAAAAAAAAAAAAAAAAAAAAAAAAAAAAAAAAAAAAAAAAAAAAAAAAAAAAAAAAAAAAAAAAAAAAAAAAAAAAAAAAAAAAAAAAAAAAAAAAAAAAAAAAAAAAAAAAAAAAAAAAAAAAAAAAAAAAAAAAAAAAAAAAAAAAAAAAAAAAAAAAAAAAAAAAAAAAAAAAAAAAAAAAAAAAAAAAAAAAAAAAAAAAAAAAAAAAAAAAAAAAAAAAAAAAAAAAAAAAAAAAAAAAAAAAAAAAAAAAAAAAAAAAAAAAAAAAAAAAAAAAAAAAAAAAAAAAAAAAAmJL/B64jpJif9GsiAAAAAElFTkSuQmCC;fontColor=#484B57;strokeWidth=1;" vertex="1" parent="1">
          <mxGeometry x="569" y="340" width="66" height="66" as="geometry" />
        </mxCell>
        <mxCell id="64bBHuUa2oHp0DUWRqnR-10" style="edgeStyle=orthogonalEdgeStyle;rounded=0;orthogonalLoop=1;jettySize=auto;html=1;exitX=0;exitY=0.5;exitDx=0;exitDy=0;dashed=1;fontColor=#595D6B;" edge="1" parent="1">
          <mxGeometry relative="1" as="geometry">
            <mxPoint x="569" y="375" as="sourcePoint" />
            <mxPoint x="540" y="375" as="targetPoint" />
          </mxGeometry>
        </mxCell>
        <mxCell id="64bBHuUa2oHp0DUWRqnR-11" value="&lt;font face=&quot;Courier New&quot;&gt;Kubernetes&lt;br&gt;Database&lt;/font&gt;" style="aspect=fixed;sketch=0;html=1;dashed=0;whitespace=wrap;fillColor=#2875E2;strokeColor=#ffffff;points=[[0.005,0.63,0],[0.1,0.2,0],[0.9,0.2,0],[0.5,0,0],[0.995,0.63,0],[0.72,0.99,0],[0.5,1,0],[0.28,0.99,0]];shape=mxgraph.kubernetes.icon2;prIcon=vol;labelPosition=center;verticalLabelPosition=top;align=center;verticalAlign=bottom;fontColor=#595D6B;" vertex="1" parent="1">
          <mxGeometry x="440" y="349.91999999999996" width="39.67" height="38.08" as="geometry" />
        </mxCell>
        <mxCell id="YjmIes9WM5p89gQ4vKuV-4" style="edgeStyle=orthogonalEdgeStyle;rounded=0;orthogonalLoop=1;jettySize=auto;html=1;exitX=0.995;exitY=0.63;exitDx=0;exitDy=0;exitPerimeter=0;startArrow=classic;startFill=1;fontColor=#595D6B;" edge="1" parent="1" source="64bBHuUa2oHp0DUWRqnR-12">
          <mxGeometry relative="1" as="geometry">
            <mxPoint x="470" y="501" as="targetPoint" />
          </mxGeometry>
        </mxCell>
        <mxCell id="64bBHuUa2oHp0DUWRqnR-12" value="&lt;font face=&quot;Courier New&quot;&gt;K8S-KMS-PLUGIN&lt;/font&gt;" style="aspect=fixed;sketch=0;html=1;dashed=0;whitespace=wrap;fillColor=#4BFCD2;strokeColor=#ffffff;points=[[0.005,0.63,0],[0.1,0.2,0],[0.9,0.2,0],[0.5,0,0],[0.995,0.63,0],[0.72,0.99,0],[0.5,1,0],[0.28,0.99,0]];shape=mxgraph.kubernetes.icon2;prIcon=crd;labelPosition=center;verticalLabelPosition=bottom;align=center;verticalAlign=top;fontColor=#595D6B;" vertex="1" parent="1">
          <mxGeometry x="314.17" y="470.83" width="50" height="48" as="geometry" />
        </mxCell>
        <mxCell id="64bBHuUa2oHp0DUWRqnR-13" style="edgeStyle=orthogonalEdgeStyle;rounded=0;orthogonalLoop=1;jettySize=auto;html=1;exitX=0.5;exitY=1;exitDx=0;exitDy=0;exitPerimeter=0;entryX=0.5;entryY=0;entryDx=0;entryDy=0;entryPerimeter=0;startArrow=classic;startFill=1;fontColor=#595D6B;" edge="1" parent="1" source="64bBHuUa2oHp0DUWRqnR-4" target="64bBHuUa2oHp0DUWRqnR-12">
          <mxGeometry relative="1" as="geometry" />
        </mxCell>
        <mxCell id="YjmIes9WM5p89gQ4vKuV-2" value="" style="points=[[0,0.5,0],[0.24,0,0],[0.5,0.28,0],[0.995,0.475,0],[0.5,0.72,0],[0.24,1,0]];verticalLabelPosition=bottom;sketch=0;html=1;verticalAlign=top;aspect=fixed;align=center;pointerEvents=1;shape=mxgraph.cisco19.key;fillColor=#005073;strokeColor=none;fontColor=#595D6B;" vertex="1" parent="1">
          <mxGeometry x="500" y="350" width="40" height="18" as="geometry" />
        </mxCell>
        <mxCell id="YjmIes9WM5p89gQ4vKuV-3" value="&lt;font face=&quot;Courier New&quot;&gt;TPM or HSM&lt;/font&gt;" style="sketch=0;outlineConnect=0;fontColor=#595D6B;gradientColor=none;fillColor=#4BFCD2;strokeColor=none;dashed=0;verticalLabelPosition=bottom;verticalAlign=top;align=center;html=1;fontSize=12;fontStyle=0;aspect=fixed;pointerEvents=1;shape=mxgraph.aws4.key_management_service_external_key_store;" vertex="1" parent="1">
          <mxGeometry x="474.58000000000004" y="468" width="50.83" height="50.83" as="geometry" />
        </mxCell>
        <mxCell id="YjmIes9WM5p89gQ4vKuV-5" value="" style="shape=image;verticalLabelPosition=bottom;labelBackgroundColor=default;verticalAlign=top;aspect=fixed;imageAspect=0;image=data:image/png,iVBORw0KGgoAAAANSUhEUgAABAAAAAQACAYAAAB/HSuDAAAABmJLR0QA/wD/AP+gvaeTAAAgAElEQVR4nOzda7Bm6Vnf5/vZe04CBDIji4NKRqlKIScggqOKJYR6d0ca7Z6BESYFUgnKCQkjYMCSOMQpjVNUMuWqgFTlRGjGSCOBbQGJDZYiDpKY7pZG9HTraEIZWzax41QcJEcIpEHWeQ7d75MP0z3VvXsf3nfv9a7nfta6ri98AdVd1Khn/X+91t4RAAAAAAAAAAAAAAAAAAAAAAAAAAAAAAAAAAAAAAAAAAAAAAAAAAAAAAAAAAAAAAAAAAAAAAAAAAAAAAAAAAAAAAAAAAAAAAAAAAAAAAAAAAAAAAAAAAAAAAAAAAAAAAAAAAAAAAAAAAAAAAAAAAAAAAAAAAAAAAAAAAAAAAAAAAAAAAAAAAAAAAAAAAAAAAAAAAAAAAAAAAAAAAAAAAAAAAAAAAAAAAAAAAAAAAAAAAAAAAAAAAAAAAAAAAAAAAAAAAAAAAAAAAAAAAAAAAAAAAAAAAAAAAAAAAAAAAAAAAAAAAAAAAAAAAAAAAAAAAAAAAAAAAAAAAAAAAAAAAAAAAAAAAAAAAAAAAAAAADAFJXWB8BQ6okTN8VNj31TXNx4amzEU6OWm2Oj3hy1bOzxf/FQ1Ph0lI2HYmPxUFx80h+XM2e+OO7VAACsU93e/srY/PI3xWLj5ijx1KiLmyPKzbv+L5e6iEV5KDbi03GxPhTX10/Fl677WDl79uGRz4a1EADoTn3xd35jlOv+kyj126LEs6OWvxxRnxERTxvgP/6hiPh4RPzrqPHRKPVfxOb1f1h+931/PMB/NgAAa1JvPfHMWFz89tgo3xo1nh1RnnXpGfFrB/iP/9Mo8fFYlH8VJT76+HPi4g/L6fN/MsB/NoxGACC1endsxAdf8FdiY/N4RHxH1PrciHhGg1M+GREfiVI/ErFxNh4uv1/Onr3Q4A4AgNmrz3nO9fG1X/FXY2PjeJT6vKjxVyPi6xqc8rGI+HDU+uHYLGfjuef+Wbk7Fg3ugKUIAKRTX3LiqfHY4q/FIr47ShyPYart0D4fEeci6qm4/vrfLO963//X+iAAgCmr21vPiKjfG6XcFhHHIuKrWt+0i4ci4sGo8e64eP1vlwceeKj1QXAlAYAU6i23fE1sPvIDEeVlEbEVEZutb1pBjcfL79tiM/7Xcv/5T7U+CABgCuqLXvR1cd1jfz0iXhYR/1n0tV8uRMSDUcs/js2Hf73c/5HPtT4IevovEBNUt7e2otRXRC3fHyWe1PqeATwaEe+MWv5ePP/B014BAwBYTb07NuJDx26LWu6IErdHxPWtbxrAlyLi7RHll8vpB8+3Pob5EgAYXT1x4qvixsUdEfHKiPgPW9+zRn8SJd4Sj11/r9e/AAD2d+kz0FdGjR+NiG9ofc8a/ZuI+MWoN/2y30DF2AQARlNve+5Xx+KmV0bUn4xhfmJ/Lz4btbwxNhev93kAAMDVHn/N/9GfiSh3RsRXt75nRH8aEa+PGy++sfzOBz7f+hjmQQBg7S593/8zEeXVEfGU1vc09MUo5S3x2HWvKw888KetjwEAaKmePPYNUctdEfEjE/kU9LD+PGrcE5uPvN7PCWDdBADWpp44cVPctLgravy3kfOntLZR48tR4p7YeOTn/CEPAMxNveWWr4mNR/92lLgzIm5ofU8in4mI18UjG28oZ88+3PoYpkkAYC3q9vEXR4l7I+qzWt+S2Mej1p8pZ86/vfUhAABjqNvHXh5R/k6UeHrrWxL7P6PGK8uZc+9rfQjTIwAwqHr7C58ej128L6Le3vqWbtR4MK5b/Gj53ff/X61PAQBYh3rrdz4r6uZb4vFf98xy3hb1wivLmQ/+WetDmI6N1gcwHfXkse+Lxy78U+N/RSWOx8WN36/bx3+09SkAAEOqEaWePHZn1M3/I4z/Vb00ynX/vN56/L9ofQjT4Q0Ajqy+6EU3x/UX7otav7/1Lf2r742Nzf+m3H/237W+BADgKOr21jNiI94aNV7Y+pYJeFvEY3eW0x/689aH0DcBgCOpt514XiwW/ygintn6lgn5s4iNHyqnz55qfQgAwGHUk8e+O6L8g4j4i61vmYwS/09EeXk59eDvtz6FfgkAHEq9Ozbiw1v/Q9T42YjYbH3PBNWocW889MW/Wf7gDx5rfQwAwDLqS7/lhvj8zfdGDZ82rseFKPE/xfPO/e1ydyxaH0N/BABWVre3vzLKw38/Il7W+pbpq++NCze8vDzwwEOtLwEA2E+97dhfjEX5jYj4z1vfMn31H8UNX3pFeecffKn1JfRFAGAl9ZYX/KXY3Hh3RHxr61tm5P+Njfrd5f7zf9T6EACA3dQXn/j2KIt3+fV+I6rx0Vgsbi/vff/HWp9CP/wWAJZWt1/wnNjc+HAY/2N7ZizKh+v28dtaHwIAsFO9deu7YmNx3vgfWYlnx+bGh+rJY/9p61PohzcAWErd3np+lHh3RDyl9S0z9nDU8rJy5sF3tj4EACAiom4f+94o5dcj4sbWt8zYZ2Jj47vK/Wc/3PoQ8vMGAAd6/A/2eF8Y/63dFKX+Zr11647WhwAA1JPHXhGlvD2M/9b+QiwWD3hblGUIAOyrbh9/iaqbymbUeEvdPu4n6wIAzdRbt34sorw5/DaoLL4iSn1H3T7+ktaHkJsAwJ7qya0fjFJ/M4z/bDai1DfXk1uvaX0IADA/dXvrrqhxX9gS2Tz+tujJrR9sfQh5+RkA7OrSHxy/GqpudneV0+de1/oIAGAe6vbWXVHi51vfwb4uRsR/VU6f+4etDyEfAYBrGP/dEQEAgLUz/rsiArArAYCrGP/dEgEAgLUx/rskAnANAYAnGP/dEwEAgMEZ/10TAbiKAEBEGP8TIgIAAIMx/idBBOAJAgDG//SIAADAkRn/kyICEBECwOwZ/5MlAgAAh2b8T5IIgAAwZ8b/5IkAAMDKjP9JEwFmTgCYKeN/NkQAAGBpxv8siAAzJgDMkPE/OyIAAHAg439WRICZEgBmxvifLREAANiT8T9LIsAMCQAzYvzPnggAAFzD+J81EWBmBICZMP65RAQAAJ5g/BMiwKwIADNg/LODCAAAGP9cSQSYCQFg4ox/9iACAMCMGf/sQgSYAQFgwox/DiACAMAMGf/sQwSYOAFgoox/liQCAMCMGP8sQQSYMAFggox/ViQCAMAMGP+sQASYKAFgYox/DkkEAIAJM/45BBFgggSACTH+OSIRAAAmyPjnCESAiREAJsL4ZyAiAABMiPHPAESACREAJsD4Z2AiAABMgPHPgESAiRAAOmf8syYiAAB0zPhnDUSACRAAOmb8s2YiAAB0yPhnjUSAzgkAnTL+GYkIAAAdMf4ZgQjQMQGgQ8Y/IxMBAKADxj8jEgE6JQB0xvinEREAABIz/mlABOiQANAR45/GRAAASMj4pyERoDMCQCeMf5IQAQAgEeOfBESAjggAHTD+SUYEAIAEjH8SEQE6IQAkZ/yTlAgAAA0Z/yQkAnRAAEjM+Cc5EQAAGjD+SUwESE4ASMr4pxMiAACMyPinAyJAYgJAQsY/nREBAGAExj8dEQGSEgCSMf7plAgAAGtk/NMhESAhASAR45/OiQAAsAbGPx0TAZIRAJIw/pkIEQAABmT8MwEiQCICQALGPxMjAgDAAIx/JkQESEIAaMz4Z6JEAAA4AuOfCRIBEhAAGjL+mTgRAAAOwfhnwkSAxgSARox/ZkIEAIAVGP/MgAjQkADQgPHPzIgAALAE458ZEQEaEQBGZvwzUyIAAOzD+GeGRIAGBIARGf/MnAgAALsw/pkxEWBkAsBIjH+ICBEAAK5i/IMIMCYBYAR1+/hLotS3R8QNrW+BxmqU+PFy6tybWx8CAK3Vk8fujChvDM/k8GjUxfeVM+9/V+tDpm6j9QFTd2n8/+9h/ENERIka99WTW69pfQgAtFS3t+6KKG8K4x8iIm6IsvGOuv2C21sfMnX+wFmjun38tij1t8L4h934HACAWfLaP+zp0Sj1e8qp86dbHzJVAsCa1Bef+PbYWJyLiCe3vgWS8jkAALPjtX840Gej1K1y6vw/b33IFPkEYA3qd73wm2JjcX8Y/7AfnwMAMCte+4elfE3Ucqpubz2j9SFTJAAMrJ448ZS4eOF3I+LrW98CnXitCADA1HntH1byDVHK/fWWW76m9SFTIwAMqEaUuKn+UkT8x61vgc78fL1168daHwEA61BPHrszSvxc6zugL/VbYuOx+1pfMTUCwJBuPXZX1Pr9rc+ADvkcAIBJ8to/HEGpL6+3HvvvWp8xJf4gGkjd3tqKEg9ExHWtb4GO+cGAAEyGH/gHg3gsapwoZ859sPUhU+APowHUF73o5rjusY9GxDe0vgUmwq8IBKBrvvmHQX0i4rFnl9Mf+vPWh/TOJwBD2Hzsl8L4hyH5wYAAdMv4h8F9Y5Tr72l9xBR4A+CI6slj3xdR3t76DpggnwMA0B2v/cM61e8tp8//dusreuYPpiOo289/WpTr/igibm59C0yYzwEA6IK/+Ye1+3TcsPEflXee/XTrQ3rlE4CjKJt/J4x/WDefAwCQnvEPo3hqPLrwF0NH4A2AQ6q3njgRdfG+8P9DGIPPAQBIy2v/MKpFLOpWec/5D7Q+pEfeADiE+pznXB+13hf+kIexlKhxnzcBAMimbm/dFVHeFJ4LYSwbUcqb6ktfutn6kB4JAIfx1K+4I6I+q/UZMEM+BwAgDa/9QyMlnh2f/dMfan1Gj5TKFdXbnvvVsbjx30TE01rfAjPmBwMC0JTxD819IupN31zOnPli60N64g2AVV288SfC+IfWfr7euvVjrY8AYJ7qyWN3Romfa30HzNw3Rnn4ztZH9MYbACuoJ048JW5c/NuIeErrW4CI8CYAACPzN/+QykNx48X/oPzOBz7f+pBeeANgFTfWV4fxD5n4mQAAjMb4h3Rujoc3/0brI3riDYAl1Zd+x5Pic9d/LCKe2voW4Cp+RSAAa+dX/UFan4yNr3xmuf/+R1of0gNvACzrc9f9UBj/kJFfEQjAWvlVf5Da18fiC/9l6yN6IQAsod4dGxHlp1vfAezL5wAADM5r/9CDjZ+qAt1SBIBlfOj48Yj45tZnAAfy2wEAGIyf9g+9qN8S21vHWl/RAwFgKfUVrS8AluJzAAAG4bV/6EyJO1qf0AN/oB2gnjjxlLhh8Yko8aTWtwAr8SsCATgUr/1Dl74Yj2x8fTl79gutD8nMGwAHueni9xr/0CWfAwCwMq/9Q7e+Mm5Y/LXWR2QnAByklh9sfQJwKD4HAGAlXvuHzpX4gdYnZOcPt33UF73o5rjusT+JiOtb3wIcic8BANiX1/5hEh6L6xZfV979/s+0PiQrbwDs57oL3xPGP0yBXxEIwJ6Mf5iM6+PC5u2tj8hMANhPie9qfQIwGD8TAIBr+OYfpmZxW+sLMhMA9lBf+tLNqPWW1ncAg/EzAQC4im/+YYrKi+vddu5e/D9mL5/75HMi4imtzwAG53MAALz2D9P11PjAiW9rfURWAsBeShxvfQKwNj4HAJgxr/3DxG1cPNH6hKwEgL3U8p2tTwDWxucAADPltX+YgbJhy+1BANjbd7Q+AFg7nwMAzIjX/mEman1e6xOyUj53UW95wV+KzY0/bn0HMIoaJX68nDr35taHALA+9eSxOyPKG8PzL8zD4uLTy3s+8InWZ2TjDYDdbJa/0voEYDQ+BwCYOK/9wwxtbNh0uxAAdrXxLa0vAEbncwCACfLaP8xV+dbWF2QkAOyqCgAwTyIAwIQY/zBnNt1uBIBdlWe1vgBoxq8IBJgAv+oP5q58c+sLMhIAdlWf2foCoBk/EwCgc775ByLima0PyEgA2KF+z3c+OSJubn0H0JzPAQA65LV/4JKn1Zd+x5NaH5GNALDTw9c/vfUJQBo+BwDoiNf+gSuU+NyNtt0OAsA1Fk9rfQGQhs8BADrhtX/gGtW220kAuEb92tYXAOn4HAAgMa/9A7tb2HY7CADXKP4hAXYjAgAkZPwDeyobtt0OAsBOG+WrWp8ApOVnAgAk4pt/4ABPbn1ANgLANRY3tr4ASMvPBABIwjf/wIFKse12EAB2WpQbWp8ApOdzAICGvPYPLGVRbbsdBIBrXdf6AKALPgcAaMBr/8DSSr2+9QnZCAA7bcTF1icAXfA5AMDIvPYPrKTEhdYnZCMA7FTLo61PALricwCAEXjtH1jdxiOtL8hGALhG9Q8JsCoRAGCNjH/gUOrCX+7uIADsVOILrU8AuuRnAgCsgW/+gUOr5fOtT8hGANhpUR9qfQLQJT8TAGBgvvkHjmZh2+0gAFyj/HnrC4Cu+RwAYABe+weObsO220EA2Gmzfrr1CUD3fA4AcARe+wcGcd3CtttBANjpy5sfa30C0D2fAwAcktf+gYHU+NJ1tt0OAsAO5ezZL0SEV0WAIfgcAGAFXvsHBvSpcvbsw62PyEYA2FX5eOsLgMnwOQDAErz2DwzLptuNALCr+q9aXwBMhs8BAA7gtX9gePVft74gIwFgV/Vftr4AmByfAwDswmv/wHoUm24XAsBuin9YgLUQAQCuYPwDa1Pqv2h9QkYCwG4uxkdbnwBMlp8JABC++QfWbGHT7UYA2M17zv3fEfGp1mcAk+RnAgCz55t/YM0+Wc6c+7etj8hIANhFiagR8U9a3wFMms8BgFny2j+wfuXDrS/ISgDYUxEAgHXzOQAwK177B0ZR60dan5CVALCXEu9pfQIweT4HAGbDa//AeBa23B4EgL08+Wn/JCI+0/oMYBZ8DgBMmtf+gRF9Kp7//n/a+oisBIA9lLe97WJE/F7rO4DZEAGASTL+gZH9Xrk7Fq2PyEoA2Fc51foCYFb8TABgUnzzD4yu1Ptbn5CZALCfC9e9IyIutD4DmA0/EwCYDN/8Aw08Gg9v/lbrIzITAPZRHnjgoYg43/oOYHZ8DgB0zWv/QCO/V86e/fetj8hMADhQfUfrC4BZ8jkA0CWv/QPN1GK7HUAAOMjFG38tany59RnA7PgcAOiO1/6Bhr4Umw//eusjshMADlDe+97PRpTfbn0HMFs+BwC64LV/oKla3lHu/8jnWp+RnQCwjFJ+pfUJwKz5HABIzWv/QAK/2vqAHng9awk1osTJrT+KiL/c+hZg1u4qp8+9rvURAFfyN/9AczU+Ws6c+7bWZ/TAGwBLKBE1ov5i6zuA2fM5AJCK8Q+kUOobW5/QCwFgWRdv/LWI+ELrM4DZ8zkAkILX/oEkPhs3Lv631kf0QgBY0uM/DLDe0/oOYPb8dgCgOT/tH0ijxC+U3/nA51uf0QsBYBUXbvhfIsI/XEAGPgcAmvDaP5DIZ+LCDa9vfURPBIAVlAceeCii3tv6DoBLRABgVMY/kEqJex5/U5tlCQCrevwtgM+0PgPgEj8TABiFb/6BZD4dm4s3tD6iNwLAisoDDzwUtf6Pre8AuMTPBADWzjf/QDolfra8+/3+YnZFAsBhPLr5pojyL1ufAXAFnwMAa+G1fyCdGh+NJ3/dL7c+o0cq7iHV7RfcHmXjna3vALhCjRI/Xk6de3PrQ4BpqCeP3RlR3hieGYFMFnGyvOfcmdZn9MgbAIdUzrz/XRHxG63vALiCzwGAwXjtH8ip/prxf3gCwFFsbvxURPz71mcA7OBzAOBIvPYPJPWZqBf/ZusjeiYAHEH53bOfjFr++9Z3AOzCbwcADsVP+wfyKq8pZz74Z62v6JlXugZQT27944h4aes7AHZxVzl97nWtjwD64G/+gcR+o5w+9/LWR/TOGwBDuGHjJyLiT1qfAbALnwMASzH+gcQ+Ho9s3Nn6iCkQAAZQ3nn201HLHRGxaH0LwC58DgDsy2v/QGIXIzZ+uJw962evDUAAGEg58+D9UerPtr4DYBd+OwCwJz/tH0it1L9VTp99b+szpkIAGNLzzr8uop5qfQbAHrwJAFzF3/wDuZV3xfPO/8+tr5gSAWBA5e5YxI2Ll0WUf9b6FoBdeBMAeIK/+QeS+8N4pPxAudtn1kPyB/4a1Ntf+PR49MJHosTTW98CsAe/HQBmzA/8A5L7d7G4+Nzyng98ovUhUyMArEnd3np+lHggIm5qfQvALmqU+PFy6tybWx8CjKuePHZnRHljeA4EMqrx5djceGG5/+yHW58yRT4BWJNy5twHIzZeEhGPtL4FYBc+B4AZ8to/kNzDEXG78b8+AsAaldNn3xu1vjwiLrS+BWAPrxUBYB689g8kdyGivrycOfe+1odMmQCwZuXM+d+KWl4dEbX1LQB78NsBYOL8tH8guRpRX1VOn//t1odMnQAwgnLmwTdFjVdE+AmWQEo+B4AJ89o/kNwiotxRTp+/r/Uhc+BfBCOq21s/HCV+KYQXIC+/HQAmxGv/QHKLiPKKcvrBf9D6kLkQAEYmAgAdEAFgAox/IDnjvwEBoAERAOiACAAdM/6B5Iz/RgSARkQAoAMiAHTI+AeSM/4bEgAaEgGADogA0BHjH0jO+G9MAGhMBAA6IAJAB4x/IDnjPwEBIAERAOiACACJGf9AcsZ/EgJAEiIA0AERABIy/oHkjP9EBIBERACgAyIAJGL8A8kZ/8kIAMmIAEAHRABIwPgHkjP+ExIAEhIBgA6IANCQ8Q8kZ/wnJQAkJQIAHRABoAHjH0jO+E9MAEhMBAA6IALAiIx/IDnjPzkBIDkRAOiACAAjMP6B5Iz/DggAHRABgA6IALBGxj+QnPHfCQGgEyIA0AERANbA+AeSM/47IgB0RAQAOiACwICMfyA5478zAkBnRACgAyIADMD4B5Iz/jskAHRIBAA6IALAERj/QHLGf6cEgE6JAEAHRAA4BOMfSM7475gA0DERAOiACAArMP6B5Iz/zgkAnRMBgA6IALAE4x9IzvifAAFgAkQAoAMiAOzD+AeSM/4nQgCYCBEA6IAIALsw/oHkjP8JEQAmRAQAOiACwBWMfyA5439iBICJEQGADogAEMY/kJ7xP0ECwASJAEAHRABmzfgHkjP+J0oAmCgRAOiACMAsGf9Acsb/hAkAEyYCAB0QAZgV4x9IzvifOAFg4kQAoAMiALNg/APJGf8zIADMgAgAdEAEYNKMfyA5438mBICZEAGADogATJLxDyRn/M+IADAjIgDQARGASTH+geSM/5kRAGZGBAA6IAIwCcY/kJzxP0MCwAyJAEAHRAC6ZvwDyRn/MyUAzJQIAHRABKBLxj+QnPE/YwLAjIkAQAdEALpi/APJGf8zJwDMnAgAdEAEoAvGP5Cc8Y8AgAgAdEEEIDXjH0jO+CciBAAuEQGADogApGT8A8kZ/zxBAOAJIgDQARGAVIx/IDnjn6sIAFxFBAA6IAKQgvEPJGf8cw0BgGuIAEAHRACaMv6B5Ix/diUAsCsRAOiACEATxj+QnPHPngQA9iQCAB0QARiV8Q8kZ/yzLwGAfYkAQAdEAEZh/APJGf8cSADgQCIA0AERgLUy/oHkjH+WIgCwFBEA6IAIwFoY/0Byxj9LEwBYmggAdEAEYFDGP5Cc8c9KBABWIgIAHRABGITxDyRn/LMyAYCViQBAB0QAjsT4B5Iz/jkUAYBDEQGADogAHIrxDyRn/HNoAgCHJgIAHRABWInxDyRn/HMkAgBHIgIAHRABWIrxDyRn/HNkAgBHJgIAHRAB2JfxDyRn/DMIAYBBiABAB0QAdmX8A8kZ/wxGAGAwIgDQARGAqxj/QHLGP4MSABiUCAB0QAQgIox/ID3jn8EJAAxOBAA6IALMnPEPJGf8sxYCAGshAgAdEAFmyvgHkjP+WRsBgLURAYAOiAAzY/wDyRn/rJUAwFqJAEAHRICZMP6B5Ix/1k4AYO1EAKADIsDEGf9AcsY/oxAAGIUIAHRABJgo4x9IzvhnNAIAoxEBgA6IABNj/APJGf+MSgBgVCIA0AERYCKMfyA545/RCQCMTgQAOiACdM74B5Iz/mlCAKAJEQDogAjQKeMfSM74pxkBgGZEAKADIkBnjH8gOeOfpgQAmhIBgA6IAJ0w/oHkjH+aEwBoTgQAOiACJGf8A8kZ/6QgAJCCCAB0QARIyvgHkjP+SUMAIA0RAOiACJCM8Q8kZ/yTigBAKiIA0AERIAnjH0jO+CcdAYB0RACgAyJAY8Y/kJzxT0oCACmJAEAHRIBGjH8gOeOftAQA0hIBgA6IACMz/oHkjH9SEwBITQQAOiACjMT4B5Iz/klPACA9EQDogAiwZsY/kJzxTxcEALogAgAdEAHWxPgHkjP+6YYAQDdEAKADIsDAjH8gOeOfrggAdEUEADogAgzE+AeSM/7pjgBAd0QAoAMiwBEZ/0Byxj9dEgDokggAdEAEOCTjH0jO+KdbAgDdEgGADogAKzL+geSMf7omANA1EQDogAiwJOMfSM74p3sCAN0TAYAOiAAHMP6B5Ix/JkEAYBJEAKADIsAejH8gOeOfyRAAmAwRAEiuRsRPl9Pn3tD6kEzqya3XRMRrW98BsAfjn0kRAJgUEQBITgS4gvEPJGf8MzkCAJMjAgDJiQBh/APpGf9MkgDAJIkAQHKzjgDGP5Cc8c9kCQBMlggAJDfLCGD8A8kZ/0yaAMCkiQBAcrOKAMY/kJzxz+QJAEyeCAAkN4sIYPwDyS2ixo+UM+f+futDYJ0EAGZBBACSm3QEMP6B5Ix/ZkMAYDZEACC5SUYA4x9IzvhnVgQAZkUEAJKbVAQw/oHkjH9mRwBgdkQAILlJRADjH0jO+GeWBABmSQQAkus6Ahj/QHLGP7MlADBbIgCQXJcRwPgHkjP+mTUBgFkTAYDkuooAxj+QnPHP7AkAzJ4IACTXRQQw/oHkjH8IAQAiQgQA0ksdAYx/IDnjHy4RAOASEQBILmUEMP6B5Ix/uIIAAFcQAYDkUkUA4x9IzviHHQQA2EEEAJJLEQGMfyA54x92IQDALkQAILmmEcD4B5Iz/mEPAgDsQQQAkmsSAYx/IDnjH/YhAMA+RAAguVEjgPEPJGf8w5Wu1oYAACAASURBVAEEADiACAAkN0oEMP6B5Ix/WIIAAEsQAYDk1hoBjH8gOeMfliQAwJJEACC5tUQA4x9IzviHFQgAsAIRAEhu0Ahg/APJGf+wIgEAViQCAMkNEgGMfyA54x8OQQCAQxABgOSOFAGMfyA54x8OSQCAQxIBgOQOFQGMfyA54x+OQACAIxABgORWigDGP5Cc8Q9HJADAEYkAQHJLRQDjH0jO+IcBCAAwABEASG7fCGD8A8kZ/zAQAQAGIgIAye0aAYx/IDnjHwYkAMCARAAguasigPEPJGf8w8AEABiYCAAkVyPipyPipjD+gbyMf1gDAQDWoJ489sqIck/47xiQU730P/0ZBWRUI+JV5fS5X2x9CEyNf/HDmngTAABgZf7mH9ZIAIA1EgEAAJZm/MOaCQCwZiIAAMCBjH8YgQAAIxABAAD2ZPzDSAQAGIkIAABwDeMfRiQAwIhEAACAJxj/MDIBAEYmAgAAGP/QggAADYgAAMCMGf/QiAAAjYgAAMAMGf/QkAAADYkAAMCMGP/QmAAAjYkAAMAMGP+QgAAACYgAAMCEGf+QhAAASYgAAMAEGf+QiAAAiYgAAMCEGP+QjAAAyYgAAMAEGP+QkAAACYkAAEDHjH9ISgCApEQAAKBDxj8kJgBAYiIAANAR4x+SEwAgOREAAOiA8Q8dEACgAyIAAJCY8Q+dEACgEyIAAJCQ8Q8dEQCgIyIAAJCI8Q+dEQCgMyIAAJCA8Q8dEgCgQyIAANCQ8Q+dEgCgUyIAANCA8Q8dEwCgYyIAADAi4x86JwBA50QAAGAExj9MgAAAEyACAABrZPzDRAgAMBEiAACwBsY/TIgAABMiAgAAAzL+YWIEAJgYEQAAGIDxDxMkAMAEiQAAwBEY/zBRAgBMlAgAAByC8Q8TJgDAhIkAAMAKjH+YOAEAJk4EAACWYPzDDAgAMAMiAACwD+MfZkIAgJkQAQCAXRj/MCMCAMyICAAAXMH4h5kRAGBmRAAAIIx/mCUBAGZIBACAWTP+YaYEAJgpEQAAZsn4hxkTAGDGRAAAmBXjH2ZOAICZEwEAYBaMf0AAAEQAAJg44x+ICAEAuEQEAIBJMv6BJwgAwBNEAACYFOMfuIoAAFxFBACASTD+gWsIAMA1RAAA6JrxD+xKAAB2JQIAQJeMf2BPAgCwJxEAALpi/AP7EgCAfYkAANAF4x84kAAAHEgEAIDUjH9gKQIAsBQRAABSMv6BpQkAwNJEAABIxfgHViIAACsRAQAgBeMfWJkAAKxMBACApox/4FAEAOBQRAAAaML4Bw5NAAAOTQQAgFEZ/8CRCADAkYgAADAK4x84MgEAODIRAADWyvgHBiEAAIMQAQBgLYx/YDACADAYEQAABmX8A4MSAIBBiQAAMAjjHxicAAAMTgQAgCMx/oG1EACAtRABAOBQjH9gbQQAYG1EAABYifEPrJUAAKyVCAAASzH+gbUTAIC1EwEAYF/GPzAKAQAYhQgAALsy/oHRCADAaEQAALiK8Q+MSgAARiUCAEBEGP9AAwIAMDoRAICZM/6BJgQAoAkRAICZMv6BZgQAoBkRAICZMf6BpgQAoCkRAICZMP6B5gQAoDkRAICJM/6BFAQAIAURAICJMv6BNAQAIA0RAICJMf6BVAQAIBURAICJMP6BdAQAIB0RAIDOGf9ASgIAkJIIAECnjH8gLQEASEsEAKAzxj+QmgAApCYCANAJ4x9ITwAA0hMBAEjO+Ae6IAAAXRABAEjK+Ae6IQAA3RABAEjG+Ae6IgAAXREBAEjC+Ae6IwAA3REBAGjM+Ae6JAAAXRIBAGjE+Ae6JQAA3RIBABiZ8Q90TQAAuiYCADAS4x/ongAAdE8EAGDNjH9gEgQAYBJEAADWxPgHJkMAACZDBABgYMY/MCkCADApIgAAAzH+gckRAIDJEQEAOCLjH5gkAQCYJBEAgEMy/oHJEgCAyRIBAFiR8Q9MmgAATJoIAMCSjH9g8gQAYPJEAAAOYPwDsyAAALMgAgCwB+MfmA0BAJgNEQCAHYx/YFYEAGBWRAAALjH+gdkRAIDZEQEAZs/4B2ZJAABmSQQAmC3jH5gtAQCYLREAYHaMf2DWBABg1kQAgNkw/oHZEwCA2RMBACbP+AcIAQAgIkQAgAkz/gEuEQAALhEBACbH+Ae4ggAAcAURAGAyjH+AHQQAgB1EAIDuGf8AuxAAAHYhAgB0y/gH2IMAALAHEQCgO8Y/wD4EAIB9iAAA3TD+AQ4gAAAcQAQASM/4B1iCAACwBBEAIC3jH2BJAgDAkkQAgHSMf4AVCAAAKxABANIw/gFWJAAArEgEAGjO+Ac4BAEA4BBEAIBmjH+AQxIAAA5JBAAYnfEPcAQCAMARiAAAozH+AY5IAAA4IhEAYO2Mf4ABCAAAAxABANbG+AcYiAAAMBARAGBwxj/AgAQAgAGJAACDMf4BBiYAAAxMBAA4MuMfYA0EAIA1EAEADs34B1gTAQBgTUQAgJUZ/wBrJAAArJEIALA04x9gzQQAgDUTAQAOZPwDjEAAABiBCACwJ+MfYCQCAMBIRACAaxj/ACMSAABGJAIAPMH4BxiZAAAwMhEAwPgHaEEAAGhABABmzPgHaEQAAGhEBABmyPgHaEgAAGhIBABmxPgHaEwAAGhMBABmwPgHSEAAAEhABAAmzPgHSEIAAEhCBAAmyPgHSEQAAEhEBAAmxPgHSEYAAEhGBAAmwPgHSEgAAEhIBAA6ZvwDJCUAACQlAgAdMv4BEhMAABITAYCOGP8AyQkAAMmJAEAHjH+ADniYBMiulMciorY+A2AfNTbqo62PAGB/AgBAYvXW4z8RUX8lIjZb3wKwj82o5Vcf/zMLgKx8AgCQVL31+E9ErX83/FkN9KNGKa8spx58Y+tDALiWh0qAhIx/oGMiAEBSHiwBkjH+gQkQAQAS8nAJkIjxD0yICACQjAdMgCSMf2CCRACARDxkAiRg/AMTJgIAJOFBE6Ax4x+YAREAIAEPmwANGf/AjIgAAI154ARoxPgHZkgEAGjIQydAA8Y/MGMiAEAjHjwBRmb8A4gAAC14+AQYkfEP8AQRAGBkHkABRmL8A1xDBAAYkYdQgBEY/wB7EgEARuJBFGDNjH+AA4kAACPwMAqwRsY/wNJEAIA180AKsCbGP8DKRACANfJQCrAGxj/AoYkAAGviwRRgYMY/wJGJAABr4OEUYEDGP8BgRACAgXlABRiI8Q8wOBEAYEAeUgEGYPwDrI0IADAQD6oAR2T8A6ydCAAwAA+rAEdg/AOMRgQAOCIPrACHZPwDjE4EADgCD60Ah2D8AzQjAgAckgdXgBUZ/wDNiQAAh+DhFWAFxj9AGiIAwIo8wAIsyfgHSEcEAFiBh1iAJRj/AGmJAABL8iALcADjHyA9EQBgCR5mAfZh/AN0QwQAOIAHWoA9GP8A3REBAPbhoRZgF/Xk1t+IiHvDn5MAvREBAPbgwRZgB+MfoHsiAMAuPNwCXMH4B5gMEQBgBw+4AJcY/wCTIwIAXMFDLkAY/wATJgIAXOJBF5g94x9g8kQAgPCwC8yc8Q8wGyIAMHseeIHZMv4BZkcEAGbNQy8wS8Y/wGyJAMBsefAFZsf4B5g9EQCYJQ+/wKwY/wBcIgIAs+MBGJgN4x+AHUQAYFY8BAOzYPwDsAcRAJgND8LA5Bn/ABxABABmwcMwMGnGPwBLEgGAyfNADEyW8Q/AikQAYNI8FAOTZPwDcEgiADBZHoyByTH+ATiiGhGvKqfP/WLrQwCG5OEYmBTjH4CBiADA5HhABibD+AdgYCIAMCkekoFJMP4BWBMRAJgMD8pA94x/ANZMBAAmwcMy0DXjH4CRiABA9zwwA90y/gEYmQgAdM1DM9Al4x+ARkQAoFsenIHuGP8ANCYCAF3y8Ax0xfgHIAkRAOiOB2igG8Y/AMmIAEBXPEQDXTD+AUhKBAC64UEaSM/4ByA5EQDogodpIDXjH4BOiABAeh6ogbSMfwA6IwIAqXmoBlIy/gHolAgApOXBGkjH+AegcyIAkJKHayAV4x+AiRABgHQ2Wh8AcFk9eeyVYfwDMA0lIu69FLYBUvCQDaTw+Pgv94Q/lwCYFm8CAGl40AaaM/4BmDgRAEjBwzbQlPEPwEyIAEBzHriBZox/AGZGBACa8tANNGH8AzBTIgDQjAdvYHTGPwAzJwIATXj4BkZl/ANARIgAQAMewIHRGP8AcBURABiVh3BgFMY/AOxKBABG40EcWDvjHwD2JQIAo/AwDqyV8Q8ASxEBgLXzQA6sjfEPACsRAYC18lAOrIXxDwCHIgIAa+PBHBic8Q8ARyICAGvh4RwYlPEPAIMQAYDBeUAHBmP8A8CgRABgUB7SgUEY/wCwFiIAMJiN1gcA/TP+AWBtSkTc+/i/awGOxsM6cCTGPwCMokbUV5fT5/9u60OAfnlgBw7N+AeAUYkAwJF4aAcOxfgHgCZEAODQPLgDKzP+AaApEQA4FA/vwEqMfwBIQQQAVuYBHlia8Q8AqYgAwEo8xANLMf4BICURAFiaB3ngQMY/AKQmAgBL8TAP7Mv4B4AuiADAgTzQA3sy/gGgKyIAsC8P9cCujH8A6JIIAOzJgz1wDeMfALomAgC78nAPXMX4B4BJEAGAa3jAB55g/APApIgAwFU85AMRYfwDwESJAMATPOgDxj8ATJsIAERExEbrA4C26vaxVxn/ADBpJaLc83jwB+bMAz/MWN0+9qoo5Q3hzwIAmANvAsDMeeiHmTL+AWCWRACYMQ/+MEPGPwDMmggAM+XhH2bG+AcAQgSAWTIAYEaMfwDgCiIAzIwRADNh/AMAuxABYEYMAZgB4x8A2IcIADNhDMDEGf8AwBJEAJgBgwAmzPgHAFYgAsDEGQUwUcY/AHAIIgBMmGEAE2T8AwBHIALARBkHMDHGPwAwABEAJshAgAkx/gGAAYkAMDFGAkyE8Q8ArIEIABNiKMAEGP8AwBqJADARxgJ0zvgHAEYgAsAEGAzQMeMfABiRCACd22h9AHA4xj8AMLISUe6p28de1foQ4HAMB+iQ8Q8ANFSj1p8sZ87f2/oQYDXGA3TG+AcAEhABoEMGBHTE+AcAEhEBoDNGBHTC+AcAEhIBoCOGBHTA+AcAEhMBoBPGBCRn/AMAHRABoAMGBSRm/AMAHREBIDmjApIy/gGADokAkJhhAQkZ/wBAx0QASMq4gGSMfwBgAkQASMjAgESMfwBgQkQASMbIgCSMfwBggkQASMTQgASMfwBgwkQASMLYgMaMfwBgBkQASMDggIaMfwBgRkQAaMzogEaMfwBghkQAaGij9QEwR/XW4682/gGAGSpRyhvq9rFXtT4E5sj4gJHVW4+/Omr9hfDfPwBgvrwJAA0YIDAi4x8A4AkiAIzMCIGRGP8AANcQAWBEhgiMwPgHANiTCAAjMUZgzYx/AIADiQAwAoME1sj4BwBYmggAa2aUwJoY/wAAKxMBYI0ME1iDevL4j0TU+yJio/UtALuol/6n5wAgo0VE/bFy+vwvtz4EpsY4gYHVW4+/OqK+Ofz3C8jpYtT6g1HqD0fEovUxALvYiChvqdvHXtX6EJga5R8G5LV/ILmLUetfL2fO/3pERL312H8dtfy9ECyBnHwOAAMzUmAgxj+Q3FXj/zIRAEhOBIABGSowAOMfSG7X8X+ZCAAkJwLAQIwVOCLjH0hu3/F/mQgAJCcCwAAMFjgC4x9Ibqnxf5kIACQnAsARGS1wSMY/kNxK4/8yEQBITgSAIzBc4BCMfyC5Q43/y0QAIDkRAA7JeIEVGf9Ackca/5eJAEByIgAcgn+pwwqMfyC5QcZ/REQ5df6tUeodEbEY4C6AoZUo5Q311uOvbn0I9MSIgSUZ/0Byg43/K3kTAEiuRik/VU49eE/rQ6AHhgwswfgHklvL+L9MBACSEwFgScYMHMD4B5Jb6/i/TAQAkhMBYAkGDezD+AeSG2X8XyYCAMmJAHAAowb2YPwDyY06/i8TAYDkRADYh2EDuzD+geSajP/LRAAgOREA9mDcwA7GP5Bc0/F/mQgAJCcCwC4MHLiC8Q8kl2L8XyYCAMmJALCDkQOXGP9AcqnG/2UiAJCcCABXMHQgjH8gvZTj/zIRAEhOBIBLjB1mz/gHkks9/i8TAYDkRAAIg4eZM/6B5LoY/5eJAEByIgCzZ/QwW8Y/kFxX4/8yEQBITgRg1gwfZsn4B5LrcvxfJgIAyYkAzJbxw+wY/0ByXY//y0QAIDkRgFkygJgV4x9IbhLj/zIRAEhOBGB2jCBmw/gHkpvU+L9MBACSEwGYFUOIWagnt34yIl4f/pkHcprk+L9MBACSEwGYDWOIyTP+geQmPf4vEwGA5EQAZsEgYtKMfyC5WYz/y0QAIDkRgMkzipgs4x9Iblbj/zIRAEhOBGDSDCMmyfgHkpvl+L9MBACSEwGYLOOIyTH+geRmPf4vEwGA5EQAJslAYlKMfyA54/8KIgCQnAjA5BhJTIbxDyRn/O9CBACSEwGYFEOJSTD+geSM/32IAEByIgCTYSzRPeMfSM74X4IIACQnAjAJBhNdM/6B5Iz/FYgAQHIiAN0zmuiW8Q8kZ/wfgggAJCcC0DXDiS4Z/0Byxv8RiABAciIA3TKe6I7xDyRn/A9ABACSEwHokgFFV4x/IDnjf0AiAJCcCEB3jCi6YfwDyRn/ayACAMmJAHTFkKILxj+QnPG/RiIAkJwIQDeMKdIz/oHkjP8RiABAcjUifrqcPveG1ofAfvxLlNTqya3XRMQvhPEP5GT8j6ScOv/WKPWOiFi0vgVgFyUiXn/pL64gLaOKtC6N/9e2vgNgD8Z/A94EAJLzJgCpCQCkZPwDyRn/DYkAQHIiAGkJAKRj/APJGf8JiABAciIAKQkApGL8A8kZ/4mIAEByIgDpCACkYfwDyRn/CYkAQHIiAKkIAKRg/APJGf+JiQBAciIAaQgANGf8A8kZ/x0QAYDkRABSEABoyvgHkjP+OyICAMmJADQnANCM8Q8kZ/x3SAQAkhMBaEoAoAnjH0jO+O+YCAAkJwLQjADA6Ix/IDnjfwJEACA5EYAmBABGZfwDyRn/EyICAMmJAIxOAGA0xj+QnPE/QSIAkJwIwKgEAEZh/APJGf8TJgIAyYkAjEYAYO2MfyA5438GRAAgORGAUQgArJXxDyRn/M+ICAAkJwKwdv4FyNrU7a27wvgH8jL+Z6acOv/WKPWOiFi0vgVgFyUiXl9Pbv1k60OYLgGAtajbW3dFiZ9vfQfAHoz/mRIBgORKRPzCpbdoYXA+AWBwxj+QnPGPzwGAHtxVTp97XesjmBYBgEEZ/0Byxj9PEAGADogADEoAYDDGP5Cc8c81RACgAyIAgxEAGITxDyRn/LMnEQDogAjAIPyLjiMz/oHkFlHjDuOfvfjBgEAHXusHAzIEAYAjMf6B5BZR6h3lzLlfaX0IuYkAQAdEAI7MJwAcmvEPJPf4+D91/q2tD6EfPgcAOuBzAA5NAOBQjH8gOeOfQxMBgA6IAByKAMDKjH8gOeOfIxMBgA6IAKxMAGAlxj+QnPHPYEQAoAMiACsRAFia8Q8kZ/wzOBEA6IAIwNIEAJZi/APJGf+sjQgAdEAEYCkCAAcy/oHkjH/WTgQAOiACcCABgH0Z/0Byxj+jEQGADogA7EsAYE/GP5Cc8c/oRACgAyIAe/IvL3Zl/APJGf80UU6df2uUekdELFrfArCH19btrbtaH0FO3gDgGsY/kJzxT3PeBADSq/G3yplzr219BrkIAFzF+AeSM/5JQwQA0hMB2EEA4AnGP5Cc8U86IgCQngjAFQQAIuL/b+/ugzU9C7OAX/e7mw/CR5BAqyBDWrCoFOyMtBBgdyMJ+5HyNZUUcbRlQJRQKMiACDM6+IcCVUsnCgVGKkVrgUjLd3aXQE92A0nqMIMggh+08iVfSTDAkv18b/9IphPOnrN7zp7znvt+nuf3+z871+ycPHuu673v51X+ge4p/3TLCAB0zwjAPQwAKP9A75R/umcEALpnBCAGgMlT/oHOKf8MhhEA6J4RYPIMABOm/AOdU/4ZHCMA0D0jwKQZACZK+Qc6p/wzWEYAoHtGgMkyAEyQ8g90Tvln8IwAQPeMAJNkAJgY5R/onPLPaBgBgO4ZASbHADAhyj/QOeWf0TECAN0zAkyKAWAilH+gc8o/o2UEALpnBJgMA8AEKP9A55R/Rs8IAHTPCDAJBoCRU/6Bzin/TIYRAOieEWD0DAAjpvwDnVP+mRwjANA9I8CoGQBGSvkHOqf8M1lGAKB7RoDRMgCMkPIPdE75Z/KMAED3jACj5B+dkal7d7xW+Qc6pvxDkrL/8LtS6guTzFtnAVhRyRvq7p3/uHUMNpcTACNS9+54bWr5F61zAKxC+YdlnAQAuuckwKgYAEZC+Qc6p/zDKowAQPeMAKNhABgB5R/onPIPZ2EEALpnBBgFA8DAKf9A55R/WCMjANA9I8DgGQAGTPkHOqf8wzoZAYDuGQEGzQAwUMo/0DnlH86REQDonhFgsAwAA6T8A51T/mGDjABA94wAg2QAGBjlH+ic8g+bxAgAdM8IMDgGgAFR/oHOKf+wyYwAQPeMAINiABgI5R/onPIPC2IEALpnBBgMA8AAKP9A55R/WDAjANA9I8AgGAA6p/wDnVP+YYsYAYDuGQG6ZwDomPIPdE75hy1mBAC6ZwTomgGgU8o/0DnlHxoxAgDdMwJ0ywDQIeUf6JzyD40ZAYDuGQG6ZADojPIPdE75h04YAYDuGQG6YwDoiPIPdE75h84YAYDuGQG64h+LTij/QOeUf+hQ2X/4XSn1hUnmrbMArKjkDXXvjte2jsHdnADogPIPdE75h845CQB0r9TXlf2H39A6xtQZABpT/oHOKf8wEEYAoHtGgOYMAA0p/0DnlH8YGCMA0D0jQFMGgEaUf6Bzyj8MlBEA6J4RoBkDQAPKP9A55R8GzggAdM8I0IQBYIsp/0DnlH8YCSMA0D0jwJYzAGwh5R/onPIPI2MEALpnBNhSBoAtovwDnVP+YaSMAED3jABbxgCwBeruXdek1LfE3zfQp5qSa8r+Q29vHQRYjLpnx4uT8tb4XQToU03qS8qBw29rHWTs/COwYHXPrhcl9e3xdw30ySf/MBFOAgCdq0n9++XA4X/XOsiYKaULVHfvfG5Kfi/JttZZAFag/MPEGAGAzp1KKc8r+2+8rnWQsTIALEjde/lTUucfT3Jh6ywAK3DsHybKdQCgazV3ZVauKPtvvLl1lDHy4F+AunfH41LL4SQPaJ0FYAU++YeJcxIA6Nyd2ZYd5WOHPt86yNh46G+yuvtJP5GUP4zyD/SppuQlyj9M293PgPprSWrrLAAruDin8gd1346HtA4yNgaATVT37bsgZfuHUvPTrbMArGCeUl/g2D+QJOXA4bel1BckmbfOArCCR+VU+VC9+jHntw4yJgaAzTQ/8q+SPKF1DIAVOPYPnKbsP/yulPrCGAGAHpU8Md+/5E2tY4yJdwBskrp7x3NSyvvi7xTojxf+AWfkxYBAx2pq/aVy8PAHWgcZAw/5TVCveuojcurk5+LeP9Afn/wDa+LFgEDH7syp+ePKDTd9tXWQofOA36D6+sxy6sR/jPIP9Ef5B9bMdQCgYxdn2+x3qg+wN8wAsFG37HpxUp7SOgbAMt72D6ybbwcAOnZFdu96UesQQ2dB2YC676mPzPzk55Jc1DoLwL345B/YENcBgE79KDU/Ww4e+tPWQYbKQ30j5iffEuUf6IvyD2yY6wBApy5KyVtahxgyA8A5qnt3XZ1kT+scAPfi2D+waVwHADq1r+7d+czWIYbKFYBzUHfvvm/K0f+Z5KGtswDcwyf/wEK4DgB06P/k2OyvlKWlo62DDI0H+Tk5+ooo/0A/lH9gYVwHADp0aS489bLWIYbICYB1qldccUm2n/jfSR7YOgtA7j72f03Zf+jtrYMA41b37HhxUt4avz8Cfbgj2+ePKh+96XutgwyJEwDrtf3466L8A32Yp9QXKP/AVigHDr8tpb4gTgIAfXhQTs5e0zrE0Fhw16E+7ckPzWzbl5Nc2DoLMHmO/QNNeCcA0JEjqSd/uhz89HdaBxkKD+712Lb9VVH+gfaUf6AZ7wQAOnLflO2vbB1iSJwAWKN65ZUXZ9vxrye5X+sswKS58w90wTsBgE7cmQtOPbx86FM/aB1kCJwAWKvZ8RdF+Qfacucf6IZ3AgCduDjHtr2gdYihMACsQb366m0p9aWtcwCT5tg/0B3XAYA+1JfV1+u2a+EvaS2+/92nJeURrWMAk1VT8hLlH+jR3c+m+mtJausswFSVR+bTu65onWIIDABrMn9R6wTAZDn2D3TPdQCguVL/XusIQ+ClLWdR9+14SOblG0nOa50FmBzH/oFB8RWBQEPHc/7sYeXDS7e1DtIzD+ezmee5Uf6BrefYPzA4rgMADZ2fY/WXWofonQHgrMrzWicAJsexf2CwXAcAmilz3e0sXAE4g/r0pz4sJ05+NYYSYOs49g+MgusAQAPzpP7FcuDwN1sH6ZUH8pmcPPWs+DsCto5j/8BouA4ANDBLZk9vHaJnyu2Z1OqHB9gqjv0Do+M6ALD1dLgzcQVgFXXfvgsyP3JHkotaZwFGz7F/YNRcBwC20A9y25FLymc+c6J1kB55CK/qh0+M8g8snvIPjF7Zf/hdKfWFcRIAWLz75yH3e3zrEL0yAKxmPtvVOgIweu78A5PhnQDAlplXXW4VBoBVzS9rnQAYNXf+gcnxTgBgS8zypNYRemUAWEFNSlJ+oXUOYLQc+wcmy3UAYOFqLqved7ciA8BKnrbzUUke1DoGMEqO/QOT5zoAsGAPzu6dl7YO0SMDwEq2lZ9rHQEYJcf+Ae7hOgCwUDOdbiUGgBXVx7ROAIyOY/8Ay7gOACyOTrcSA8CKih8WYDMp/wCrMAIACzHX6VZiHvVHwQAAEVdJREFUAFhJzV9qHQEYDXf+Ac7COwGATVd0upUYAFZUL22dABgFd/4B1sg7AYDNpdOtxACwTL3yyouTXNw6BzB4jv0DrJPrAMAmuqQ+88n3bx2iNwaA5WYnH946AjB4jv0DnCPXAYBNc/S8h7WO0BsDwHKzPLh1BGDQHPsH2CDXAYBNodudxgBwmvmDWicABsuxf4BN4joAsHG63XIGgOVq9UMCnAvH/gE2mesAwMbodssZAE53v9YBgMFx7B9gQVwHAM5Z1e2WMwCcZnZ+6wTAoDj2D7BgrgMA56Zc0DpBbwwAy5VqAADWSvkH2CJGAGDddLvTGACWm2db6wjAILjzD7DFvBMAWJea7a0j9MYAcLqTrQMA3XPnH6AR7wQA1qyWE60j9MYAsNysHm8dAeiaY/8AjbkOAKxNPdY6QW8MAKeZ+SEBVuPYP0AnXAcAzqoUH+4uYwA4zfz7rRMAXXLsH6AzrgMAZ1Z0u2UMAKcpd7ROAHTHsX+ATrkOAKyq1NtbR+iNAWC5U35IgB+j/AN0zggArGg+1+2WMQAsd179busIQDfc+QcYCO8EAE6z7fzbWkfojQFguR9t/2r8wwG48w8wON4JANzLPPf79tdah+iNAWCZsrR0NIlTADBtjv0DDJTrAMA9vlWu+4JvAVjGALCiYimC6XLsH2DgXAcAkuh0KzAArGj+31snAJpw7B9gJFwHgKkrX2ydoEcGgBWVL7ROAGw5x/4BRsZ1AJiwWnW6FRgAVlLnflhgWpR/gJEyAsBU+VB3JQaAlczzudYRgC3jzj/AyHknAExQPflfW0foUWkdoFd1986vp+RhrXMAC+WTf4AJqXt3PD+1vDM+BIORq18pBw5f2jpFjzz8VlNyS+sIwEIp/wAT4zoATESd3dw6Qq8MAKsp9dbWEYCFcewfYKJcB4AJKHNdbhUGgNWc2vbx1hGAhfBVfwAT5ysCYeRmOdg6Qq+8A2AVNSnZs/P/JvnzrbMAm8axfwD+jHcCwCh9vRw49PDWIXrlYbeKktTUstQ6B7BpHPsH4Me4DgBjVP+odYKeGQDOaP7B1gmATeHYPwArch0ARqaUD7SO0DMDwJkc3/aRJEdbxwA2xLF/AM7ItwPAaBzJeUf2tw7RMwPAGZSlpR8m5YbWOYBzpvwDsCZGABiFA+XDn/lR6xA9MwCcTZm/v3UE4Jy48w/AungnAAye7nYWBoCzuf/J9yb5f61jAOvizj8A58Q7AWCwvpdjsz9oHaJ3BoCzKNfdfFdSr2udA1gzx/4B2BDXAWCI6nvK0pL3t52FAWAt5vnd1hGANXHsH4BN4ToADMxs27tbRxiC0jrAUNQ9O/84yc+3zgGsyif/AGy6unfH81PLO+ODM+hXzS3l4KHLWscYAg+ytfu3rQMAq1L+AVgI1wFgAGbl2tYRhsIAsFYPOHFdkttaxwBO49g/AAvlOgB07VspF3n53xoZANaoXHfzXSn1N1rnAH6Mt/0DsCV8OwB0643l+uuPtQ4xFAaA9Zjf561JvtM6BpDEsX8AtpjrANCZmm/k2MwHQetgAFiHcvDgkdS8uXUOwLF/ANpwHQA6UvJmX/23PgaA9To++60kX20dAybMsX8AmnIdAHpQv5wH3P5vWqcYGgPAOpWlpaOp+aetc8BEOfYPQBdcB4DGyuyflOu+cLx1jKExAJyLJx36D0n5TOsYMDHKPwBdMQJAMzdn/43vaR1iiAwA56C8PvOU8qq4+wVbxZ1/ALrknQCw5eaZ11cX/8+dEwPAOSr7l5aSuIMMi+fOPwBd804A2FJvLR8//KnWIYbKALARs2OvSc03WseAEXPsH4BBcB0AtsTXc8Gp17UOMWQGgA0o19/6/ZT68tY5YKQc+wdgUFwHgEWrLy0f+tQPWqcYMgPABpUDh9+f5Hda54CRcewfgEFyHQAWpOQd5cDhD7aOMXQGgM1wbPbypH65dQwYCcf+ARg01wFg0/2vzC98ZesQY2AA2ARlaemHqeUFSU62zgID59g/AKPgOgBsmhOpeX45ePBI6yBjYADYJOXgoUNJ/Yetc8CAOfYPwKi4DgCbof56OXjo061TjEVpHWBMalKyd9f7UutzWmeBgakpuUb5B2CM6p4dL07KW+N3b1ifWt5TDt74vNYxxsQJgE1Ukpqj5e+mxPdSwtr55B+AUXMSAM5BySdz8W2/2jrG2FghF6BeccUl2X7yU0l9dOss0Dkv/ANgMureHc9PLe+MD+HgbL6UnHhyOXDzHa2DjI2HzwKUT3zi9tTy7CS3t84CHfPCPwAmxYsBYU1uy7b5s5T/xXACYIHq3h2PSy1LSf5c6yzQGZ/8AzBZTgLAqu7ItlxePnbo862DjJWHzgKV/Yc/l9nsqiQ/bJ0FOqL8AzBpZf/hd6XUF8Y7AeDefpg6v0r5XywDwIKV65duSS1/O8nx1lmgA479A0BcB4BljqfOn1cO3nRr6yBj5wrAFqlP27k7s3wwyYWts0AjPvkHgGVcB2Dyau5KzbPLxw8dbB1lCgwAW8gIwIQp/wCwCiMAk6X8bzkDwBYzAjBByj8AnIURgMlR/pswADRgBGBClH8AWCMjAJOh/DdjAGjECMAEKP8AsE5GAEZP+W/KANCQEYARU/4B4BwZARgt5b85A0BjRgBGSPkHgA0yAjA6yn8XDAAdMAIwIso/AGwSIwCjofx3wwDQCSMAI6D8A8AmMwIweMp/VwwAHTECMGDKPwAsiBGAwVL+u2MA6IwRgAFS/gFgwYwADI7y3yUDQIeMAAyI8g8AW8QIwGAo/90yAHTKCMAAKP8AsMWMAHRP+e+aAaBjRgA6pvwDQCNGALql/HfPANA5IwAdUv4BoDEjAN1R/gfBADAARgA6ovwDQCeMAHRD+R8MA8BAGAHogPIPAJ0xAtCc8j8oBoABMQLQkPIPAJ0yAtCM8j84BoCBMQLQgPIPAJ0zArDllP9BMgAMkBGALaT8A8BAGAHYMsr/YBkABsoIwBZQ/gFgYIwALJzyP2gGgAEzArBAyj8ADJQRgIVR/gfPADBwRgAWQPkHgIEzArDplP9RMACMgBGATaT8A8BIGAHYNMr/aBgARsIIwCZQ/gFgZIwAbJjyPyoGgBExArAByj8AjJQRgHOm/I+OAWBkjACcA+UfAEbOCMC6Kf+jZAAYISMA66D8A8BEGAFYM+V/tAwAI2UEYA2UfwCYGCMAZ6X8j5oBYMSMAJyB8g8AE2UEYFXK/+gZAEbOCMAKlH8AmDgjAKdR/ifBADABRgDuRfkHAJIYAbgX5X8yDAATYQQgyj8AsIwRAOV/WgwAE2IEmDTlHwBYkRFgwpT/yTEATIwRYJKUfwDgjIwAE6T8T5IBYIKMAJOi/AMAa2IEmBDlf7IMABNlBJgE5R8AWBcjwAQo/5NmAJgwI8CoKf8AwDkxAoyY8j95BoCJMwKMkvIPAGyIEWCElH9iACBGgJFR/gGATWEEGBHln3sYAEhiBBgJ5R8A2FRGgBFQ/rkXAwB/xggwaMo/ALAQRoABU/5ZxgDAjzECDJLyDwAslBFggJR/VmAA4DRGgEFR/gGALWEEGBDln1UYAFiREWAQlH8AYEsZAQZA+ecMDACsygjQNeUfAGjCCNAx5Z+z8D8tqyofP3QwtfxykmOts/Bj5qnlGuUfAGih7D/8rpS8JMm8dRZ+zNGkPFf550ycAOCs6p5dO5L64SQXt85CjqaWXy4Hb/xw6yAAwLTVvTufmZr3xmnRHtyR1H3lwOE/bh2EvhkAWJO6e+eTUvLRJA9snWXClH8AoCt1945np5T3JLmgdZYJ+15ms6vK9Uu3tA5C/wwArFnd99RHZn7qo0l9dOssE/StlPLMsv/G/9I6CADAvdXdT3lCyuyDSX6ydZYJ+lJOzX+x3HDTn7QOwjB4BwBrVq7/5JeT409Kcqh1lon5bM7b/njlHwDoUTl4062puSzJF1tnmZSaG5MTT1b+WQ8DAOtSDtx8R+qFVyV5X+ss01BvyMnzriwf+eQ3WicBAFhNOXjoTzOru5L8Uess01B/PxccuaocuPmO1kkYFlcAOGd1z85fSfLbSS5qnWWETiR5dQ4curYktXUYAIC1qEnJnp3/KMk/T7KtdZ4R+lGSa8qBQ+9uHYRhMgCwIXXf5U/MfP77SS5tnWVEvpPMfrUcWNrfOggAwLmoe3b8YlL+fZKHtM4yGiV/kpS/5VooG+EKABtSrl+6JQ848VdTc218Ur1xJb+XU+f/jPIPAAxZOXD4ozk2+5kk/6l1lhGYJ3lTjs4eo/yzUU4AsGnqnh1/MylvTfITrbMM0PdTy6vLwRvf0ToIAMBmuftKwI5/kJTfSHL/1nkG6Fsp5SVl/41/2DoI4+AEAJumHDj8/px/5KeSvCnJydZ5BmJ+9+mJEz+l/AMAY1OSWg4cflty4tKUvCNOjK7V8ZT8s5x/5JHKP5vJCQAW4p53A1yb5OdbZ+nYFzPPK8rHDx1sHQQAYCvU3bv2peTNSX106ywduzWlvMxxfxbBAMBC1d27npFSfzPJo1pn6Uf9Ssrs1Xnije8vr8+8dRoAgK1UX59Zbt75d5K8MclfaJ2nH+ULSXlFObB0Q+skjJcBgIWrV192n/zg/GtS62sy7fcD3JmS30o59pvl+lu/3zoMAEBL9fLLH5gL6iuT+vIkD2idp6FvJ/WNObbtbWVp6WjrMIybAYAtU3fvvm9md70ktbwq0xoC7kzKtdl+6s3lozd9r3UYAICe1CuuuCTbj78yKS/NtIaAbyf5lzn/yG+XD3/mR63DMA0GALZcvfrqbbnzO1elzH89KVe2zrNAn0vyrzO773vL9dcfax0GAKBndd++CzI/8tzUvColj22dZ3HqDamza/OkGz/qOihbzQBAU3XPrh1JfX6S52QMi2/NXSn1A8m2d+eypYMe6gAA61Nfn1lu2bk3Nb+S5FlJLmydaRPcmZTrUsrvlv1LN7UOw3QZAOjCPe8JeHZqfU6SvUkuap1pHY6n5oaU8p8zO/p+9/sBADZHvfLKi7P9+HNSc3WSv5Hk/NaZ1uFISrk+tV6XY7MPud9PDwwAdKc+469flBP33ZtanpHUPenz7bC3pZYbkvqRzM//SLnhhjtbBwIAGLN6+eUPzIWnnp5anp7kyiSXtM50mppvpNSDKbMP5/7H95frbr6rdSS4NwMAXatJyd4dj01mVya5LLU+IcnDG0T5VpJbU3NLZuUTeeKNn3G8HwCgjbvfKfXNx6dsuyKlPjE1v5DkJxtE+WqSW1LrLdlebigfO/T5BhlgzQwADE592pMfmrL9r6XUx6XksanlLyf14dmcbxa4PcnXkvyP1Hw+pf63bDvvs+Vjn/zKJvzZAAAsSN17+aWZn/q5zMrPpuaxSXn0Pb8jPmgT/vhvp+RrmZcvpeTzd/+eOP9sOXD4m5vwZ8OWMQAwGvXyyy/MhScekVOzB2eWB6eWSzKrl6SW2Sr/xe2puS1ldntm89tz6j5fKQcPHtna1AAALFLdvfu+2XbXIzKfXZKSB6fOL0nKytcHSp1nXm7PLLflVL0959Xv5kfbv+r+PgAAAAAAAAAAAAAAAAAAAAAAAAAAAAAAAAAAAAAAAAAAAAAAAAAAAAAAAAAAAAAAAAAAAAAAAAAAAAAAAAAAAAAAAAAAAAAAAAAAAAAAAAAAAAAAAAAAAAAAAAAAAAAAAAAAAAAAAAAAAAAAAAAAAAAAAAAAAAAAAAAAAAAAAAAAAAAAAAAAAAAAAAAAAAAAAAAAAAAAAAAAAAAAAAAAAAAAAAAAAAAAAAAAAAAAAAAAAAAAAAAAAAAAAAAAAAAAAAAAAAAAAAAAAAAAAAAAAAAAAAAAAAAAAAAAAAAAAAAAAAAAAAAAAAAAAAAAAAAAAAAAAAAAAAAAAAAAAAAAAAAAAAAAAAAAAAAAAAAAAD37/8z1x5uMDAgMAAAAAElFTkSuQmCC;fontColor=#595D6B;" vertex="1" parent="1">
          <mxGeometry x="520" y="362.5" width="25" height="25" as="geometry" />
        </mxCell>
        <mxCell id="YjmIes9WM5p89gQ4vKuV-7" style="edgeStyle=orthogonalEdgeStyle;rounded=0;orthogonalLoop=1;jettySize=auto;html=1;exitX=0.72;exitY=0.99;exitDx=0;exitDy=0;exitPerimeter=0;curved=1;fontColor=#595D6B;" edge="1" parent="1" source="64bBHuUa2oHp0DUWRqnR-4">
          <mxGeometry relative="1" as="geometry">
            <mxPoint x="349" y="388" as="targetPoint" />
            <Array as="points">
              <mxPoint x="349" y="408" />
              <mxPoint x="390" y="408" />
              <mxPoint x="390" y="388" />
            </Array>
          </mxGeometry>
        </mxCell>
        <mxCell id="YjmIes9WM5p89gQ4vKuV-8" value="&lt;font face=&quot;Courier New&quot;&gt;data encryption&lt;/font&gt;" style="points=[[0,0.5,0],[0.24,0,0],[0.5,0.28,0],[0.995,0.475,0],[0.5,0.72,0],[0.24,1,0]];verticalLabelPosition=bottom;sketch=0;html=1;verticalAlign=top;aspect=fixed;align=center;pointerEvents=1;shape=mxgraph.cisco19.key;fillColor=#005073;strokeColor=none;fontColor=#595D6B;spacingLeft=30;" vertex="1" parent="1">
          <mxGeometry x="370" y="398" width="44.45" height="20" as="geometry" />
        </mxCell>
        <mxCell id="HDQQXJfU5fZJMyMnsZKB-1" style="edgeStyle=orthogonalEdgeStyle;rounded=0;orthogonalLoop=1;jettySize=auto;html=1;fontColor=#595D6B;endArrow=none;endFill=0;" edge="1" parent="1">
          <mxGeometry relative="1" as="geometry">
            <mxPoint x="672.23" y="280" as="targetPoint" />
            <mxPoint x="112.23" y="280" as="sourcePoint" />
          </mxGeometry>
        </mxCell>
        <mxCell id="HDQQXJfU5fZJMyMnsZKB-3" value="Default" style="text;strokeColor=none;fillColor=none;html=1;fontSize=20;fontStyle=0;verticalAlign=middle;align=left;fontFamily=Courier New;rotation=-90;fontColor=#595D6B;" vertex="1" parent="1">
          <mxGeometry x="70" y="165" width="100" height="40" as="geometry" />
        </mxCell>
        <mxCell id="HDQQXJfU5fZJMyMnsZKB-4" value="K8S-KMS-Plugin" style="text;strokeColor=none;fillColor=none;html=1;fontSize=20;fontStyle=0;verticalAlign=middle;align=left;fontFamily=Courier New;rotation=-90;fontColor=#595D6B;" vertex="1" parent="1">
          <mxGeometry x="70" y="430.83" width="100" height="40" as="geometry" />
        </mxCell>
      </root>
    </mxGraphModel>
  </diagram>
  <diagram id="jFEotlkGw1hv4JCD2Zpv" name="Page-1">
    <mxGraphModel dx="2924" dy="1938" grid="1" gridSize="10" guides="1" tooltips="1" connect="1" arrows="1" fold="1" page="1" pageScale="1" pageWidth="850" pageHeight="1100" math="0" shadow="0">
      <root>
        <mxCell id="0" />
        <mxCell id="1" parent="0" />
        <mxCell id="lABykkGZ-Bi2eSI-mSfc-61" value="" style="verticalLabelPosition=bottom;html=1;verticalAlign=top;strokeWidth=1;align=center;outlineConnect=0;dashed=0;outlineConnect=0;shape=mxgraph.aws3d.dashedArrowlessEdge2;strokeColor=#CCD6F6;aspect=fixed;shadow=1;sketch=0;fontFamily=Fira Mono for Powerline;fontColor=#495670;fillColor=#4BFCD2;gradientColor=#ffffff;" parent="1" vertex="1">
          <mxGeometry x="320" y="210.8" width="86.38" height="49.2" as="geometry" />
        </mxCell>
        <mxCell id="lABykkGZ-Bi2eSI-mSfc-62" value="" style="verticalLabelPosition=bottom;html=1;verticalAlign=top;strokeWidth=1;align=center;outlineConnect=0;dashed=0;outlineConnect=0;shape=mxgraph.aws3d.dashedEdge2;strokeColor=#CCD6F6;aspect=fixed;shadow=1;sketch=0;fontFamily=Fira Mono for Powerline;fontColor=#495670;fillColor=#4BFCD2;gradientColor=#ffffff;" parent="1" vertex="1">
          <mxGeometry x="310" y="147" width="101.82" height="58" as="geometry" />
        </mxCell>
        <mxCell id="lABykkGZ-Bi2eSI-mSfc-56" value="" style="verticalLabelPosition=bottom;html=1;verticalAlign=top;strokeWidth=1;align=center;outlineConnect=0;dashed=0;outlineConnect=0;shape=mxgraph.aws3d.dashedArrowlessEdge2;strokeColor=#CCD6F6;aspect=fixed;shadow=1;sketch=0;fontFamily=Fira Mono for Powerline;fontColor=#495670;fillColor=#4BFCD2;gradientColor=#ffffff;" parent="1" vertex="1">
          <mxGeometry x="442.42" y="289.5" width="88.66" height="50.5" as="geometry" />
        </mxCell>
        <mxCell id="lABykkGZ-Bi2eSI-mSfc-55" value="" style="verticalLabelPosition=bottom;html=1;verticalAlign=top;strokeWidth=1;align=center;outlineConnect=0;dashed=0;outlineConnect=0;shape=mxgraph.aws3d.dashedArrowlessEdge2;strokeColor=#CCD6F6;aspect=fixed;shadow=1;sketch=0;fontFamily=Fira Mono for Powerline;fontColor=#495670;fillColor=#4BFCD2;gradientColor=#ffffff;rotation=120;" parent="1" vertex="1">
          <mxGeometry x="383.5" y="290.5" width="56" height="31.9" as="geometry" />
        </mxCell>
        <mxCell id="z1F7Rb0pE0F3tNwSSJYS-67" value="" style="verticalLabelPosition=bottom;html=1;verticalAlign=top;strokeWidth=1;align=center;outlineConnect=0;dashed=0;outlineConnect=0;shape=mxgraph.aws3d.arrowlessNE;fillColor=#4BFCD2;aspect=fixed;shadow=1;fontSize=18;strokeColor=#495670;" parent="1" vertex="1">
          <mxGeometry x="740.5" y="143" width="51" height="29" as="geometry" />
        </mxCell>
        <mxCell id="z1F7Rb0pE0F3tNwSSJYS-69" value="" style="verticalLabelPosition=bottom;html=1;verticalAlign=top;strokeWidth=1;align=center;outlineConnect=0;dashed=0;outlineConnect=0;shape=mxgraph.aws3d.arrowlessNE;fillColor=#4BFCD2;aspect=fixed;shadow=1;fontSize=18;strokeColor=#495670;" parent="1" vertex="1">
          <mxGeometry x="510.89" y="10" width="50.11" height="28.5" as="geometry" />
        </mxCell>
        <mxCell id="z1F7Rb0pE0F3tNwSSJYS-68" value="" style="verticalLabelPosition=bottom;html=1;verticalAlign=top;strokeWidth=1;align=center;outlineConnect=0;dashed=0;outlineConnect=0;shape=mxgraph.aws3d.arrowlessNE;fillColor=#4BFCD2;aspect=fixed;shadow=1;fontSize=18;strokeColor=#495670;" parent="1" vertex="1">
          <mxGeometry x="620" y="77" width="51" height="29" as="geometry" />
        </mxCell>
        <mxCell id="lABykkGZ-Bi2eSI-mSfc-10" value="" style="verticalLabelPosition=bottom;html=1;verticalAlign=top;strokeWidth=1;align=center;outlineConnect=0;dashed=0;outlineConnect=0;shape=mxgraph.aws3d.dashedEdge2;strokeColor=#CCD6F6;aspect=fixed;shadow=1;sketch=0;fontFamily=Fira Mono for Powerline;fillColor=default;gradientColor=none;" parent="1" vertex="1">
          <mxGeometry x="73.49000000000001" y="439" width="82.51" height="47" as="geometry" />
        </mxCell>
        <mxCell id="z1F7Rb0pE0F3tNwSSJYS-1" value="" style="verticalLabelPosition=bottom;html=1;verticalAlign=top;strokeWidth=1;align=center;outlineConnect=0;dashed=0;outlineConnect=0;shape=mxgraph.aws3d.end_user;strokeColor=none;fillColor=#CCD6F6;aspect=fixed;fontColor=#CCD6F6;gradientColor=#ffffff;" parent="1" vertex="1">
          <mxGeometry x="-70" y="540" width="49" height="100.46" as="geometry" />
        </mxCell>
        <mxCell id="z1F7Rb0pE0F3tNwSSJYS-3" value="" style="verticalLabelPosition=bottom;html=1;verticalAlign=top;strokeWidth=1;align=center;outlineConnect=0;dashed=0;outlineConnect=0;shape=mxgraph.aws3d.application;fillColor=#4BFCD2;strokeColor=#495670;aspect=fixed;fontColor=#495670;" parent="1" vertex="1">
          <mxGeometry x="17" y="467" width="62" height="68.8" as="geometry" />
        </mxCell>
        <mxCell id="z1F7Rb0pE0F3tNwSSJYS-5" value="" style="verticalLabelPosition=bottom;html=1;verticalAlign=top;strokeWidth=1;align=center;outlineConnect=0;dashed=0;outlineConnect=0;shape=mxgraph.aws3d.worker;fillColor=#CCD6F6;strokeColor=#495670;aspect=fixed;" parent="1" vertex="1">
          <mxGeometry x="154" y="398" width="74" height="50" as="geometry" />
        </mxCell>
        <mxCell id="z1F7Rb0pE0F3tNwSSJYS-2" value="" style="verticalLabelPosition=bottom;html=1;verticalAlign=top;strokeWidth=1;align=center;outlineConnect=0;dashed=0;outlineConnect=0;shape=mxgraph.aws3d.client;aspect=fixed;strokeColor=#495670;fillColor=#4BFCD2;" parent="1" vertex="1">
          <mxGeometry x="61" y="475" width="60" height="104" as="geometry" />
        </mxCell>
        <mxCell id="z1F7Rb0pE0F3tNwSSJYS-65" value="&lt;font face=&quot;Fira Mono for Powerline&quot;&gt;libvirtd&lt;/font&gt;" style="text;html=1;strokeColor=none;fillColor=none;align=center;verticalAlign=middle;whiteSpace=wrap;rounded=0;shadow=1;rotation=-30;fontSize=18;fontColor=#CCD6F6;" parent="1" vertex="1">
          <mxGeometry x="156" y="420" width="138" height="55" as="geometry" />
        </mxCell>
        <mxCell id="z1F7Rb0pE0F3tNwSSJYS-66" value="" style="verticalLabelPosition=bottom;html=1;verticalAlign=top;strokeWidth=1;align=center;outlineConnect=0;dashed=0;outlineConnect=0;shape=mxgraph.aws3d.arrowlessNE;fillColor=#4BFCD2;aspect=fixed;shadow=1;fontSize=18;flipH=1;strokeColor=#495670;" parent="1" vertex="1">
          <mxGeometry x="538.5" width="275" height="157" as="geometry" />
        </mxCell>
        <mxCell id="z1F7Rb0pE0F3tNwSSJYS-70" value="&lt;font face=&quot;Fira Mono for Powerline&quot;&gt;Freyja&lt;br&gt;API&lt;/font&gt;" style="text;html=1;strokeColor=none;fillColor=none;align=center;verticalAlign=middle;whiteSpace=wrap;rounded=0;shadow=1;rotation=-30;fontSize=18;fontColor=#CCD6F6;" parent="1" vertex="1">
          <mxGeometry x="-47" y="431" width="138" height="55" as="geometry" />
        </mxCell>
        <mxCell id="z1F7Rb0pE0F3tNwSSJYS-71" value="&lt;font face=&quot;Fira Mono for Powerline&quot;&gt;shell&lt;br&gt;cli&lt;/font&gt;" style="text;html=1;strokeColor=none;fillColor=none;align=center;verticalAlign=middle;whiteSpace=wrap;rounded=0;shadow=1;rotation=30;fontSize=18;fontColor=#CCD6F6;" parent="1" vertex="1">
          <mxGeometry y="562.73" width="138" height="55" as="geometry" />
        </mxCell>
        <mxCell id="z1F7Rb0pE0F3tNwSSJYS-72" value="subnet" style="text;html=1;strokeColor=none;fillColor=none;align=center;verticalAlign=middle;whiteSpace=wrap;rounded=0;shadow=1;rotation=30;fontSize=18;fontFamily=Fira Mono for Powerline;fontColor=#CCD6F6;" parent="1" vertex="1">
          <mxGeometry x="610" y="28.5" width="138" height="55" as="geometry" />
        </mxCell>
        <mxCell id="lABykkGZ-Bi2eSI-mSfc-8" value="" style="verticalLabelPosition=bottom;html=1;verticalAlign=top;strokeWidth=1;align=center;outlineConnect=0;dashed=0;outlineConnect=0;shape=mxgraph.aws3d.dashedEdge2;strokeColor=#ccd6f6;aspect=fixed;shadow=1;sketch=0;fontFamily=Fira Mono for Powerline;fillColor=#4BFCD2;gradientColor=none;" parent="1" vertex="1">
          <mxGeometry x="-25.74000000000001" y="522" width="116.74" height="66.5" as="geometry" />
        </mxCell>
        <mxCell id="lABykkGZ-Bi2eSI-mSfc-13" value="" style="group" parent="1" vertex="1" connectable="0">
          <mxGeometry x="474" y="95.75" width="201" height="179.5" as="geometry" />
        </mxCell>
        <mxCell id="lABykkGZ-Bi2eSI-mSfc-22" value="" style="group" parent="lABykkGZ-Bi2eSI-mSfc-13" vertex="1" connectable="0">
          <mxGeometry x="-113" y="-69.25" width="202" height="179.5" as="geometry" />
        </mxCell>
        <mxCell id="lABykkGZ-Bi2eSI-mSfc-23" value="" style="group;fillColor=none;" parent="lABykkGZ-Bi2eSI-mSfc-22" vertex="1" connectable="0">
          <mxGeometry x="50" y="-3" width="152" height="148" as="geometry" />
        </mxCell>
        <mxCell id="lABykkGZ-Bi2eSI-mSfc-24" value="" style="group" parent="lABykkGZ-Bi2eSI-mSfc-23" vertex="1" connectable="0">
          <mxGeometry width="152" height="148" as="geometry" />
        </mxCell>
        <mxCell id="lABykkGZ-Bi2eSI-mSfc-25" value="" style="verticalLabelPosition=bottom;html=1;verticalAlign=top;strokeWidth=1;align=center;outlineConnect=0;dashed=0;outlineConnect=0;shape=mxgraph.aws3d.spot2;fillColor=#CCD6F6;strokeColor=none;aspect=fixed;shadow=1;sketch=0;fontFamily=Fira Mono for Powerline;fontColor=#CCD6F6;" parent="lABykkGZ-Bi2eSI-mSfc-24" vertex="1">
          <mxGeometry x="-45.190000000000055" y="38" width="197.19" height="114.5" as="geometry" />
        </mxCell>
        <mxCell id="lABykkGZ-Bi2eSI-mSfc-26" value="" style="verticalLabelPosition=bottom;html=1;verticalAlign=top;strokeWidth=1;align=center;outlineConnect=0;dashed=0;outlineConnect=0;shape=mxgraph.aws3d.application_server;fillColor=#4BFCD2;strokeColor=#495670;aspect=fixed;shadow=1;" parent="lABykkGZ-Bi2eSI-mSfc-24" vertex="1">
          <mxGeometry width="123" height="124" as="geometry" />
        </mxCell>
        <mxCell id="lABykkGZ-Bi2eSI-mSfc-27" value="&lt;div style=&quot;font-size: 18px;&quot;&gt;&lt;font color=&quot;#495670&quot;&gt;VM1&lt;/font&gt;&lt;/div&gt;" style="text;html=1;strokeColor=none;fillColor=none;align=center;verticalAlign=middle;whiteSpace=wrap;rounded=0;shadow=1;rotation=-30;fontSize=18;fontFamily=Fira Mono for Powerline;" parent="lABykkGZ-Bi2eSI-mSfc-24" vertex="1">
          <mxGeometry x="-26.5" y="-4" width="138" height="55" as="geometry" />
        </mxCell>
        <mxCell id="lABykkGZ-Bi2eSI-mSfc-28" value="&lt;div style=&quot;font-size: 18px;&quot;&gt;Qemu&lt;/div&gt;" style="text;html=1;strokeColor=none;fillColor=none;align=center;verticalAlign=middle;whiteSpace=wrap;rounded=0;shadow=1;rotation=30;fontSize=18;fontFamily=Fira Mono for Powerline;fontColor=#495670;" parent="lABykkGZ-Bi2eSI-mSfc-24" vertex="1">
          <mxGeometry x="-23.5" y="99" width="70.5" height="28.5" as="geometry" />
        </mxCell>
        <mxCell id="lABykkGZ-Bi2eSI-mSfc-14" value="" style="group;fillColor=none;" parent="lABykkGZ-Bi2eSI-mSfc-13" vertex="1" connectable="0">
          <mxGeometry x="50" y="-3" width="151" height="148" as="geometry" />
        </mxCell>
        <mxCell id="lABykkGZ-Bi2eSI-mSfc-15" value="" style="group" parent="lABykkGZ-Bi2eSI-mSfc-14" vertex="1" connectable="0">
          <mxGeometry width="151" height="148" as="geometry" />
        </mxCell>
        <mxCell id="lABykkGZ-Bi2eSI-mSfc-16" value="" style="verticalLabelPosition=bottom;html=1;verticalAlign=top;strokeWidth=1;align=center;outlineConnect=0;dashed=0;outlineConnect=0;shape=mxgraph.aws3d.spot2;fillColor=#CCD6F6;strokeColor=none;aspect=fixed;shadow=1;sketch=0;fontFamily=Fira Mono for Powerline;fontColor=#CCD6F6;" parent="lABykkGZ-Bi2eSI-mSfc-15" vertex="1">
          <mxGeometry x="-45.190000000000055" y="38" width="197.19" height="114.5" as="geometry" />
        </mxCell>
        <mxCell id="lABykkGZ-Bi2eSI-mSfc-17" value="" style="verticalLabelPosition=bottom;html=1;verticalAlign=top;strokeWidth=1;align=center;outlineConnect=0;dashed=0;outlineConnect=0;shape=mxgraph.aws3d.application_server;fillColor=#4BFCD2;strokeColor=#495670;aspect=fixed;shadow=1;" parent="lABykkGZ-Bi2eSI-mSfc-15" vertex="1">
          <mxGeometry width="123" height="124" as="geometry" />
        </mxCell>
        <mxCell id="lABykkGZ-Bi2eSI-mSfc-19" value="&lt;div style=&quot;font-size: 18px;&quot;&gt;&lt;font color=&quot;#495670&quot;&gt;VM2&lt;/font&gt;&lt;/div&gt;" style="text;html=1;strokeColor=none;fillColor=none;align=center;verticalAlign=middle;whiteSpace=wrap;rounded=0;shadow=1;rotation=-30;fontSize=18;fontFamily=Fira Mono for Powerline;" parent="lABykkGZ-Bi2eSI-mSfc-15" vertex="1">
          <mxGeometry x="-26.5" y="-4" width="138" height="55" as="geometry" />
        </mxCell>
        <mxCell id="lABykkGZ-Bi2eSI-mSfc-20" value="&lt;div style=&quot;font-size: 18px;&quot;&gt;Qemu&lt;/div&gt;" style="text;html=1;strokeColor=none;fillColor=none;align=center;verticalAlign=middle;whiteSpace=wrap;rounded=0;shadow=1;rotation=30;fontSize=18;fontFamily=Fira Mono for Powerline;fontColor=#495670;" parent="lABykkGZ-Bi2eSI-mSfc-15" vertex="1">
          <mxGeometry x="-23.5" y="99" width="70.5" height="28.5" as="geometry" />
        </mxCell>
        <mxCell id="lABykkGZ-Bi2eSI-mSfc-31" value="" style="group" parent="1" vertex="1" connectable="0">
          <mxGeometry x="590.5" y="165" width="201" height="182.91" as="geometry" />
        </mxCell>
        <mxCell id="lABykkGZ-Bi2eSI-mSfc-39" value="" style="group;fillColor=none;" parent="lABykkGZ-Bi2eSI-mSfc-31" vertex="1" connectable="0">
          <mxGeometry x="50" y="-3" width="151" height="185.91" as="geometry" />
        </mxCell>
        <mxCell id="lABykkGZ-Bi2eSI-mSfc-40" value="" style="group" parent="lABykkGZ-Bi2eSI-mSfc-39" vertex="1" connectable="0">
          <mxGeometry width="151" height="185.91" as="geometry" />
        </mxCell>
        <mxCell id="lABykkGZ-Bi2eSI-mSfc-41" value="" style="verticalLabelPosition=bottom;html=1;verticalAlign=top;strokeWidth=1;align=center;outlineConnect=0;dashed=0;outlineConnect=0;shape=mxgraph.aws3d.spot2;fillColor=#CCD6F6;strokeColor=none;aspect=fixed;shadow=1;sketch=0;fontFamily=Fira Mono for Powerline;fontColor=#CCD6F6;backgroundOutline=0;" parent="lABykkGZ-Bi2eSI-mSfc-40" vertex="1">
          <mxGeometry x="-45.190000000000055" y="38" width="197.19" height="114.5" as="geometry" />
        </mxCell>
        <mxCell id="lABykkGZ-Bi2eSI-mSfc-42" value="" style="verticalLabelPosition=bottom;html=1;verticalAlign=top;strokeWidth=1;align=center;outlineConnect=0;dashed=0;outlineConnect=0;shape=mxgraph.aws3d.application_server;fillColor=#4BFCD2;strokeColor=#495670;aspect=fixed;shadow=1;" parent="lABykkGZ-Bi2eSI-mSfc-40" vertex="1">
          <mxGeometry width="123" height="124" as="geometry" />
        </mxCell>
        <mxCell id="lABykkGZ-Bi2eSI-mSfc-43" value="&lt;div style=&quot;font-size: 18px;&quot;&gt;&lt;font color=&quot;#495670&quot;&gt;VM3&lt;/font&gt;&lt;/div&gt;" style="text;html=1;strokeColor=none;fillColor=none;align=center;verticalAlign=middle;whiteSpace=wrap;rounded=0;shadow=1;rotation=-30;fontSize=18;fontFamily=Fira Mono for Powerline;" parent="lABykkGZ-Bi2eSI-mSfc-40" vertex="1">
          <mxGeometry x="-26.5" y="-4" width="138" height="55" as="geometry" />
        </mxCell>
        <mxCell id="lABykkGZ-Bi2eSI-mSfc-44" value="&lt;div style=&quot;font-size: 18px;&quot;&gt;Qemu&lt;/div&gt;" style="text;html=1;strokeColor=none;fillColor=none;align=center;verticalAlign=middle;whiteSpace=wrap;rounded=0;shadow=1;rotation=30;fontSize=18;fontFamily=Fira Mono for Powerline;fontColor=#495670;" parent="lABykkGZ-Bi2eSI-mSfc-40" vertex="1">
          <mxGeometry x="-23.5" y="99" width="70.5" height="28.5" as="geometry" />
        </mxCell>
        <mxCell id="lABykkGZ-Bi2eSI-mSfc-57" value="" style="verticalLabelPosition=bottom;html=1;verticalAlign=top;strokeWidth=1;align=center;outlineConnect=0;dashed=0;outlineConnect=0;shape=mxgraph.aws3d.dashedEdge2;strokeColor=#CCD6F6;aspect=fixed;shadow=1;sketch=0;fontFamily=Fira Mono for Powerline;fontColor=#495670;fillColor=#4BFCD2;gradientColor=#ffffff;" parent="1" vertex="1">
          <mxGeometry x="538.5" y="285.75" width="101.82" height="58" as="geometry" />
        </mxCell>
        <mxCell id="lABykkGZ-Bi2eSI-mSfc-58" value="" style="verticalLabelPosition=bottom;html=1;verticalAlign=top;strokeWidth=1;align=center;outlineConnect=0;dashed=0;outlineConnect=0;shape=mxgraph.aws3d.dashedEdge2;strokeColor=#CCD6F6;aspect=fixed;shadow=1;sketch=0;fontFamily=Fira Mono for Powerline;fontColor=#495670;fillColor=#4BFCD2;gradientColor=#ffffff;" parent="1" vertex="1">
          <mxGeometry x="364.99999999999994" y="225.74999999999997" width="149.67" height="85.25" as="geometry" />
        </mxCell>
        <mxCell id="lABykkGZ-Bi2eSI-mSfc-59" value="" style="verticalLabelPosition=bottom;html=1;verticalAlign=top;strokeWidth=1;align=center;outlineConnect=0;dashed=0;outlineConnect=0;shape=mxgraph.aws3d.dashedArrowlessEdge2;strokeColor=#CCD6F6;aspect=fixed;shadow=1;sketch=0;fontFamily=Fira Mono for Powerline;fontColor=#495670;fillColor=#4BFCD2;gradientColor=#ffffff;rotation=120;" parent="1" vertex="1">
          <mxGeometry x="350.5" y="263.1" width="56" height="31.9" as="geometry" />
        </mxCell>
        <mxCell id="ewp_ZvW3qv7N_3eg58lZ-1" value="" style="verticalLabelPosition=bottom;html=1;verticalAlign=top;strokeWidth=1;align=center;outlineConnect=0;dashed=0;outlineConnect=0;shape=mxgraph.aws3d.elasticLoadBalancing;fillColor=#CCD6F6;strokeColor=#5E5E5E;aspect=fixed;" parent="1" vertex="1">
          <mxGeometry x="291.5" y="285.75" width="92" height="88.17" as="geometry" />
        </mxCell>
        <mxCell id="ewp_ZvW3qv7N_3eg58lZ-2" value="&lt;font face=&quot;Fira Mono for Powerline&quot;&gt;KVM&lt;/font&gt;" style="text;html=1;strokeColor=none;fillColor=none;align=center;verticalAlign=middle;whiteSpace=wrap;rounded=0;shadow=1;rotation=-30;fontSize=18;fontColor=#CCD6F6;" parent="1" vertex="1">
          <mxGeometry x="310" y="350" width="138" height="55" as="geometry" />
        </mxCell>
        <mxCell id="ewp_ZvW3qv7N_3eg58lZ-3" value="" style="verticalLabelPosition=bottom;html=1;verticalAlign=top;strokeWidth=1;align=center;outlineConnect=0;dashed=0;outlineConnect=0;shape=mxgraph.aws3d.dashedEdge2;strokeColor=#CCD6F6;aspect=fixed;shadow=1;sketch=0;fontFamily=Fira Mono for Powerline;fillColor=default;gradientColor=none;" parent="1" vertex="1">
          <mxGeometry x="220" y="354" width="82.51" height="47" as="geometry" />
        </mxCell>
      </root>
    </mxGraphModel>
  </diagram>
  <diagram id="Z1P4SX2irMCQmFNg_QZD" name="Page-2">
    <mxGraphModel dx="2074" dy="838" grid="1" gridSize="10" guides="1" tooltips="1" connect="1" arrows="1" fold="1" page="1" pageScale="1" pageWidth="850" pageHeight="1100" math="0" shadow="0">
      <root>
        <mxCell id="0" />
        <mxCell id="1" parent="0" />
        <mxCell id="5RQv_ISfXtRouAXBV7Y_-1" value="HSM or TPM" style="verticalLabelPosition=bottom;html=1;verticalAlign=top;strokeWidth=1;align=center;outlineConnect=0;dashed=0;outlineConnect=0;shape=mxgraph.aws3d.securityTokenService;fillColor=#ECECEC;strokeColor=#5E5E5E;aspect=fixed;" vertex="1" parent="1">
          <mxGeometry x="480" y="180" width="170.63" height="182" as="geometry" />
        </mxCell>
        <mxCell id="5RQv_ISfXtRouAXBV7Y_-2" value="" style="verticalLabelPosition=bottom;html=1;verticalAlign=top;strokeWidth=1;align=center;outlineConnect=0;dashed=0;outlineConnect=0;shape=mxgraph.aws3d.vpcGateway;fillColor=#ECECEC;strokeColor=#5E5E5E;aspect=fixed;" vertex="1" parent="1">
          <mxGeometry x="400" y="340" width="116.7" height="102.8" as="geometry" />
        </mxCell>
      </root>
    </mxGraphModel>
  </diagram>
</mxfile>
